<?xml version="1.0" standalone="no"?>
<!DOCTYPE svg PUBLIC "-//W3C//DTD SVG 20010904//EN"
 "http://www.w3.org/TR/2001/REC-SVG-20010904/DTD/svg10.dtd">
<svg version="1.0" xmlns="http://www.w3.org/2000/svg"
 width="512.000000pt" height="512.000000pt" viewBox="0 0 512.000000 512.000000"
 preserveAspectRatio="xMidYMid meet">
<metadata>
Created by potrace 1.14, written by Peter Selinger 2001-2017
</metadata>
<g transform="translate(0.000000,512.000000) scale(0.100000,-0.100000)"
fill="#000000" stroke="none">
<path d="M3295 4058 c-47 -144 -220 -478 -246 -478 -6 0 -80 130 -227 400 -50
90 -44 92 -100 -19 -179 -353 -432 -576 -747 -659 -142 -37 -218 -46 -385 -45
-289 2 -652 109 -847 249 -24 17 -29 38 105 -461 31 -117 44 -181 37 -183 -19
-5 -214 68 -306 114 -49 24 -131 73 -184 108 -52 36 -95 60 -95 53 0 -7 18
-80 40 -162 42 -155 244 -912 261 -976 8 -31 17 -40 76 -68 79 -39 250 -107
292 -116 23 -5 30 -13 34 -38 2 -18 36 -151 76 -297 39 -146 76 -282 82 -302
8 -33 16 -39 66 -58 145 -54 453 -120 633 -136 100 -9 404 -9 507 0 202 17
485 82 693 158 643 234 1224 739 1592 1383 84 147 156 295 164 334 4 20 -14
61 -76 171 -45 80 -98 174 -117 210 -20 36 -55 99 -78 140 -23 41 -55 100 -72
130 -48 89 -84 153 -103 185 -9 17 -33 59 -53 95 -19 36 -49 90 -66 120 -18
30 -41 74 -53 98 -12 23 -25 42 -29 42 -3 0 -14 -28 -24 -62 -29 -106 -115
-327 -171 -441 -64 -131 -145 -277 -154 -277 -6 0 -17 18 -68 110 -142 259
-414 746 -421 753 -4 4 -20 -29 -36 -75z"/>
</g>
</svg>
