<svg width="40" height="40" viewBox="0 0 40 40" fill="none" xmlns="http://www.w3.org/2000/svg">
<g clip-path="url(#clip0_2978_1784)">
<path d="M11.3044 38.0155C13.9338 39.2869 16.8835 40 20 40C23.1165 40 26.0663 39.2869 28.6956 38.0155L30.4348 20L28.6956 1.98453C26.0663 0.713125 23.1165 0 20 0C16.8835 0 13.9338 0.713125 11.3044 1.98453L9.56525 20L11.3044 38.0155Z" fill="#FFDA44"/>
<path d="M28.6956 38.0148C35.3855 34.7799 40 27.9291 40 20C40 12.0709 35.3855 5.22007 28.6956 1.98523V38.0148Z" fill="#D80027"/>
<path d="M11.3044 38.0148V1.98523C4.61445 5.22007 0 12.0708 0 20C0 27.9292 4.61445 34.7799 11.3044 38.0148Z" fill="#0052B4"/>
<path d="M20 26.9565C20 23.765 20 20 20 20H25.2174V22.6087C25.2174 23.0619 24.3479 24.7225 22.2016 26.087C21.3887 26.6038 20.5472 26.7701 20 26.9565Z" fill="#D80027"/>
<path d="M14.7825 14.7826H20V20H14.7825V14.7826Z" fill="#D80027"/>
<path d="M22.6087 13.0435C22.6087 12.0829 21.83 11.3043 20.8695 11.3043C20.5523 11.3043 20.2559 11.3906 20 11.5389C19.744 11.3906 19.4477 11.3043 19.1305 11.3043C18.17 11.3043 17.3913 12.0829 17.3913 13.0435H13.0435V21.739C13.0435 24.9762 15.6143 26.8483 17.6303 27.8188C17.4795 28.0764 17.3913 28.3754 17.3913 28.6956C17.3913 29.6562 18.17 30.4348 19.1305 30.4348C19.4477 30.4348 19.7441 30.3485 20 30.2003C20.256 30.3485 20.5523 30.4348 20.8695 30.4348C21.83 30.4348 22.6087 29.6562 22.6087 28.6956C22.6087 28.3754 22.5205 28.0764 22.3696 27.8188C24.3856 26.8483 26.9565 24.9763 26.9565 21.739V13.0435H22.6087ZM24.3478 21.739C24.3478 22.1922 24.3478 23.5712 22.2016 24.9357C21.3886 25.4526 20.5472 25.7878 20 25.9741C19.4528 25.7878 18.6114 25.4526 17.7984 24.9357C15.6522 23.5712 15.6522 22.1922 15.6522 21.739V15.6521H24.3478V21.739Z" fill="#FF9811"/>
</g>
<defs>
<clipPath id="clip0_2978_1784">
<rect width="40" height="40" fill="white"/>
</clipPath>
</defs>
</svg>
