<svg width="40" height="40" viewBox="0 0 40 40" fill="none" xmlns="http://www.w3.org/2000/svg">
<g clip-path="url(#clip0_2978_3722)">
<path d="M20 40C31.0457 40 40 31.0457 40 20C40 8.9543 31.0457 0 20 0C8.9543 0 0 8.9543 0 20C0 31.0457 8.9543 40 20 40Z" fill="#F0F0F0"/>
<path d="M11.3043 26.9564L13.0435 38.7561C15.21 39.5601 17.5535 39.9999 19.9999 39.9999C28.5992 39.9999 35.9301 34.5724 38.7559 26.9564H11.3043Z" fill="black"/>
<path d="M11.3043 13.0435L13.0435 1.24383C15.21 0.439844 17.5535 0 19.9999 0C28.5992 0 35.9301 5.4275 38.7559 13.0435H11.3043Z" fill="#6DA544"/>
<path d="M0 20C0 28.5993 5.42758 35.9302 13.0435 38.7561V1.24402C5.42758 4.06988 0 11.4007 0 20Z" fill="#A2001D"/>
</g>
<defs>
<clipPath id="clip0_2978_3722">
<rect width="40" height="40" fill="white"/>
</clipPath>
</defs>
</svg>
