<svg width="40" height="40" viewBox="0 0 40 40" fill="none" xmlns="http://www.w3.org/2000/svg">
<g clip-path="url(#clip0_2978_1752)">
<path d="M28.6956 1.98453C26.0662 0.713125 23.1164 0 20 0C16.8835 0 13.9337 0.713125 11.3043 1.98453L9.56519 20L11.3043 38.0155C13.9337 39.2869 16.8835 40 20 40C23.1164 40 26.0662 39.2869 28.6956 38.0155L30.4347 20L28.6956 1.98453Z" fill="#D80027"/>
<path d="M11.3044 1.98523C4.61453 5.22015 0 12.0709 0 20C0 27.9291 4.61453 34.7798 11.3044 38.0148V1.98523Z" fill="black"/>
<path d="M28.6957 1.98523V38.0148C35.3855 34.7798 40.0001 27.9291 40.0001 20C40.0001 12.0709 35.3855 5.22015 28.6957 1.98523Z" fill="#496E2D"/>
<path d="M20.0001 13.0436C16.158 13.0436 13.0436 16.1581 13.0436 20.0001C13.0436 23.842 16.1581 26.9565 20.0001 26.9565C23.842 26.9565 26.9565 23.842 26.9565 20.0001C26.9565 16.1581 23.8421 13.0436 20.0001 13.0436ZM20.0001 24.3479C17.5988 24.3479 15.6523 22.4012 15.6523 20.0001C15.6523 17.5989 17.5989 15.6523 20.0001 15.6523C22.4012 15.6523 24.3479 17.5989 24.3479 20.0001C24.3479 22.4012 22.4013 24.3479 20.0001 24.3479Z" fill="#FFDA44"/>
<path d="M20 17.3914C19.0395 17.3914 18.2609 18.17 18.2609 19.1305V21.7392H21.7391V19.1305C21.7391 18.17 20.9606 17.3914 20 17.3914Z" fill="#FFDA44"/>
</g>
<defs>
<clipPath id="clip0_2978_1752">
<rect width="40" height="40" fill="white"/>
</clipPath>
</defs>
</svg>
