<svg width="40" height="40" viewBox="0 0 40 40" fill="none" xmlns="http://www.w3.org/2000/svg">
<g clip-path="url(#clip0_2978_1814)">
<path d="M0 20C0 21.3699 0.138125 22.7076 0.400547 24L20 25.2174L39.5995 24C39.862 22.7076 40 21.3699 40 20C40 18.6301 39.8619 17.2924 39.5995 16L20 14.7826L0.400547 16C0.138125 17.2924 0 18.6301 0 20H0Z" fill="#0052B4"/>
<path d="M39.5995 24H0.400513C2.25356 33.1289 10.3243 40 20 40C29.6757 40 37.7464 33.1289 39.5995 24Z" fill="#F0F0F0"/>
<path d="M0.400513 16H39.5996C37.7464 6.87109 29.6758 0 20 0C10.3241 0 2.25356 6.87109 0.400513 16Z" fill="black"/>
<path d="M28.6957 16H11.3044L14.8576 14.3286L12.9655 10.8876L16.8237 11.6255L17.3127 7.72791L20.0001 10.5946L22.6876 7.72791L23.1763 11.6255L27.0347 10.8876L25.1427 14.3288L28.6957 16Z" fill="#FFDA44"/>
<path d="M0 20C0 31.0456 8.95437 40 20 40L3.99969 7.99927C1.48844 11.3422 0 15.4971 0 20Z" fill="#A2001D"/>
<path d="M20 40C31.0456 40 40 31.0456 40 20C40 15.4971 38.5116 11.3422 36.0003 7.99927L20 40Z" fill="#A2001D"/>
</g>
<defs>
<clipPath id="clip0_2978_1814">
<rect width="40" height="40" fill="white"/>
</clipPath>
</defs>
</svg>
