<svg width="40" height="40" viewBox="0 0 40 40" fill="none" xmlns="http://www.w3.org/2000/svg">
<g clip-path="url(#clip0_2978_1799)">
<path d="M40 20C40 31.0456 31.0456 40 20 40C8.95437 40 0 31.0456 0 20C0 20.0048 20 0.0021875 20 0C31.0456 0 40 8.95437 40 20Z" fill="#0052B4"/>
<path d="M19.9465 20H20C20 19.9821 20 19.9646 20 19.9465C19.9822 19.9644 19.9644 19.9822 19.9465 20Z" fill="#F0F0F0"/>
<path d="M20 10.4348C20 6.91563 20 4.60977 20 0H19.9966C8.95242 0.001875 0 8.95539 0 20H10.4348V14.1241L16.3106 20H19.9466C19.9644 19.9822 19.9822 19.9644 20.0001 19.9465C20.0001 18.5991 20.0001 17.3968 20.0001 16.3108L14.1241 10.4348H20Z" fill="#F0F0F0"/>
<path d="M10.1182 2.60864C6.99016 4.38981 4.38961 6.99028 2.60852 10.1183V20H7.82594V7.82622V7.82607H19.9998C19.9998 6.18052 19.9998 4.61286 19.9998 2.60864H10.1182Z" fill="#D80027"/>
<path d="M19.9999 17.5405L12.8941 10.4348H10.4347V10.435L19.9998 20H19.9999C19.9999 20 19.9999 18.3041 19.9999 17.5405Z" fill="#D80027"/>
<path d="M33.8233 22.9277C34.3984 22.1364 34.7826 21.1702 34.7826 20V11.3044C34.0558 11.8503 33.1527 12.1739 32.1739 12.1739C30.7515 12.1739 29.4888 11.4909 28.6956 10.4349C27.9023 11.4909 26.6396 12.1739 25.2173 12.1739C24.2384 12.1739 23.3353 11.8502 22.6086 11.3045V20C22.6086 21.1702 22.9928 22.1364 23.5679 22.9277H33.8233Z" fill="#F3F3F3"/>
<path d="M32.0145 18.3868C32.2913 17.7113 32.5067 16.724 32.5067 16.2327C32.5067 15.4433 31.4774 14.8033 31.4774 14.8033C31.4774 14.8033 30.4482 15.4433 30.4482 16.2327C30.4482 16.7241 30.6636 17.7114 30.9403 18.3868L30.3462 19.7283C30.6954 19.8703 31.0771 19.9492 31.4775 19.9492C31.8779 19.9492 32.2596 19.8702 32.6088 19.7283L32.0145 18.3868Z" fill="#FF9811"/>
<path d="M27.9917 14.0431C27.2685 14.1411 26.3058 14.4485 25.8803 14.6942C25.1967 15.0889 25.157 16.3001 25.157 16.3001C25.157 16.3001 26.2259 16.8714 26.9095 16.4767C27.3351 16.231 28.0823 15.551 28.5286 14.9735L29.9877 14.8173C29.936 14.444 29.8132 14.0739 29.6133 13.7273C29.413 13.3806 29.154 13.0894 28.8564 12.8579L27.9917 14.0431Z" fill="#FF9811"/>
<path d="M26.2416 19.699C26.6879 20.2761 27.4353 20.9561 27.861 21.2018C28.5446 21.5965 29.6135 21.0254 29.6135 21.0254C29.6135 21.0254 29.5736 19.814 28.8901 19.4193C28.4644 19.1736 27.5018 18.8665 26.7785 18.7686L25.9139 17.5833C25.6163 17.8147 25.3573 18.1061 25.157 18.4524C24.957 18.7992 24.8345 19.1691 24.7826 19.5426L26.2416 19.699Z" fill="#FF9811"/>
<path d="M23.3528 22.6089C24.9768 25.2147 28.6957 26.087 28.6957 26.087C28.6957 26.087 32.4144 25.2147 34.0386 22.6089H23.3528Z" fill="#338AF3"/>
</g>
<defs>
<clipPath id="clip0_2978_1799">
<rect width="40" height="40" fill="white"/>
</clipPath>
</defs>
</svg>
