<svg width="40" height="40" viewBox="0 0 40 40" fill="none" xmlns="http://www.w3.org/2000/svg">
<g clip-path="url(#clip0_2978_1792)">
<path d="M0 20C0 8.95437 8.95437 0 20 0C31.0456 0 40 8.95437 40 20C39.1305 20 20 22.6087 20 22.6087L0 20Z" fill="#D80027"/>
<path d="M40 20C40 31.0456 31.0456 40 20 40C8.95437 40 0 31.0456 0 20" fill="black"/>
<path d="M17.2577 15.9072L18.9532 17.1377L18.3071 19.1305L20.0013 17.898L21.6969 19.1285L21.0483 17.1363L22.7424 15.9039L20.6475 15.9052L19.9988 13.9131L19.3526 15.9059L17.2577 15.9072Z" fill="#FFDA44"/>
<path d="M25 11.3397C23.424 10.4298 21.7008 10.0003 20 10.0033V12.6114C21.2571 12.6092 22.5307 12.9264 23.6956 13.599C27.2252 15.6368 28.4388 20.1662 26.4009 23.6957C24.3632 27.2253 19.8339 28.4389 16.3043 26.4011C15.276 25.8075 14.4459 25.0014 13.8341 24.0711L11.6562 25.5089C12.4841 26.7675 13.6088 27.8571 15 28.6602C19.7753 31.4172 25.9032 29.7753 28.6602 25C31.4172 20.2246 29.7753 14.0967 25 11.3397Z" fill="#FFDA44"/>
<path d="M14.2336 18.2609C13.5422 19.5248 14.0064 21.1101 15.2703 21.8015L23.7429 26.4312C23.1667 27.4844 23.4727 28.7663 24.5259 29.3425L26.8146 30.5945C27.8678 31.1707 29.189 30.7838 29.7652 29.7306L31.0171 27.442L14.2336 18.2609Z" fill="#FFDA44"/>
</g>
<defs>
<clipPath id="clip0_2978_1792">
<rect width="40" height="40" fill="white"/>
</clipPath>
</defs>
</svg>
