<svg width="40" height="40" viewBox="0 0 40 40" fill="none" xmlns="http://www.w3.org/2000/svg">
<g clip-path="url(#clip0_2978_1822)">
<path d="M20 40C31.0457 40 40 31.0457 40 20C40 8.9543 31.0457 0 20 0C8.9543 0 0 8.9543 0 20C0 31.0457 8.9543 40 20 40Z" fill="#F0F0F0"/>
<path d="M20 0C12.0707 0 5.2195 4.61445 1.9845 11.3044H38.0154C34.7804 4.61445 27.9291 0 20 0Z" fill="#338AF3"/>
<path d="M19.9998 40.0001C27.929 40.0001 34.7803 35.3856 38.0153 28.6957H1.98438C5.21938 35.3856 12.0706 40.0001 19.9998 40.0001Z" fill="#338AF3"/>
<path d="M25.9778 20L23.5352 21.1489L24.8359 23.5145L22.1836 23.0071L21.8475 25.6864L20.0001 23.7158L18.1526 25.6864L17.8166 23.0071L15.1642 23.5144L16.4648 21.1489L14.0223 20L16.4649 18.851L15.1642 16.4855L17.8165 16.9929L18.1527 14.3135L20.0001 16.2841L21.8476 14.3135L22.1836 16.9929L24.836 16.4855L23.5353 18.8511L25.9778 20Z" fill="#FFDA44"/>
</g>
<defs>
<clipPath id="clip0_2978_1822">
<rect width="40" height="40" fill="white"/>
</clipPath>
</defs>
</svg>
