<svg width="40" height="40" viewBox="0 0 40 40" fill="none" xmlns="http://www.w3.org/2000/svg">
<g clip-path="url(#clip0_2978_1776)">
<path d="M20 40C31.0457 40 40 31.0457 40 20C40 8.9543 31.0457 0 20 0C8.9543 0 0 8.9543 0 20C0 31.0457 8.9543 40 20 40Z" fill="#F0F0F0"/>
<path d="M29.7028 2.50875C26.8291 0.91125 23.5211 0 20 0C8.95516 0 0.00140625 8.95297 0 19.9977L13.913 13.0435L29.7028 2.50875Z" fill="#0052B4"/>
<path d="M0 20.0023C0.00140625 31.047 8.95516 40 20 40C23.5211 40 26.8291 39.0889 29.7028 37.4912L13.913 26.9565L0 20.0023Z" fill="#0052B4"/>
<path d="M31.3695 3.54544C30.8323 3.17364 30.2757 2.82786 29.7021 2.50903L0 19.9976V20C0 20 0 20.0016 0 20.0023L29.7022 37.4908C30.2758 37.1719 30.8323 36.8262 31.3696 36.4544L3.42359 20L31.3695 3.54544Z" fill="#D80027"/>
<path d="M34.7825 19.2541H32.4002C33.0196 18.5104 32.9814 17.4039 32.2836 16.7062C33.0228 15.967 33.0228 14.7685 32.2836 14.0292L32.239 14.0739C32.9782 13.3348 33.0228 12.0916 32.2836 11.3524L21.576 22.0599C22.3153 22.7992 23.4928 22.7904 24.2319 22.0512L24.438 21.8628L29.5652 21.3967V23.6019H31.3043V21.2386L33.913 21.0015L34.7825 19.2541Z" fill="#A2001D"/>
<path d="M21.7398 24.3478L20 23.4783L21.7398 22.6086H33.0441V24.3478H21.7398Z" fill="#FFDA44"/>
</g>
<defs>
<clipPath id="clip0_2978_1776">
<rect width="40" height="40" fill="white"/>
</clipPath>
</defs>
</svg>
