<svg width="40" height="40" viewBox="0 0 40 40" fill="none" xmlns="http://www.w3.org/2000/svg">
<g clip-path="url(#clip0_2978_1856)">
<path d="M38.756 26.9564C39.56 24.7899 40 22.4464 40 19.9999C40 17.5535 39.56 15.2102 38.756 13.0435L20 11.3043L1.24398 13.0435C0.440078 15.2102 0 17.5535 0 19.9999C0 22.4464 0.440078 24.7899 1.24398 26.9564L20 28.6956L38.756 26.9564Z" fill="#F0F0F0"/>
<path d="M20.0002 40.0001C28.5995 40.0001 35.9304 34.5726 38.7562 26.9565H1.24414C4.07008 34.5726 11.4009 40.0001 20.0002 40.0001Z" fill="#D80027"/>
<path d="M20.0001 0C11.4007 0 4.06996 5.4275 1.24402 13.0435H38.7561C35.9303 5.4275 28.5993 0 20.0001 0Z" fill="#D80027"/>
</g>
<defs>
<clipPath id="clip0_2978_1856">
<rect width="40" height="40" fill="white"/>
</clipPath>
</defs>
</svg>
