<svg width="40" height="40" viewBox="0 0 40 40" fill="none" xmlns="http://www.w3.org/2000/svg">
<g clip-path="url(#clip0_2978_1840)">
<path d="M40 20C40 31.0456 31.0456 40 20 40C8.95437 40 0 31.0456 0 20C0 20.0047 20 0.00226562 20 0C31.0456 0 40 8.95437 40 20Z" fill="#0052B4"/>
<path d="M20.0001 0C19.999 0 19.9978 7.8125e-05 19.9967 7.8125e-05L20.0001 0Z" fill="#F0F0F0"/>
<path d="M19.9464 20H19.9999C19.9999 19.9819 19.9999 19.9646 19.9999 19.9465C19.9821 19.9644 19.9643 19.9822 19.9464 20Z" fill="#F0F0F0"/>
<path d="M20 10.435C20 6.91587 20 4.60985 20 0.000244141H19.9966C8.9525 0.00204102 0 8.95556 0 20.0002H10.4348V14.1242L16.3107 20.0002H19.9466C19.9645 19.9824 19.9823 19.9645 20.0001 19.9466C20.0001 18.5992 20.0001 17.397 20.0001 16.311L14.1241 10.435H20Z" fill="#F0F0F0"/>
<path d="M10.1183 2.60864C6.99028 4.38981 4.38981 6.99028 2.60864 10.1183V20H7.82607V7.82614V7.82607H20C20 6.18052 20 4.61286 20 2.60864H10.1183Z" fill="#D80027"/>
<path d="M20.0001 17.5406L12.8944 10.435H10.4349C10.4349 10.4349 10.4349 10.435 10.4349 10.435L20 20H20.0001C20.0001 20 20.0001 18.3043 20.0001 17.5406Z" fill="#D80027"/>
<path d="M12.0621 23.4783L13.1598 25.7734L15.6385 25.2005L14.5285 27.4898L16.5218 29.0705L14.04 29.6298L14.0469 32.1739L12.0621 30.5823L10.0775 32.1739L10.0844 29.6298L7.60254 29.0705L9.5959 27.4898L8.48574 25.2005L10.9646 25.7734L12.0621 23.4783Z" fill="#F0F0F0"/>
<path d="M29.944 27.826L30.4928 28.9736L31.7322 28.6871L31.1771 29.8318L32.1738 30.6221L30.9329 30.9018L30.9363 32.1739L29.944 31.378L28.9517 32.1739L28.9551 30.9018L27.7142 30.6221L28.7109 29.8318L28.1559 28.6871L29.3952 28.9736L29.944 27.826Z" fill="#F0F0F0"/>
<path d="M24.8385 15.6522L25.3872 16.7999L26.6266 16.5133L26.0716 17.6579L27.0683 18.4483L25.8274 18.728L25.8308 20L24.8385 19.2042L23.8461 20L23.8495 18.728L22.6086 18.4483L23.6053 17.6579L23.0503 16.5133L24.2897 16.7999L24.8385 15.6522Z" fill="#F0F0F0"/>
<path d="M29.944 8.69568L30.4928 9.84334L31.7322 9.55685L31.1772 10.7015L32.1738 11.4918L30.9329 11.7715L30.9363 13.0436L29.944 12.2477L28.9517 13.0436L28.9551 11.7715L27.7142 11.4918L28.7108 10.7015L28.1559 9.55685L29.3952 9.84334L29.944 8.69568Z" fill="#F0F0F0"/>
<path d="M34.4038 13.9131L34.9525 15.0607L36.1919 14.7742L35.6369 15.9188L36.6336 16.7092L35.3926 16.9889L35.3961 18.2609L34.4038 17.4651L33.4114 18.2609L33.4148 16.9889L32.174 16.7092L33.1706 15.9188L32.6156 14.7742L33.8549 15.0607L34.4038 13.9131Z" fill="#F0F0F0"/>
<path d="M31.2148 20L31.6464 21.3286H33.0435L31.9132 22.1498L32.345 23.4783L31.2148 22.6572L30.0846 23.4783L30.5163 22.1498L29.3861 21.3286H30.7831L31.2148 20Z" fill="#F0F0F0"/>
</g>
<defs>
<clipPath id="clip0_2978_1840">
<rect width="40" height="40" fill="white"/>
</clipPath>
</defs>
</svg>
