<svg width="40" height="40" viewBox="0 0 40 40" fill="none" xmlns="http://www.w3.org/2000/svg">
<g clip-path="url(#clip0_2978_1832)">
<path d="M20 40C31.0457 40 40 31.0457 40 20C40 8.9543 31.0457 0 20 0C8.9543 0 0 8.9543 0 20C0 31.0457 8.9543 40 20 40Z" fill="#FFDA44"/>
<path d="M20 39.9999C26.0618 39.9999 31.4933 37.3028 35.161 33.0435H4.83899C8.50672 37.3028 13.9382 39.9999 20 39.9999Z" fill="#338AF3"/>
<path d="M40 20C40 8.95437 31.0456 0 20 0C8.95437 0 0 8.95437 0 20C0 21.8052 0.240625 23.5538 0.688984 25.2174H39.3111C39.7594 23.5538 40 21.8052 40 20Z" fill="#338AF3"/>
<path d="M1.58972 27.826C1.97527 28.732 2.42597 29.6032 2.93542 30.4347H37.0645C37.5739 29.6032 38.0246 28.7319 38.4103 27.826H1.58972Z" fill="#338AF3"/>
<path d="M9.16543 12.6143L5.25793 10.8898L9.16543 9.16523L10.8899 5.25781L12.6143 9.16523L16.5218 10.8898L12.6143 12.6143L10.8899 16.5217L9.16543 12.6143Z" fill="#F0F0F0"/>
<path d="M10.8898 7.4115L11.9547 9.8247L14.368 10.8898L11.9547 11.9548L10.8898 14.368L9.8247 11.9548L7.4115 10.8898L9.8247 9.8247L10.8898 7.4115Z" fill="#D80027"/>
</g>
<defs>
<clipPath id="clip0_2978_1832">
<rect width="40" height="40" fill="white"/>
</clipPath>
</defs>
</svg>
