<svg width="40" height="40" viewBox="0 0 40 40" fill="none" xmlns="http://www.w3.org/2000/svg">
<g clip-path="url(#clip0_2978_1861)">
<path d="M40 20C40 17.5536 39.56 15.2101 38.756 13.0436L20 12.174L1.24398 13.0435C0.440078 15.2101 0 17.5536 0 20C0 22.4465 0.440078 24.79 1.24398 26.9565L20 27.8261L38.756 26.9566C39.56 24.79 40 22.4465 40 20Z" fill="#D80027"/>
<path d="M20 40.0001C28.5993 40.0001 35.9302 34.5726 38.7561 26.9565H1.24402C4.06988 34.5726 11.4007 40.0001 20 40.0001Z" fill="#6DA544"/>
<path d="M1.24402 13.0435H38.7561C35.9302 5.4275 28.5993 0 20 0C11.4007 0 4.06988 5.4275 1.24402 13.0435Z" fill="#338AF3"/>
<path d="M20.4347 25.6522C17.3131 25.6522 14.7825 23.1216 14.7825 20C14.7825 16.8785 17.3131 14.3478 20.4347 14.3478C21.408 14.3478 22.3239 14.5939 23.1234 15.0272C21.869 13.8006 20.1537 13.0435 18.2608 13.0435C14.4188 13.0435 11.3043 16.158 11.3043 19.9999C11.3043 23.8419 14.4189 26.9564 18.2608 26.9564C20.1538 26.9564 21.8691 26.1993 23.1234 24.9727C22.3239 25.4061 21.408 25.6522 20.4347 25.6522Z" fill="#F0F0F0"/>
<path d="M24.7824 16.0869L25.5311 18.1925L27.5494 17.2329L26.5899 19.2512L28.6955 20L26.5899 20.7487L27.5494 22.767L25.5311 21.8075L24.7824 23.913L24.0338 21.8075L22.0155 22.767L22.975 20.7487L20.8694 20L22.975 19.2512L22.0155 17.2329L24.0338 18.1925L24.7824 16.0869Z" fill="#F0F0F0"/>
</g>
<defs>
<clipPath id="clip0_2978_1861">
<rect width="40" height="40" fill="white"/>
</clipPath>
</defs>
</svg>
