<svg width="40" height="40" viewBox="0 0 40 40" fill="none" xmlns="http://www.w3.org/2000/svg">
<g clip-path="url(#clip0_2978_1903)">
<path d="M28.6956 1.98453C26.0662 0.713125 23.1164 0 20 0C16.8835 0 13.9337 0.713125 11.3043 1.98453L9.56519 20L11.3043 38.0155C13.9337 39.2869 16.8835 40 20 40C23.1164 40 26.0662 39.2869 28.6956 38.0155L30.4347 20L28.6956 1.98453Z" fill="#FFDA44"/>
<path d="M11.3044 1.98523C4.61453 5.22007 0 12.0708 0 20C0 27.9292 4.61453 34.7799 11.3044 38.0148V1.98523Z" fill="#0052B4"/>
<path d="M28.6956 1.98523V38.0148C35.3854 34.7799 39.9999 27.9291 39.9999 20C39.9999 12.0709 35.3854 5.22007 28.6956 1.98523Z" fill="#0052B4"/>
<path d="M26.0869 12.174L27.2535 12.7572L26.0869 12.174L24.9202 11.5907C24.8499 11.7314 23.3265 14.8308 23.0777 19.5653H21.3043V12.174L19.9999 10.4348L18.6956 12.174V19.5653H16.9222C16.6733 14.8308 15.15 11.7314 15.0796 11.5907L12.7463 12.7573C12.7624 12.7893 14.3478 16.0163 14.3478 20.8697V22.174H18.6956V29.5654H21.3043V22.174H25.6521V20.8696C25.6521 18.3604 26.0863 16.2913 26.4506 14.9974C26.8477 13.5865 27.251 12.7625 27.255 12.7543L26.0869 12.174Z" fill="black"/>
</g>
<defs>
<clipPath id="clip0_2978_1903">
<rect width="40" height="40" fill="white"/>
</clipPath>
</defs>
</svg>
