<svg width="40" height="40" viewBox="0 0 40 40" fill="none" xmlns="http://www.w3.org/2000/svg">
<g clip-path="url(#clip0_2978_2098)">
<path d="M0 20C0 8.95437 8.95437 0 20 0C31.0456 0 40 8.95437 40 20C39.1305 20 20 22.6087 20 22.6087L0 20Z" fill="#D80027"/>
<path d="M40 20C40 31.0456 31.0456 40 20 40C8.95437 40 0 31.0456 0 20" fill="#6DA544"/>
<path d="M20.0001 13.0436L21.5108 17.6934H26.4004L22.4448 20.5673L23.9556 25.2175L20.0001 22.3437L16.0445 25.2175L17.5556 20.5673L13.5999 17.6934H18.4892L20.0001 13.0436Z" fill="#FFDA44"/>
</g>
<defs>
<clipPath id="clip0_2978_2098">
<rect width="40" height="40" fill="white"/>
</clipPath>
</defs>
</svg>
