<svg width="40" height="40" viewBox="0 0 40 40" fill="none" xmlns="http://www.w3.org/2000/svg">
<g clip-path="url(#clip0_2978_2094)">
<path d="M40 20C40 17.5536 39.56 15.2101 38.756 13.0436L20 12.174L1.24398 13.0435C0.440078 15.2101 0 17.5536 0 20C0 22.4465 0.440078 24.79 1.24398 26.9565L20 27.8261L38.756 26.9566C39.56 24.79 40 22.4465 40 20Z" fill="#496E2D"/>
<path d="M19.9999 39.9999C28.5992 39.9999 35.9301 34.5724 38.7559 26.9564H1.2439C4.06976 34.5724 11.4006 39.9999 19.9999 39.9999Z" fill="#D80027"/>
<path d="M1.2439 13.0435H38.756C35.9301 5.4275 28.5992 0 19.9999 0C11.4006 0 4.06976 5.4275 1.2439 13.0435Z" fill="#F0F0F0"/>
</g>
<defs>
<clipPath id="clip0_2978_2094">
<rect width="40" height="40" fill="white"/>
</clipPath>
</defs>
</svg>
