<svg width="40" height="40" viewBox="0 0 40 40" fill="none" xmlns="http://www.w3.org/2000/svg">
<g clip-path="url(#clip0_2978_1888)">
<path d="M20 40C31.0457 40 40 31.0457 40 20C40 8.9543 31.0457 0 20 0C8.9543 0 0 8.9543 0 20C0 31.0457 8.9543 40 20 40Z" fill="#F0F0F0"/>
<path d="M20 0C15.9863 0 12.2494 1.1832 9.1172 3.21859L14.2609 6.66617L7.82611 9.99945L14.2609 13.3327L7.82611 16.666L14.2609 19.9989L7.82611 23.3321L14.2609 26.6653L7.82611 29.9989L14.2609 33.3322L9.11658 36.7809C12.2489 38.8166 15.986 40 20 40C31.0456 40 40 31.0456 40 20C40 8.95437 31.0456 0 20 0V0Z" fill="#D80027"/>
</g>
<defs>
<clipPath id="clip0_2978_1888">
<rect width="40" height="40" fill="white"/>
</clipPath>
</defs>
</svg>
