<svg width="40" height="40" viewBox="0 0 40 40" fill="none" xmlns="http://www.w3.org/2000/svg">
<g clip-path="url(#clip0_2978_2102)">
<path d="M20 40C31.0457 40 40 31.0457 40 20C40 8.9543 31.0457 0 20 0C8.9543 0 0 8.9543 0 20C0 31.0457 8.9543 40 20 40Z" fill="#F0F0F0"/>
<path d="M32.1778 4.133C25.0175 -1.37684 14.9825 -1.37684 7.8222 4.13293L20 16.3107L32.1778 4.133Z" fill="#D80027"/>
<path d="M19.9999 23.6894L7.82227 35.867C14.9826 41.3769 25.0176 41.3769 32.1779 35.867L20.0001 23.6892L19.9999 23.6894Z" fill="#D80027"/>
<path d="M16.3107 20L4.13293 7.82214C-1.37691 14.9825 -1.37691 25.0175 4.13293 32.1778L16.3107 20Z" fill="#6DA544"/>
<path d="M23.6893 20L35.867 32.1778C41.3768 25.0175 41.3768 14.9825 35.867 7.82214L23.6893 20Z" fill="#6DA544"/>
<path d="M20 28.6956C24.8025 28.6956 28.6956 24.8024 28.6956 19.9999C28.6956 15.1975 24.8025 11.3043 20 11.3043C15.1975 11.3043 11.3044 15.1975 11.3044 19.9999C11.3044 24.8024 15.1975 28.6956 20 28.6956Z" fill="#F0F0F0"/>
<path d="M19.9999 13.9131L20.753 15.2175H22.2591L21.506 16.5218L22.2591 17.8261H20.753L19.9999 19.1305L19.2469 17.8261H17.7408L18.4938 16.5218L17.7408 15.2175H19.2469L19.9999 13.9131Z" fill="#D80027"/>
<path d="M16.1722 20L16.9252 21.3044H18.4313L17.6783 22.6087L18.4313 23.913H16.9252L16.1722 25.2174L15.4191 23.913H13.913L14.666 22.6087L13.913 21.3044H15.4191L16.1722 20Z" fill="#D80027"/>
<path d="M23.8278 20L24.5808 21.3044H26.0869L25.3339 22.6087L26.0869 23.913H24.5808L23.8278 25.2174L23.0746 23.913H21.5685L22.3216 22.6087L21.5685 21.3044H23.0746L23.8278 20Z" fill="#D80027"/>
</g>
<defs>
<clipPath id="clip0_2978_2102">
<rect width="40" height="40" fill="white"/>
</clipPath>
</defs>
</svg>
