<svg width="40" height="40" viewBox="0 0 40 40" fill="none" xmlns="http://www.w3.org/2000/svg">
<g clip-path="url(#clip0_2978_1951)">
<path d="M40 20C40 31.0456 31.0456 40 20 40C8.95437 40 0 31.0456 0 20C0 20.0048 20 0.0021875 20 0C31.0456 0 40 8.95437 40 20Z" fill="#D80027"/>
<path d="M19.9999 9.56519V16.3107L13.0435 9.56519H19.9999Z" fill="#0052B4"/>
<path d="M10.4347 20H16.3106L10.4347 12.174L9.56519 18.2609L10.4347 20Z" fill="#0052B4"/>
<path d="M19.9465 20H20C20 19.9821 20 19.9646 20 19.9465C19.9822 19.9644 19.9644 19.9822 19.9465 20Z" fill="#F0F0F0"/>
<path d="M20 10.4348C20 6.91563 20 4.60977 20 0H19.9966C8.95242 0.001875 0 8.95539 0 20H10.4348V14.1241L16.3106 20H19.9466C19.9644 19.9822 19.9822 19.9644 20.0001 19.9465C20.0001 18.5991 20.0001 17.3968 20.0001 16.3108L14.1241 10.4348H20Z" fill="#F0F0F0"/>
<path d="M10.1183 2.60864C6.99028 4.38981 4.38974 6.99028 2.60864 10.1183V20.8695H7.82607V7.82622V7.82607H20.8695C20.8695 6.18052 20.8695 4.61286 20.8695 2.60864H10.1183Z" fill="#D80027"/>
<path d="M20.795 18.3355L12.8941 10.4348H10.4347V10.435L20.7948 20.795H20.7949C20.795 20.7951 20.795 19.0993 20.795 18.3355Z" fill="#D80027"/>
<path d="M22.6086 10.4348V20C22.6086 24.6593 34.7826 24.6593 34.7826 20V10.4348H22.6086Z" fill="#F3F3F3"/>
<path d="M22.6086 20V19.9999C22.6086 24.6593 28.6956 26.0869 28.6956 26.0869C28.6956 26.0869 34.7826 24.6593 34.7826 19.9999V20H22.6086Z" fill="#6DA544"/>
<path d="M28.6956 16.174L25.8695 17.3914V20L28.6956 21.7392L31.5217 20V17.3914L28.6956 16.174Z" fill="#A2001D"/>
<path d="M25.8695 14.7826H31.5217V17.3913H25.8695V14.7826Z" fill="#338AF3"/>
</g>
<defs>
<clipPath id="clip0_2978_1951">
<rect width="40" height="40" fill="white"/>
</clipPath>
</defs>
</svg>
