<svg width="40" height="40" viewBox="0 0 40 40" fill="none" xmlns="http://www.w3.org/2000/svg">
<g clip-path="url(#clip0_2978_1994)">
<path d="M20 40C31.0457 40 40 31.0457 40 20C40 8.9543 31.0457 0 20 0C8.9543 0 0 8.9543 0 20C0 31.0457 8.9543 40 20 40Z" fill="#6DA544"/>
<path d="M20 7.82605L36.5217 20L20 32.1739L3.47827 20L20 7.82605Z" fill="#FFDA44"/>
<path d="M20.0001 26.9565C23.842 26.9565 26.9565 23.842 26.9565 20.0001C26.9565 16.1581 23.842 13.0436 20.0001 13.0436C16.1581 13.0436 13.0436 16.1581 13.0436 20.0001C13.0436 23.842 16.1581 26.9565 20.0001 26.9565Z" fill="#F0F0F0"/>
<path d="M16.5219 19.5652C15.3122 19.5652 14.1448 19.7492 13.0459 20.0906C13.0946 23.8906 16.1886 26.9565 20.0002 26.9565C22.3571 26.9565 24.4386 25.7833 25.697 23.9903C23.5441 21.2952 20.2315 19.5652 16.5219 19.5652Z" fill="#0052B4"/>
<path d="M26.8277 21.3329C26.9115 20.9013 26.9567 20.4561 26.9567 20.0001C26.9567 16.158 23.8422 13.0436 20.0002 13.0436C17.1335 13.0436 14.6725 14.778 13.6075 17.2544C14.549 17.0594 15.5236 16.9566 16.522 16.9566C20.5624 16.9565 24.2175 18.6361 26.8277 21.3329Z" fill="#0052B4"/>
</g>
<defs>
<clipPath id="clip0_2978_1994">
<rect width="40" height="40" fill="white"/>
</clipPath>
</defs>
</svg>
