<svg width="40" height="40" viewBox="0 0 40 40" fill="none" xmlns="http://www.w3.org/2000/svg">
<g clip-path="url(#clip0_2978_1967)">
<path d="M34.1421 34.1421C26.3317 41.9526 13.6684 41.9526 5.85785 34.1421C-1.95262 26.3317 -1.95262 13.6683 5.85785 5.85775C5.86066 5.85775 23.8311 0.547832 31.6417 8.3583C39.4522 16.1688 34.1475 34.1367 34.1421 34.1421Z" fill="#FFDA44"/>
<path d="M34.1421 34.1421C41.9526 26.3317 41.9526 13.6683 34.1421 5.85776C26.3316 -1.95279 13.6683 -1.95271 5.85779 5.85776L34.1421 34.1421Z" fill="#D80027"/>
<path d="M25.2278 25.2298C24.4062 25.5524 23.4516 25.5182 22.6234 25.0534C21.1601 24.2322 20.6378 22.3733 21.4593 20.9098L21.2099 20.7699C23.7155 20.1658 25.5691 17.8916 25.5366 15.2078C25.5165 13.5393 24.7709 12.0466 23.6048 11.0251L21.7787 12.8959C22.4691 13.4461 22.9166 14.29 22.9281 15.2394C22.9484 16.9176 21.5998 18.2994 19.9218 18.3196L19.9253 18.6053C18.1493 16.7376 15.253 16.2694 12.9451 17.6394C11.5103 18.4913 10.5905 19.8832 10.2888 21.4039L12.8219 22.05C12.9533 21.177 13.4602 20.3675 14.2767 19.8827C15.7198 19.0261 17.5907 19.5033 18.4473 20.9462L18.6933 20.8004C17.9637 23.2721 19.0063 26.0145 21.3469 27.3283C22.802 28.145 24.4673 28.2457 25.9351 27.7466L25.2278 25.2298ZM19.9428 20.0584L19.9426 20.0584L19.9428 20.0584Z" fill="#FF9811"/>
<path d="M27.4052 13.5454L25.9916 18.59L21.7502 17.8068L19.0201 12.1791L11.6445 14.7963L11.0629 13.1573L9.13318 12.9195L10.5872 17.0171L15.6629 15.719L17.1053 19.7838L13.5965 24.962L19.551 30.0406L18.4223 31.3638L19.1813 33.154L22.003 29.8459L18.341 26.0992L21.14 22.8177L27.3789 23.2673L28.7999 15.5712L30.5101 15.887L31.6811 14.3347L27.4052 13.5454ZM19.9986 20.1361V20.1363V20.1361Z" fill="#FFEACF"/>
</g>
<defs>
<clipPath id="clip0_2978_1967">
<rect width="40" height="40" fill="white"/>
</clipPath>
</defs>
</svg>
