<svg width="40" height="40" viewBox="0 0 40 40" fill="none" xmlns="http://www.w3.org/2000/svg">
<g clip-path="url(#clip0_2978_1988)">
<path d="M0.944497 13.913C0.331841 15.8324 4.39591e-05 17.8772 0.000122084 19.9999C4.39591e-05 22.1225 0.331841 24.1674 0.944575 26.0869L20.0001 26.9566L39.0556 26.0869C39.6682 24.1674 40 22.1224 40 20C40 17.8774 39.6682 15.8324 39.0556 13.913L20 13.0435L0.944497 13.913Z" fill="#F0F0F0"/>
<path d="M40 20C40 18.8135 39.8961 17.6513 39.6979 16.5216H0.302188C0.103906 17.6513 0 18.8133 0 19.9999C0 21.1864 0.103984 22.3485 0.302188 23.4782H39.6979C39.896 22.3484 40 21.1864 40 20Z" fill="black"/>
<path d="M19.9999 39.9999C28.923 39.9999 36.48 34.1559 39.0554 26.0868H0.944336C3.51973 34.1559 11.0768 39.9998 19.9999 39.9999Z" fill="#338AF3"/>
<path d="M20.0001 0.000122073C11.077 0.000122073 3.52 5.84411 0.944458 13.913L39.0554 13.9131C36.4802 5.84411 28.9231 -3.41766e-05 20.0001 0.000122073Z" fill="#338AF3"/>
</g>
<defs>
<clipPath id="clip0_2978_1988">
<rect width="40" height="40" fill="white"/>
</clipPath>
</defs>
</svg>
