<svg width="40" height="40" viewBox="0 0 40 40" fill="none" xmlns="http://www.w3.org/2000/svg">
<g clip-path="url(#clip0_2978_1922)">
<path d="M20 40C31.0457 40 40 31.0457 40 20C40 8.9543 31.0457 0 20 0C8.9543 0 0 8.9543 0 20C0 31.0457 8.9543 40 20 40Z" fill="#FCFCFC"/>
<path d="M8.26082 18.5507L6.08691 14.6067L8.26082 10.7246L10.4347 14.6067L8.26082 18.5507Z" fill="#A2001D"/>
<path d="M3.91292 18.5507L1.73901 14.6067L3.91292 10.7246L6.08683 14.6067L3.91292 18.5507Z" fill="#A2001D"/>
<path d="M8.26082 29.2754L6.08691 25.3315L8.26082 21.4493L10.4347 25.3315L8.26082 29.2754Z" fill="#A2001D"/>
<path d="M3.91292 29.2754L1.73901 25.3315L3.91292 21.4493L6.08683 25.3315L3.91292 29.2754Z" fill="#A2001D"/>
<path d="M10.4346 3.88214L9.81911 2.78308C8.7152 3.43714 7.67981 4.19441 6.72583 5.0416L8.26067 7.82605L10.4346 3.88214Z" fill="#A2001D"/>
<path d="M8.26081 32.174L6.70972 34.944C7.66284 35.7922 8.69753 36.5507 9.80097 37.2061L10.4348 36.0561L8.26081 32.174Z" fill="#A2001D"/>
<path d="M12.174 25.2174V38.4098C14.5778 39.433 17.2225 40 20 40C28.5993 40 35.9302 34.5725 38.7561 26.9565L12.174 25.2174Z" fill="#6DA544"/>
<path d="M38.7561 26.9565C39.56 24.7898 40 22.4464 40 20C40 8.95437 31.0457 0 20 0C17.2228 0 14.5778 0.566641 12.174 1.58969V26.9566H38.7561V26.9565Z" fill="#A2001D"/>
</g>
<defs>
<clipPath id="clip0_2978_1922">
<rect width="40" height="40" fill="white"/>
</clipPath>
</defs>
</svg>
