<svg width="40" height="40" viewBox="0 0 40 40" fill="none" xmlns="http://www.w3.org/2000/svg">
<g clip-path="url(#clip0_2978_1937)">
<path d="M40 20C40 13.1358 36.5415 7.08013 31.2724 3.47825L20 2.60864L8.72758 3.47817C3.45859 7.08013 0 13.1359 0 20C0 26.8643 3.45859 32.9198 8.72758 36.5217L20 37.3913L31.2724 36.5218C36.5415 32.9198 40 26.8643 40 20Z" fill="#0052B4"/>
<path d="M31.2724 3.47828C28.0626 1.28406 24.1815 0 20 0C15.8185 0 11.9373 1.28406 8.72754 3.47828H31.2724Z" fill="#A2001D"/>
<path d="M8.72754 36.5217C11.9372 38.7159 15.8185 40 20 40C24.1815 40 28.0626 38.7159 31.2724 36.5217H8.72754Z" fill="#A2001D"/>
<path d="M19.9999 29.5653C25.2827 29.5653 29.5652 25.2828 29.5652 20C29.5652 14.7173 25.2827 10.4348 19.9999 10.4348C14.7172 10.4348 10.4347 14.7173 10.4347 20C10.4347 25.2828 14.7172 29.5653 19.9999 29.5653Z" fill="#F0F0F0"/>
<path d="M20 27.8261C24.3223 27.8261 27.8261 24.3223 27.8261 20C27.8261 15.6778 24.3223 12.174 20 12.174C15.6778 12.174 12.174 15.6778 12.174 20C12.174 24.3223 15.6778 27.8261 20 27.8261Z" fill="#6DA544"/>
<path d="M20 25.2174C22.8815 25.2174 25.2174 22.8815 25.2174 20C25.2174 17.1185 22.8815 14.7826 20 14.7826C17.1185 14.7826 14.7826 17.1185 14.7826 20C14.7826 22.8815 17.1185 25.2174 20 25.2174Z" fill="#F0F0F0"/>
<path d="M20 18.6957L17.174 20.0001V22.174L20 23.9131L22.8261 22.174V20.0001L20 18.6957Z" fill="#0052B4"/>
<path d="M17.174 17.3914H22.8261V20H17.174V17.3914Z" fill="#FFDA44"/>
</g>
<defs>
<clipPath id="clip0_2978_1937">
<rect width="40" height="40" fill="white"/>
</clipPath>
</defs>
</svg>
