<svg width="40" height="40" viewBox="0 0 40 40" fill="none" xmlns="http://www.w3.org/2000/svg">
<g clip-path="url(#clip0_2978_2126)">
<path d="M20 40C31.0457 40 40 31.0457 40 20C40 8.9543 31.0457 0 20 0C8.9543 0 0 8.9543 0 20C0 31.0457 8.9543 40 20 40Z" fill="#F0F0F0"/>
<path d="M40.0001 20C40.0001 12.0707 35.3856 5.2195 28.6957 1.9845V38.0154C35.3856 34.7804 40.0001 27.9292 40.0001 20Z" fill="#D80027"/>
<path d="M0 20C0 27.9292 4.61445 34.7804 11.3044 38.0154V1.9845C4.61445 5.2195 0 12.0707 0 20Z" fill="#D80027"/>
<path d="M23.4783 22.6087L26.9565 20.8696L25.2175 20V18.2609L21.7392 20L23.4783 16.5218H21.7392L20.0001 13.9131L18.2609 16.5218H16.5218L18.2609 20L14.7826 18.2609V20L13.0436 20.8696L16.5218 22.6087L15.6523 24.3479H19.1305V26.9565H20.8696V24.3479H24.3479L23.4783 22.6087Z" fill="#D80027"/>
</g>
<defs>
<clipPath id="clip0_2978_2126">
<rect width="40" height="40" fill="white"/>
</clipPath>
</defs>
</svg>
