<svg width="40" height="40" viewBox="0 0 40 40" fill="none" xmlns="http://www.w3.org/2000/svg">
<g clip-path="url(#clip0_2978_2333)">
<path d="M37.7792 10.8293C36.8551 9.03879 35.6438 7.35817 34.1428 5.85723C32.6418 4.35622 30.9611 3.14489 29.1706 2.22083L15.0809 15.0807L2.22095 29.1704C3.14509 30.961 4.35642 32.6417 5.85735 34.1426C7.35829 35.6436 9.03899 36.8549 10.8295 37.779L24.9192 24.9191L37.7792 10.8293Z" fill="#FFDA44"/>
<path d="M5.85739 34.1428C6.69637 34.9818 7.59161 35.73 8.53059 36.3889L36.3887 8.53059C35.73 7.59161 34.9818 6.69637 34.1428 5.85739C33.3037 5.0184 32.4086 4.2702 31.4696 3.61145L3.61145 31.4696C4.27012 32.4084 5.01832 33.3038 5.85739 34.1428Z" fill="#D80027"/>
<path d="M5.85723 5.8573C-0.452691 12.1672 -1.66402 21.6436 2.22082 29.1706L29.1705 2.22098C21.6435 -1.66379 12.1671 -0.452306 5.85723 5.8573Z" fill="#338AF3"/>
<path d="M34.1425 34.1428C40.4524 27.8329 41.6636 18.3565 37.779 10.8296L10.8293 37.7792C18.3563 41.664 27.8328 40.4527 34.1425 34.1428Z" fill="#338AF3"/>
<path d="M10.6583 6.0863L11.7375 9.40794H15.23L12.4046 11.4608L13.4838 14.7823L10.6583 12.7294L7.83268 14.7823L8.91205 11.4608L6.08643 9.40794H9.57893L10.6583 6.0863Z" fill="#FFDA44"/>
</g>
<defs>
<clipPath id="clip0_2978_2333">
<rect width="40" height="40" fill="white"/>
</clipPath>
</defs>
</svg>
