<svg width="40" height="40" viewBox="0 0 40 40" fill="none" xmlns="http://www.w3.org/2000/svg">
<g clip-path="url(#clip0_2978_2172)">
<path d="M20 40C31.0457 40 40 31.0457 40 20C40 8.9543 31.0457 0 20 0C8.9543 0 0 8.9543 0 20C0 31.0457 8.9543 40 20 40Z" fill="#F0F0F0"/>
<path d="M37.5681 10.4347C34.9837 5.6981 30.5397 2.1224 25.2173 0.687866L24.3478 10.4347H37.5681Z" fill="#0052B4"/>
<path d="M2.43176 10.4347H15.6521L14.7825 0.687866C9.46012 2.1224 5.01622 5.69818 2.43176 10.4347Z" fill="#0052B4"/>
<path d="M24.3478 20V29.5652H37.5681C39.1185 26.7238 40 23.4648 40 20H24.3478Z" fill="#6DA544"/>
<path d="M15.6522 20H0C0 23.4648 0.881484 26.7238 2.4318 29.5652H15.6521V20H15.6522Z" fill="#6DA544"/>
<path d="M2.43176 29.5652C5.01622 34.3018 9.46012 37.8775 14.7825 39.3121L15.6521 30.7879L2.43176 29.5652Z" fill="#FFDA44"/>
<path d="M25.2173 39.3121C30.5397 37.8775 34.9837 34.3018 37.5681 29.5652L24.3478 30.7878L25.2173 39.3121Z" fill="#FFDA44"/>
<path d="M24.3477 30.7878L37.568 29.5652H24.3477V30.7878Z" fill="#FFDA44"/>
<path d="M15.6522 29.5652H2.43176L15.6522 30.7878V29.5652Z" fill="#FFDA44"/>
<path d="M20 0C18.1948 0 16.4462 0.240625 14.7826 0.688984V39.3111C16.4462 39.7594 18.1948 40 20 40C21.8052 40 23.5538 39.7594 25.2174 39.311V0.688984C23.5538 0.240625 21.8052 0 20 0V0Z" fill="#D80027"/>
<path d="M10.7577 4.34778L11.2972 6.00848H13.0435L11.6309 7.03489L12.1705 8.69559L10.7577 7.66926L9.34494 8.69559L9.8847 7.03489L8.47205 6.00848H10.2182L10.7577 4.34778Z" fill="#FFDA44"/>
</g>
<defs>
<clipPath id="clip0_2978_2172">
<rect width="40" height="40" fill="white"/>
</clipPath>
</defs>
</svg>
