<svg width="40" height="40" viewBox="0 0 40 40" fill="none" xmlns="http://www.w3.org/2000/svg">
<g clip-path="url(#clip0_2978_2704)">
<path d="M20.0002 40C22.4466 40 24.7901 39.56 26.9566 38.756L27.8263 20L26.9567 1.24398C24.7901 0.440078 22.4466 0 20.0002 0C17.5538 0 15.2102 0.440078 13.0437 1.24398L12.1741 20L13.0436 38.756C15.2102 39.56 17.5538 40 20.0002 40Z" fill="#F0F0F0"/>
<path d="M0 20C0 28.5993 5.4275 35.9302 13.0435 38.7561V1.24402C5.4275 4.06988 0 11.4007 0 20Z" fill="#FF9811"/>
<path d="M26.9565 1.24402V38.7561C34.5726 35.9302 40.0001 28.5993 40.0001 20C40.0001 11.4007 34.5726 4.06988 26.9565 1.24402Z" fill="#6DA544"/>
</g>
<defs>
<clipPath id="clip0_2978_2704">
<rect width="40" height="40" fill="white"/>
</clipPath>
</defs>
</svg>
