<svg width="40" height="40" viewBox="0 0 40 40" fill="none" xmlns="http://www.w3.org/2000/svg">
<g clip-path="url(#clip0_2978_2121)">
<path d="M28.6956 1.98453C26.0663 0.713125 23.1164 0 20 0C16.8836 0 13.9338 0.713125 11.3044 1.98453L9.56525 20L11.3044 38.0155C13.9338 39.2869 16.8836 40 20 40C23.1164 40 26.0663 39.2869 28.6956 38.0155L30.4348 20L28.6956 1.98453Z" fill="#D80027"/>
<path d="M19.9999 13.0436L21.7265 18.3576H27.3146L22.794 21.6423L24.5206 26.9565L19.9999 23.6721L15.4792 26.9565L17.2062 21.6423L12.6855 18.3576H18.2733L19.9999 13.0436Z" fill="#FFDA44"/>
<path d="M11.3044 1.98523C4.61453 5.22007 0 12.0708 0 20C0 27.9292 4.61453 34.7799 11.3044 38.0148V1.98523Z" fill="#496E2D"/>
<path d="M28.6956 1.98523V38.0148C35.3855 34.7799 40 27.9291 40 20C40 12.0709 35.3855 5.22007 28.6956 1.98523Z" fill="#FFDA44"/>
</g>
<defs>
<clipPath id="clip0_2978_2121">
<rect width="40" height="40" fill="white"/>
</clipPath>
</defs>
</svg>
