<svg width="40" height="40" viewBox="0 0 40 40" fill="none" xmlns="http://www.w3.org/2000/svg">
<g clip-path="url(#clip0_2978_2308)">
<path d="M7.8125e-05 3.47827H0V36.5217H7.8125e-05V20.0001V3.47827Z" fill="#FF9811"/>
<path d="M19.9999 40.0001C31.0456 40.0001 39.9998 31.0458 39.9998 20.0002C39.9998 8.95451 31.0456 0.000244141 19.9999 0.000244141C8.95427 0.000244141 0 8.95451 0 20.0002C0 31.0458 8.95427 40.0001 19.9999 40.0001Z" fill="#F0F0F0"/>
<path d="M20.0001 0.00012207C13.457 0.00012207 7.6481 3.14254 3.99927 8.00012H36.0009C32.3522 3.14247 26.5432 0.00012207 20.0001 0.00012207Z" fill="#0052B4"/>
<path d="M20.0001 39.9999C26.5433 39.9999 32.3522 36.8575 36.001 31.9999H3.99927C7.64802 36.8575 13.457 39.9999 20.0001 39.9999Z" fill="#0052B4"/>
<path d="M0.00012207 20C0.00012207 21.3699 0.138247 22.7076 0.400669 24H39.5997C39.8621 22.7076 40.0001 21.3699 40.0001 20C40.0001 18.6301 39.862 17.2924 39.5997 16H0.400669C0.138247 17.2924 0.00012207 18.6301 0.00012207 20Z" fill="#0052B4"/>
<path d="M5.85791 5.85791C-1.95248 13.6683 -1.95248 26.3317 5.85791 34.1422C9.08549 30.9146 12.1896 27.8105 20 20.0001L5.85791 5.85791Z" fill="#D80027"/>
<path d="M8.09462 14.7827L9.38947 18.7683H13.5806L10.1902 21.2317L11.485 25.2173L8.09462 22.754L4.70408 25.2173L5.99923 21.2317L2.60876 18.7683H6.79955L8.09462 14.7827Z" fill="#F0F0F0"/>
</g>
<defs>
<clipPath id="clip0_2978_2308">
<rect width="40" height="40" fill="white"/>
</clipPath>
</defs>
</svg>
