<svg width="40" height="40" viewBox="0 0 40 40" fill="none" xmlns="http://www.w3.org/2000/svg">
<g clip-path="url(#clip0_2978_2136)">
<path d="M20 40C31.0457 40 40 31.0457 40 20C40 8.9543 31.0457 0 20 0C8.9543 0 0 8.9543 0 20C0 31.0457 8.9543 40 20 40Z" fill="#F0F0F0"/>
<path d="M20 39.9999C26.0618 39.9999 31.4933 37.3028 35.161 33.0435H4.83899C8.50672 37.3028 13.9382 39.9999 20 39.9999Z" fill="#0052B4"/>
<path d="M40 20C40 8.95437 31.0456 0 20 0C8.95437 0 0 8.95437 0 20C0 21.8052 0.240625 23.5538 0.688984 25.2174H39.3111C39.7594 23.5538 40 21.8052 40 20Z" fill="#0052B4"/>
<path d="M1.58972 27.826C1.97527 28.732 2.42597 29.6032 2.93558 30.4347H37.0646C37.5741 29.6032 38.0248 28.7319 38.4105 27.826H1.58972Z" fill="#D80027"/>
<path d="M14.2961 21.3044L14.6198 22.3008H15.6676L14.82 22.9167L15.1437 23.9131L14.2961 23.2973L13.4484 23.9131L13.7723 22.9167L12.9247 22.3008H13.9724L14.2961 21.3044Z" fill="#FFDA44"/>
<path d="M14.2961 34.3479L14.6198 35.3444H15.6676L14.82 35.9602L15.1437 36.9566L14.2961 36.3408L13.4484 36.9566L13.7723 35.9602L12.9247 35.3444H13.9724L14.2961 34.3479Z" fill="#FFDA44"/>
<path d="M8.22456 29.9368L8.54831 30.9331H9.59604L8.74846 31.5489L9.07221 32.5454L8.22456 31.9296L7.3769 32.5454L7.70081 31.5489L6.85315 30.9331H7.90081L8.22456 29.9368Z" fill="#FFDA44"/>
<path d="M10.5436 22.6088L10.8674 23.6052H11.915L11.0675 24.221L11.3913 25.2175L10.5436 24.6017L9.69595 25.2175L10.0199 24.221L9.17212 23.6052H10.2199L10.5436 22.6088Z" fill="#FFDA44"/>
<path d="M6.85315 26.7121L7.90065 26.7122L8.22448 25.7156L8.54831 26.7121L9.59604 26.7121L8.74838 27.3279L9.07221 28.3244L8.22448 27.7085L7.3769 28.3242L7.70065 27.3278L6.85315 26.7121Z" fill="#FFDA44"/>
<path d="M9.6961 35.4619L10.0199 34.4657L9.17212 33.8499H10.2199L10.5437 32.8534L10.8675 33.8498H11.9152L11.0675 34.4656L11.3913 35.4621L10.5436 34.8462L9.6961 35.4619Z" fill="#FFDA44"/>
<path d="M20.3653 29.9368L20.0416 30.9331H18.9939L19.8414 31.5489L19.5176 32.5454L20.3653 31.9296L21.213 32.5454L20.8891 31.5489L21.7368 30.9331H20.6891L20.3653 29.9368Z" fill="#FFDA44"/>
<path d="M18.0462 22.6088L17.7225 23.6052H16.6748L17.5223 24.221L17.1986 25.2175L18.0462 24.6017L18.8939 25.2175L18.57 24.221L19.4177 23.6052H18.37L18.0462 22.6088Z" fill="#FFDA44"/>
<path d="M21.7368 26.7121L20.6892 26.7122L20.3654 25.7156L20.0416 26.7121L18.9939 26.7121L19.8415 27.3279L19.5176 28.3244L20.3654 27.7085L21.213 28.3242L20.8892 27.3278L21.7368 26.7121Z" fill="#FFDA44"/>
<path d="M18.8937 35.4619L18.5701 34.4657L19.4177 33.8499H18.37L18.0462 32.8534L17.7224 33.8498H16.6747L17.5223 34.4656L17.1986 35.4621L18.0462 34.8462L18.8937 35.4619Z" fill="#FFDA44"/>
</g>
<defs>
<clipPath id="clip0_2978_2136">
<rect width="40" height="40" fill="white"/>
</clipPath>
</defs>
</svg>
