<svg width="40" height="40" viewBox="0 0 40 40" fill="none" xmlns="http://www.w3.org/2000/svg">
<g clip-path="url(#clip0_3036_1714)">
<path d="M20 40C31.0457 40 40 31.0457 40 20C40 8.9543 31.0457 0 20 0C8.9543 0 0 8.9543 0 20C0 31.0457 8.9543 40 20 40Z" fill="#FFDA44"/>
<path d="M19.9999 40C26.5624 40 32.3866 36.8393 36.0335 31.9572H3.96643C7.61331 36.8393 13.4374 40 19.9999 40Z" fill="#0052B4"/>
<path d="M40 20C40 8.95437 31.0456 0 20 0C8.95437 0 0 8.95437 0 20C0 22.3651 0.411641 24.6338 1.16531 26.7398H38.8346C39.5884 24.6338 40 22.3651 40 20Z" fill="#0052B4"/>
<path d="M13.6892 12.8267L14.7683 16.1479H18.2608L15.4354 18.2009L16.5146 21.5223L13.6892 19.4695L10.8638 21.5223L11.9431 18.2009L9.11768 16.1479H12.61L13.6892 12.8267Z" fill="#F0F0F0"/>
<path d="M7.69167 9.34839L8.33916 11.3412H10.4347L8.73948 12.5729L9.38698 14.5658L7.69167 13.3341L5.99643 14.5658L6.64401 12.5729L4.94885 11.3412H7.04432L7.69167 9.34839Z" fill="#F0F0F0"/>
</g>
<defs>
<clipPath id="clip0_3036_1714">
<rect width="40" height="40" fill="white"/>
</clipPath>
</defs>
</svg>
