<svg width="40" height="40" viewBox="0 0 40 40" fill="none" xmlns="http://www.w3.org/2000/svg">
<g clip-path="url(#clip0_2978_2329)">
<path d="M20 40C31.0457 40 40 31.0457 40 20C40 8.9543 31.0457 0 20 0C8.9543 0 0 8.9543 0 20C0 31.0457 8.9543 40 20 40Z" fill="#F0F0F0"/>
<path d="M18.2608 20C18.2608 20 5.86951 34.1449 5.85779 34.1421C9.47701 37.7614 14.4771 40 20 40C31.0456 40 40 31.0456 40 20H18.2608Z" fill="#D80027"/>
<path d="M5.85785 5.85779C-1.95262 13.6683 -1.95262 26.3316 5.85785 34.1422C9.08543 30.9146 12.1896 27.8104 20 20L5.85785 5.85779Z" fill="#0052B4"/>
</g>
<defs>
<clipPath id="clip0_2978_2329">
<rect width="40" height="40" fill="white"/>
</clipPath>
</defs>
</svg>
