<svg width="40" height="40" viewBox="0 0 40 40" fill="none" xmlns="http://www.w3.org/2000/svg">
<g clip-path="url(#clip0_2978_2352)">
<path d="M20 40C31.0457 40 40 31.0457 40 20C40 8.9543 31.0457 0 20 0C8.9543 0 0 8.9543 0 20C0 31.0457 8.9543 40 20 40Z" fill="#F0F0F0"/>
<path d="M23.9132 39.6162C31.8197 38.0478 38.0479 31.8195 39.6163 23.9131H23.9132V39.6162Z" fill="#496E2D"/>
<path d="M0.384033 23.9131C1.95239 31.8195 8.18067 38.0478 16.0872 39.6162V23.9131H0.384033Z" fill="#496E2D"/>
<path d="M39.6163 16.0869C38.0479 8.18051 31.8197 1.95223 23.9132 0.383789V16.0869H39.6163Z" fill="#496E2D"/>
<path d="M16.087 0.383789C8.18055 1.95223 1.95227 8.18051 0.383911 16.0869H16.087V0.383789Z" fill="#496E2D"/>
<path d="M18.6958 23.9131H16.0872V39.6162C16.9385 39.785 17.8093 39.8994 18.6958 39.9565V23.9131Z" fill="#FFDA44"/>
<path d="M18.6957 16.0869V0.043457C17.8092 0.100488 16.9383 0.214941 16.087 0.38377V16.0869H18.6957Z" fill="#FFDA44"/>
<path d="M21.3044 0.0435156C20.873 0.015625 20.4384 0 20.0001 0C19.5617 0 19.1271 0.015625 18.6957 0.0435156V16.087H21.3044V0.0435156H21.3044Z" fill="black"/>
<path d="M18.6957 39.9565C19.1271 39.9844 19.5617 40 20.0001 40C20.4384 40 20.873 39.9844 21.3044 39.9565V23.9131H18.6958V39.9565H18.6957Z" fill="black"/>
<path d="M16.087 18.6956V16.0869H0.383892C0.214985 16.9383 0.10061 17.8091 0.0435791 18.6956H16.087Z" fill="#FFDA44"/>
<path d="M23.9132 18.6956H39.9567C39.8997 17.8091 39.7852 16.9383 39.6164 16.0869H23.9133V18.6956H23.9132Z" fill="#FFDA44"/>
<path d="M23.913 21.3044H39.9565C39.9843 20.8731 39.9999 20.4384 39.9999 20.0001C39.9999 19.5617 39.9843 19.127 39.9564 18.6957H23.913V21.3044Z" fill="black"/>
<path d="M0.0435156 18.6957C0.0157031 19.127 0 19.5617 0 20.0001C0 20.4384 0.0157031 20.8731 0.0435156 21.3044H16.087V18.6958H0.0435156V18.6957Z" fill="black"/>
<path d="M19.9999 29.5653C25.2827 29.5653 29.5652 25.2828 29.5652 20C29.5652 14.7173 25.2827 10.4348 19.9999 10.4348C14.7172 10.4348 10.4347 14.7173 10.4347 20C10.4347 25.2828 14.7172 29.5653 19.9999 29.5653Z" fill="#D80027"/>
<path d="M22.1794 21.0672C21.4679 19.6443 20.5431 18.2021 20.5431 18.2021C20.5431 18.2021 20.5661 17.5455 20.5661 17.1542C20.5661 16.5648 20.0883 16.087 19.4989 16.087C18.9405 16.087 18.483 16.516 18.4364 17.0622C17.9973 17.0909 17.6499 17.4551 17.6499 17.9013C17.6499 18.2258 17.8337 18.507 18.1028 18.6475C18.2365 18.3347 18.4984 18.0905 18.8223 17.9791C18.8751 18.0223 18.9319 18.0609 18.9924 18.0937L19.1291 18.1591C19.1291 18.1591 18.6222 19.5881 18.6222 20.3558C18.6222 22.5139 20.0451 23.1795 20.0451 23.1795V23.2017L19.3337 23.9131H20.7565V22.4902L21.468 23.2016C21.4743 23.1883 22.8157 22.3399 22.1794 21.0672Z" fill="#496E2D"/>
<path d="M20.0001 12.1738L20.3238 13.1702H21.3715L20.5239 13.7861L20.8477 14.7825L20.0001 14.1667L19.1524 14.7825L19.4762 13.7861L18.6287 13.1702H19.6763L20.0001 12.1738Z" fill="#496E2D"/>
<path d="M15.4001 13.6685L16.2476 14.2844L17.0953 13.6685L16.7715 14.665L17.6192 15.2807L16.5715 15.2808L16.2477 16.2772L15.9239 15.2808L14.8762 15.2807L15.7238 14.6649L15.4001 13.6685Z" fill="#496E2D"/>
<path d="M12.5571 17.5816H13.6047L13.9285 16.5852L14.2523 17.5816L15.3 17.5815L14.4524 18.1975L14.7763 19.1939L13.9285 18.578L13.081 19.1938L13.4046 18.1974L12.5571 17.5816Z" fill="#496E2D"/>
<path d="M12.5571 22.4183L13.4046 21.8026L13.0809 20.8062L13.9285 21.422L14.7762 20.8062L14.4524 21.8026L15.3001 22.4184L14.2523 22.4185L13.9285 23.4148L13.6047 22.4183H12.5571Z" fill="#496E2D"/>
<path d="M15.4002 26.3314L15.7239 25.3351L14.8762 24.7193H15.924L16.2478 23.7228L16.5715 24.7192H17.6193L16.7716 25.3351L17.0954 26.3314L16.2477 25.7156L15.4002 26.3314Z" fill="#496E2D"/>
<path d="M20.0001 27.8261L19.6763 26.8298H18.6287L19.4762 26.2139L19.1524 25.2175L20.0001 25.8332L20.8476 25.2174L20.5239 26.2139L21.3715 26.8298L20.3238 26.8298L20.0001 27.8261Z" fill="#496E2D"/>
<path d="M24.6002 26.3314L23.7527 25.7156L22.9051 26.3315L23.2288 25.3351L22.3811 24.7193L23.4288 24.7192L23.7525 23.7228L24.0764 24.7193H25.1241L24.2765 25.3351L24.6002 26.3314Z" fill="#496E2D"/>
<path d="M27.4432 22.4184H26.3956L26.0718 23.4149L25.748 22.4185H24.7002L25.5478 21.8026L25.224 20.8063L26.0718 21.4221L26.9193 20.8063L26.5957 21.8027L27.4432 22.4184Z" fill="#496E2D"/>
<path d="M27.4432 17.5817L26.5957 18.1974L26.9193 19.1938L26.0718 18.5781L25.2241 19.194L25.5478 18.1975L24.7002 17.5817L25.748 17.5816L26.0717 16.5853L26.3956 17.5817H27.4432Z" fill="#496E2D"/>
<path d="M24.6002 13.6686L24.2765 14.6649L25.1241 15.2808H24.0764L23.7527 16.2773L23.4288 15.2808L22.3811 15.2809L23.2288 14.6649L22.905 13.6687L23.7527 14.2844L24.6002 13.6686Z" fill="#496E2D"/>
</g>
<defs>
<clipPath id="clip0_2978_2352">
<rect width="40" height="40" fill="white"/>
</clipPath>
</defs>
</svg>
