<svg width="40" height="40" viewBox="0 0 40 40" fill="none" xmlns="http://www.w3.org/2000/svg">
<g clip-path="url(#clip0_2978_2382)">
<path d="M20 40C31.0457 40 40 31.0457 40 20C40 8.9543 31.0457 0 20 0C8.9543 0 0 8.9543 0 20C0 31.0457 8.9543 40 20 40Z" fill="#F0F0F0"/>
<path d="M0.689087 25.2174C2.53581 32.0692 7.93088 37.4644 14.7828 39.3111V25.2174H0.689087Z" fill="#D80027"/>
<path d="M14.7827 0.688965C7.93088 2.53561 2.53573 7.93076 0.689087 14.7826H14.7828V0.688965H14.7827Z" fill="#0052B4"/>
<path d="M39.311 14.7826C37.4644 7.93076 32.0692 2.53561 25.2174 0.688965V14.7826H39.311V14.7826Z" fill="#D80027"/>
<path d="M25.2174 39.3111C32.0692 37.4644 37.4644 32.0693 39.3111 25.2174H25.2174V39.3111Z" fill="#0052B4"/>
<path d="M25.2174 20C25.2174 22.8816 22.8816 25.2174 20 25.2174C17.1185 25.2174 14.7826 22.8816 14.7826 20C14.7826 17.1185 20 14.7826 20 14.7826C20 14.7826 25.2174 17.1185 25.2174 20Z" fill="#496E2D"/>
<path d="M14.7826 20C14.7826 17.1185 17.1185 14.7826 20 14.7826C22.8816 14.7826 25.2174 17.1185 25.2174 20" fill="#0052B4"/>
<path d="M17.0652 17.3914V20.6522C17.0652 22.2731 18.3791 23.587 20 23.587C21.6208 23.587 22.9347 22.2731 22.9347 20.6522V17.3914H17.0652Z" fill="#D80027"/>
</g>
<defs>
<clipPath id="clip0_2978_2382">
<rect width="40" height="40" fill="white"/>
</clipPath>
</defs>
</svg>
