<svg width="40" height="40" viewBox="0 0 40 40" fill="none" xmlns="http://www.w3.org/2000/svg">
<g clip-path="url(#clip0_2978_1770)">
<path d="M20 0C31.0457 0 40 8.95437 40 20C40 31.0456 31.0457 40 20 40C20 39.1305 17.3914 20 17.3914 20L20 0Z" fill="#F0F0F0"/>
<path d="M20 40C8.95437 40 0 31.0456 0 20C0 8.95437 8.95437 0 20 0" fill="#496E2D"/>
<path d="M24.2969 16.1637L22.656 18.425L19.9984 17.5632L21.642 19.8225L20.0012 22.0839L22.6578 21.2189L24.3014 23.4782L24.2997 20.6844L26.9563 19.8194L24.2988 18.9577L24.2969 16.1637Z" fill="#D80027"/>
<path d="M21.6591 25.6522C18.5375 25.6522 16.0069 23.1216 16.0069 20C16.0069 16.8785 18.5375 14.3478 21.6591 14.3478C22.6324 14.3478 23.5482 14.5939 24.3478 15.0272C23.0934 13.8006 21.3781 13.0435 19.4852 13.0435C15.6431 13.0435 12.5287 16.158 12.5287 19.9999C12.5287 23.8419 15.6432 26.9564 19.4852 26.9564C21.3781 26.9564 23.0935 26.1993 24.3478 24.9727C23.5482 25.4061 22.6324 25.6522 21.6591 25.6522Z" fill="#D80027"/>
</g>
<defs>
<clipPath id="clip0_2978_1770">
<rect width="40" height="40" fill="white"/>
</clipPath>
</defs>
</svg>
