<svg width="40" height="40" viewBox="0 0 40 40" fill="none" xmlns="http://www.w3.org/2000/svg">
<g clip-path="url(#clip0_2978_2396)">
<path d="M0 20C0 8.95438 8.95437 0 20 0C31.0456 0 40 8.95438 40 20L20 21.7391L0 20Z" fill="#FFDA44"/>
<path d="M2.67627 30.0001C6.13447 35.9779 12.5973 40.0001 20 40.0001C27.4028 40.0001 33.8656 35.9779 37.3238 30.0001L20 28.6957L2.67627 30.0001Z" fill="#D80027"/>
<path d="M37.3237 30C39.0255 27.0583 40 23.643 40 20H0C0 23.643 0.974531 27.0583 2.67625 30H37.3237Z" fill="#0052B4"/>
<path d="M19.9999 26.9564C23.8419 26.9564 26.9564 23.8419 26.9564 19.9999C26.9564 16.158 23.8419 13.0435 19.9999 13.0435C16.158 13.0435 13.0435 16.158 13.0435 19.9999C13.0435 23.8419 16.158 26.9564 19.9999 26.9564Z" fill="#FFDA44"/>
<path d="M19.9999 24.3478C17.6025 24.3478 15.6521 22.3973 15.6521 19.9999V17.3913C15.6521 14.9938 17.6026 13.0435 19.9999 13.0435C22.3973 13.0435 24.3477 14.9939 24.3477 17.3913V19.9999C24.3477 22.3974 22.3973 24.3478 19.9999 24.3478Z" fill="#338AF3"/>
<path d="M26.9566 9.56519H21.7392C21.7392 8.60472 20.9605 7.82605 20 7.82605C19.0396 7.82605 18.2609 8.60472 18.2609 9.56519H13.0435C13.0435 10.5257 13.8801 11.3043 14.8405 11.3043H14.7826C14.7826 12.2649 15.5612 13.0435 16.5217 13.0435C16.5217 14.004 17.3003 14.7826 18.2609 14.7826H21.7392C22.6997 14.7826 23.4783 14.004 23.4783 13.0435C24.4388 13.0435 25.2174 12.2649 25.2174 11.3043H25.1595C26.12 11.3043 26.9566 10.5257 26.9566 9.56519Z" fill="black"/>
</g>
<defs>
<clipPath id="clip0_2978_2396">
<rect width="40" height="40" fill="white"/>
</clipPath>
</defs>
</svg>
