<svg width="40" height="40" viewBox="0 0 40 40" fill="none" xmlns="http://www.w3.org/2000/svg">
<g clip-path="url(#clip0_2978_2403)">
<path d="M20 40C31.0457 40 40 31.0457 40 20C40 8.9543 31.0457 0 20 0C8.9543 0 0 8.9543 0 20C0 31.0457 8.9543 40 20 40Z" fill="#F0F0F0"/>
<path d="M19.9999 0C11.4006 0 4.06976 5.4275 1.2439 13.0435H38.756C35.9301 5.4275 28.5992 0 19.9999 0Z" fill="#D80027"/>
<path d="M19.9999 40.0001C28.5992 40.0001 35.9301 34.5726 38.7559 26.9565H1.2439C4.06976 34.5726 11.4006 40.0001 19.9999 40.0001Z" fill="black"/>
<path d="M26.9563 17.8261H21.7389C21.7389 16.8656 20.9602 16.0869 19.9998 16.0869C19.0393 16.0869 18.2606 16.8656 18.2606 17.8261H13.0432C13.0432 18.7866 13.8799 19.5652 14.8403 19.5652H14.7824C14.7824 20.5257 15.5609 21.3043 16.5215 21.3043C16.5215 22.2649 17.3001 23.0435 18.2606 23.0435H21.7389C22.6995 23.0435 23.4781 22.2649 23.4781 21.3043C24.4386 21.3043 25.2172 20.5257 25.2172 19.5652H25.1593C26.1198 19.5652 26.9563 18.7866 26.9563 17.8261Z" fill="#FF9811"/>
</g>
<defs>
<clipPath id="clip0_2978_2403">
<rect width="40" height="40" fill="white"/>
</clipPath>
</defs>
</svg>
