<svg width="40" height="40" viewBox="0 0 40 40" fill="none" xmlns="http://www.w3.org/2000/svg">
<g clip-path="url(#clip0_2978_3480)">
<path d="M0 19.9999C0 22.4464 0.440078 24.7898 1.24398 26.9564L20 28.6956L38.756 26.9564C39.5599 24.7898 40 22.4464 40 19.9999C40 17.5535 39.5599 15.2101 38.756 13.0435L20 11.3043L1.24398 13.0435C0.440078 15.2101 0 17.5535 0 19.9999H0Z" fill="#FFDA44"/>
<path d="M38.7559 13.0435C35.9301 5.42758 28.5992 0 19.9999 0C11.4006 0 4.06976 5.42758 1.2439 13.0435H38.7559Z" fill="#D80027"/>
<path d="M1.24365 26.9565C4.06951 34.5725 11.4004 40.0001 19.9997 40.0001C28.599 40.0001 35.9298 34.5725 38.7557 26.9565H1.24365Z" fill="#D80027"/>
</g>
<defs>
<clipPath id="clip0_2978_3480">
<rect width="40" height="40" fill="white"/>
</clipPath>
</defs>
</svg>
