<svg width="40" height="40" viewBox="0 0 40 40" fill="none" xmlns="http://www.w3.org/2000/svg">
<g clip-path="url(#clip0_2978_2436)">
<path d="M0 19.9999C0 22.4465 0.440078 24.7899 1.24406 26.9567L20 28.6956L38.7559 26.9566C39.56 24.7899 40 22.4464 40 19.9999C40 17.5871 39.5726 15.274 38.7895 13.1324L20 11.3043L1.21047 13.1324C0.427422 15.274 0 17.5871 0 19.9999H0Z" fill="#FFDA44"/>
<path d="M20 40.0001C28.5993 40.0001 35.9301 34.5726 38.756 26.9565H1.24396C4.06982 34.5726 11.4007 40.0001 20 40.0001Z" fill="#D80027"/>
<path d="M20 0C11.4007 0 4.06982 5.4275 1.24396 13.0435H38.7561C35.9301 5.4275 28.5993 0 20 0Z" fill="#6DA544"/>
<path d="M20 29.5653C25.2827 29.5653 29.5652 25.2828 29.5652 20C29.5652 14.7173 25.2827 10.4348 20 10.4348C14.7173 10.4348 10.4348 14.7173 10.4348 20C10.4348 25.2828 14.7173 29.5653 20 29.5653Z" fill="#0052B4"/>
<path d="M19.998 12.593L21.7247 17.9072H27.3214L22.7918 21.1917L24.5321 26.5217L19.998 23.2216L15.4708 26.5156L17.2041 21.1917L12.6787 17.9072H18.2713L19.998 12.593Z" fill="#FFDA44"/>
<path d="M26.8846 21.3226L21.4068 19.5426L24.7922 14.8832L23.3853 13.8608L19.9998 18.5205L16.6145 13.8609L15.2075 14.8831L18.5928 19.5429L13.1152 21.3225L13.6526 22.9766L19.1304 21.1969V26.9564H20.8695V21.1968L26.347 22.9766L26.8846 21.3226Z" fill="#FFDA44"/>
</g>
<defs>
<clipPath id="clip0_2978_2436">
<rect width="40" height="40" fill="white"/>
</clipPath>
</defs>
</svg>
