<svg width="40" height="40" viewBox="0 0 40 40" fill="none" xmlns="http://www.w3.org/2000/svg">
<g clip-path="url(#clip0_2978_2473)">
<path d="M40 20C40 31.0456 31.0456 40 20 40C8.95437 40 0 31.0456 0 20C0 20.0048 20 0.0021875 20 0C31.0456 0 40 8.95437 40 20Z" fill="#338AF3"/>
<path d="M19.9999 9.56519V16.3107L13.0435 9.56519H19.9999Z" fill="#0052B4"/>
<path d="M10.4347 19.9999H16.3107L10.4347 12.1738L9.56519 18.2608L10.4347 19.9999Z" fill="#0052B4"/>
<path d="M19.9465 20H20C20 19.9821 20 19.9646 20 19.9465C19.9822 19.9644 19.9644 19.9822 19.9465 20Z" fill="#F0F0F0"/>
<path d="M20 10.4348C20 6.91563 20 4.60977 20 0H19.9966C8.9525 0.001875 0 8.95539 0 20H10.4348V14.1241L16.3107 20H19.9466C19.9645 19.9822 19.9823 19.9644 20.0002 19.9465C20.0002 18.5991 20.0002 17.3968 20.0002 16.3108L14.1241 10.4348H20Z" fill="#F0F0F0"/>
<path d="M10.1183 2.60864C6.99028 4.38981 4.38981 6.99028 2.60864 10.1183V20H7.82607V7.82622V7.82607H20C20 6.18052 20 4.61286 20 2.60864H10.1183Z" fill="#D80027"/>
<path d="M20 17.5404L12.8943 10.4347H10.4348V10.4348L19.9998 19.9998H20C20 19.9998 20 18.304 20 17.5404Z" fill="#D80027"/>
<path d="M22.6086 13.0435V19.9999C22.6086 24.6592 28.6956 26.0869 28.6956 26.0869C28.6956 26.0869 34.7826 24.6592 34.7826 19.9999V13.0435L28.6956 11.3043L22.6086 13.0435Z" fill="#F3F3F3"/>
<path d="M34.7826 13.0435V10.4348H22.6086V13.0435H27.8259V18.261H22.6086V20V20.0001L27.8259 20.0002V25.8203C28.3508 26.0059 28.6956 26.087 28.6956 26.087C28.6956 26.087 29.0403 26.0061 29.5651 25.8203V20.0001H34.7826V20V18.2609H29.5651V13.0434H34.7826V13.0435Z" fill="#D80027"/>
</g>
<defs>
<clipPath id="clip0_2978_2473">
<rect width="40" height="40" fill="white"/>
</clipPath>
</defs>
</svg>
