<svg width="40" height="40" viewBox="0 0 40 40" fill="none" xmlns="http://www.w3.org/2000/svg">
<g clip-path="url(#clip0_3036_1722)">
<path d="M40 20C40 31.0456 31.0456 40 20 40C8.95437 40 0 31.0456 0 20C0 20.0048 20 0.0021875 20 0C31.0456 0 40 8.95437 40 20Z" fill="#0052B4"/>
<path d="M19.9465 20H20C20 19.9821 20 19.9646 20 19.9465C19.9822 19.9644 19.9644 19.9822 19.9465 20Z" fill="#F0F0F0"/>
<path d="M20 10.4348C20 6.91563 20 4.60977 20 0H19.9966C8.9525 0.001875 0 8.95539 0 20H10.4348V14.1241L16.3107 20H19.9466L20.0001 19.9465C20.0001 18.5991 20.0001 17.3968 20.0001 16.3108L14.1241 10.4348H20Z" fill="#F0F0F0"/>
<path d="M10.1183 2.60864C6.99028 4.38981 4.38981 6.99028 2.60864 10.1183V20H7.82607V7.82622V7.82607H20C20 6.18052 20 4.61286 20 2.60864H10.1183Z" fill="#D80027"/>
<path d="M20 17.5405L12.8943 10.4348H10.4348V10.435L19.9998 20H20C20 20 20 18.3041 20 17.5405Z" fill="#D80027"/>
<path d="M32.1739 23.4783V24.3478H25.2174V23.4783H22.6086V26.9565H24.3478V27.8261H33.0435V26.9565H34.7826V23.4783H32.1739Z" fill="#FFDA44"/>
<path d="M22.6086 10.4348V20C22.6086 24.6593 28.6956 26.087 28.6956 26.087C28.6956 26.087 34.7826 24.6593 34.7826 20V10.4348H22.6086Z" fill="#338AF3"/>
<path d="M28.6953 17.5695C27.1737 17.5695 27.1737 18.9608 25.652 18.9608C24.1304 18.9608 24.1304 17.5695 22.6088 17.5695V20.0042C24.1304 20.0042 24.1304 21.3956 25.652 21.3956C27.1737 21.3956 27.1737 20.0042 28.6953 20.0042C30.2171 20.0042 30.2171 21.3956 31.739 21.3956C33.2609 21.3956 33.2608 20.0042 34.7827 20.0042V17.5695C33.2609 17.5695 33.2609 18.9608 31.739 18.9608C30.2171 18.9608 30.2171 17.5695 28.6953 17.5695Z" fill="#F3F3F3"/>
<path d="M28.6953 12.6957C27.1737 12.6957 27.1737 14.087 25.652 14.087C24.1304 14.087 24.1304 12.6957 22.6088 12.6957V15.1304C24.1304 15.1304 24.1304 16.5218 25.652 16.5218C27.1737 16.5218 27.1737 15.1304 28.6953 15.1304C30.2171 15.1304 30.2171 16.5218 31.739 16.5218C33.2609 16.5218 33.2608 15.1304 34.7827 15.1304V12.6957C33.2609 12.6957 33.2609 14.087 31.739 14.087C30.2171 14.087 30.2171 12.6957 28.6953 12.6957Z" fill="#F3F3F3"/>
</g>
<defs>
<clipPath id="clip0_3036_1722">
<rect width="40" height="40" fill="white"/>
</clipPath>
</defs>
</svg>
