<svg width="40" height="40" viewBox="0 0 40 40" fill="none" xmlns="http://www.w3.org/2000/svg">
<g clip-path="url(#clip0_2978_2943)">
<path d="M20 40C31.0457 40 40 31.0457 40 20C40 8.9543 31.0457 0 20 0C8.9543 0 0 8.9543 0 20C0 31.0457 8.9543 40 20 40Z" fill="#338AF3"/>
<path d="M19.9997 8.69556L20.863 11.3527H23.657L21.3967 12.995L22.26 15.6521L19.9997 14.0099L17.7393 15.6521L18.6028 12.995L16.3424 11.3527H19.1364L19.9997 8.69556Z" fill="#F0F0F0"/>
<path d="M8.69531 20L11.3525 19.1366V16.3425L12.9948 18.603L15.6519 17.7396L14.0097 20L15.6519 22.2602L12.9948 21.3967L11.3525 23.6571V20.8632L8.69531 20Z" fill="#F0F0F0"/>
<path d="M19.9998 31.3043L19.1365 28.6472H16.3424L18.6029 27.0049L17.7395 24.3478L19.9998 25.99L22.2601 24.3478L21.3966 27.0049L23.657 28.6472H20.8631L19.9998 31.3043Z" fill="#F0F0F0"/>
<path d="M31.3041 19.9998L28.6469 20.8632V23.6571L27.0046 21.3967L24.3475 22.2601L25.9897 19.9998L24.3475 17.7396L27.0046 18.603L28.6469 16.3425V19.1365L31.3041 19.9998Z" fill="#F0F0F0"/>
</g>
<defs>
<clipPath id="clip0_2978_2943">
<rect width="40" height="40" fill="white"/>
</clipPath>
</defs>
</svg>
