<svg width="40" height="40" viewBox="0 0 40 40" fill="none" xmlns="http://www.w3.org/2000/svg">
<g clip-path="url(#clip0_3036_1736)">
<path d="M20 40C31.0457 40 40 31.0457 40 20C40 8.9543 31.0457 0 20 0C8.9543 0 0 8.9543 0 20C0 31.0457 8.9543 40 20 40Z" fill="#F0F0F0"/>
<path d="M39.1304 20L39.8303 17.3913C39.7141 16.5021 39.5397 15.6312 39.311 14.7826H18.2608V0.0760498C17.3733 0.152456 16.5026 0.287534 15.6521 0.476128L12.1739 2.60863L10.4347 2.43308C9.51948 2.93246 8.64752 3.50121 7.82604 4.13238V14.7825H0.688931C0.460259 15.6311 0.285884 16.5021 0.169634 17.3912L0.869478 20L0.169556 22.6086C0.285806 23.4978 0.460181 24.3687 0.688853 25.2173H7.82596V35.8675C8.64745 36.4987 9.51948 37.0674 10.4346 37.5668L13.0433 37.3912L15.652 39.5237C16.5025 39.7122 17.3732 39.8473 18.2606 39.9238V25.2174H39.3108C39.5395 24.3688 39.7139 23.4978 39.8301 22.6087L39.1304 20Z" fill="#0052B4"/>
<path d="M39.8307 17.3913H15.6523H15.6522V0.475342C13.8039 0.885186 12.0516 1.54948 10.4348 2.43175V17.3912H0.169297C0.058125 18.2452 0 19.1158 0 20C0 20.8841 0.058125 21.7547 0.169297 22.6086H10.4347H10.4348V37.5681C12.0516 38.4503 13.8039 39.1147 15.6522 39.5245V22.6089V22.6087H39.8307C39.9419 21.7547 40 20.8841 40 20C40 19.1158 39.9419 18.2452 39.8307 17.3913Z" fill="#D80027"/>
</g>
<defs>
<clipPath id="clip0_3036_1736">
<rect width="40" height="40" fill="white"/>
</clipPath>
</defs>
</svg>
