<svg width="40" height="40" viewBox="0 0 40 40" fill="none" xmlns="http://www.w3.org/2000/svg">
<g clip-path="url(#clip0_2978_2505)">
<path d="M38.756 26.9564C39.56 24.7899 40 22.4464 40 19.9999C40 17.5535 39.56 15.2102 38.756 13.0435L20 11.3043L1.24398 13.0435C0.440078 15.2102 0 17.5535 0 19.9999C0 22.4464 0.440078 24.7899 1.24398 26.9564L20 28.6956L38.756 26.9564Z" fill="#FFDA44"/>
<path d="M20 40.0001C28.5992 40.0001 35.9301 34.5726 38.7559 26.9565H1.2439C4.06983 34.5726 11.4006 40.0001 20 40.0001Z" fill="#0052B4"/>
<path d="M20 0C11.4006 0 4.06983 5.4275 1.2439 13.0435H38.756C35.9301 5.4275 28.5992 0 20 0Z" fill="#6DA544"/>
</g>
<defs>
<clipPath id="clip0_2978_2505">
<rect width="40" height="40" fill="white"/>
</clipPath>
</defs>
</svg>
