<svg width="40" height="40" viewBox="0 0 40 40" fill="none" xmlns="http://www.w3.org/2000/svg">
<g clip-path="url(#clip0_2978_3727)">
<path d="M20 40C31.0457 40 40 31.0457 40 20C40 8.9543 31.0457 0 20 0C8.9543 0 0 8.9543 0 20C0 31.0457 8.9543 40 20 40Z" fill="#F0F0F0"/>
<path d="M4.13448 7.82349C2.56346 9.86747 1.37885 12.2233 0.689087 14.7826H11.0936L4.13448 7.82349Z" fill="#0052B4"/>
<path d="M39.311 14.7825C38.6212 12.2233 37.4365 9.86747 35.8656 7.82349L28.9066 14.7825H39.311Z" fill="#0052B4"/>
<path d="M0.689087 25.2173C1.37893 27.7765 2.56354 30.1324 4.13448 32.1763L11.0934 25.2173H0.689087Z" fill="#0052B4"/>
<path d="M32.1765 4.13431C30.1325 2.5633 27.7767 1.37869 25.2174 0.688843V11.0933L32.1765 4.13431Z" fill="#0052B4"/>
<path d="M7.82361 35.8654C9.86759 37.4364 12.2235 38.621 14.7827 39.3109V28.9065L7.82361 35.8654Z" fill="#0052B4"/>
<path d="M14.7826 0.688843C12.2234 1.37869 9.86751 2.5633 7.82361 4.13423L14.7826 11.0932V0.688843Z" fill="#0052B4"/>
<path d="M25.2175 39.3109C27.7767 38.621 30.1326 37.4364 32.1765 35.8655L25.2175 28.9065V39.3109Z" fill="#0052B4"/>
<path d="M28.9066 25.2173L35.8656 32.1763C37.4365 30.1324 38.6212 27.7765 39.311 25.2173H28.9066Z" fill="#0052B4"/>
<path d="M39.8307 17.3913H22.6088H22.6087V0.169297C21.7548 0.058125 20.8841 0 20 0C19.1157 0 18.2452 0.058125 17.3913 0.169297V17.3912V17.3913H0.169297C0.058125 18.2452 0 19.1159 0 20C0 20.8843 0.058125 21.7548 0.169297 22.6087H17.3912H17.3913V39.8307C18.2452 39.9419 19.1157 40 20 40C20.8841 40 21.7548 39.942 22.6087 39.8307V22.6088V22.6087H39.8307C39.9419 21.7548 40 20.8843 40 20C40 19.1159 39.9419 18.2452 39.8307 17.3913Z" fill="#D80027"/>
<path d="M25.2174 25.2175L34.1421 34.1422C34.5526 33.7319 34.9441 33.3029 35.3177 32.8582L27.6769 25.2174H25.2174V25.2175Z" fill="#D80027"/>
<path d="M14.7826 25.2175H14.7824L5.85779 34.1421C6.2681 34.5526 6.69708 34.9442 7.14177 35.3178L14.7826 27.6768V25.2175Z" fill="#D80027"/>
<path d="M14.7826 14.7828V14.7827L5.85788 5.85791C5.44741 6.26822 5.05584 6.69721 4.68225 7.14189L12.3231 14.7828H14.7826V14.7828Z" fill="#D80027"/>
<path d="M25.2174 14.7828L34.1422 5.85792C33.7319 5.44745 33.3029 5.05589 32.8582 4.68237L25.2174 12.3232V14.7828Z" fill="#D80027"/>
</g>
<defs>
<clipPath id="clip0_2978_3727">
<rect width="40" height="40" fill="white"/>
</clipPath>
</defs>
</svg>
