<svg width="40" height="40" viewBox="0 0 40 40" fill="none" xmlns="http://www.w3.org/2000/svg">
<g clip-path="url(#clip0_2978_2554)">
<path d="M20 40C31.0457 40 40 31.0457 40 20C40 8.9543 31.0457 0 20 0C8.9543 0 0 8.9543 0 20C0 31.0457 8.9543 40 20 40Z" fill="#FFDA44"/>
<path d="M8.72754 3.47828C11.9373 1.28406 15.8184 0 20 0C24.1815 0 28.0626 1.28406 31.2724 3.47828L20 4.34781L8.72754 3.47828Z" fill="#A2001D"/>
<path d="M20 20L18.7235 18.7236L18.3846 19.3307L20 20Z" fill="#0052B4"/>
<path d="M5.85785 5.85779C-1.95262 13.6683 -1.95262 26.3316 5.85785 34.1422C9.08543 30.9146 12.1896 27.8104 20 20L5.85785 5.85779Z" fill="#496E2D"/>
<path d="M34.1422 5.85791C41.9527 13.6684 41.9527 26.3317 34.1422 34.1423C30.9146 30.9147 27.8105 27.8106 20 20.0001L34.1422 5.85791Z" fill="#496E2D"/>
<path d="M20.0001 26.9564C23.842 26.9564 26.9565 23.8419 26.9565 19.9999C26.9565 16.158 23.842 13.0435 20.0001 13.0435C16.1581 13.0435 13.0436 16.158 13.0436 19.9999C13.0436 23.8419 16.1581 26.9564 20.0001 26.9564Z" fill="#A2001D"/>
<path d="M19.9999 13.0435L21.5592 17.8426H26.6059L22.5233 20.8092L24.0826 25.6086L19.9999 22.6425L15.9171 25.6086L17.4767 20.8092L13.394 17.8426H18.4404L19.9999 13.0435Z" fill="#FFDA44"/>
<path d="M20 0C19.9977 0 19.9956 0.00015625 19.9933 0.00015625H20.0066C20.0045 0.00015625 20.0023 0 20 0Z" fill="#FFDA44"/>
<path d="M20.0067 0H19.9933C14.4736 0.00179688 9.47662 2.23953 5.85889 5.85688H34.1412C30.5233 2.23953 25.5264 0.00179688 20.0067 0Z" fill="#A2001D"/>
<path d="M5.85901 34.1432C9.47823 37.7619 14.4778 40 20 40C25.5223 40 30.5218 37.7619 34.141 34.1432H5.85901Z" fill="#A2001D"/>
<path d="M19.9999 2.17383L20.3237 3.17023H21.3714L20.5238 3.78609L20.8476 4.7825L19.9999 4.16672L19.1523 4.7825L19.4762 3.78609L18.6284 3.17023H19.6761L19.9999 2.17383Z" fill="#FFDA44"/>
<path d="M15.1502 2.17383L15.474 3.17023H16.5217L15.6741 3.78609L15.9979 4.7825L15.1502 4.16672L14.3027 4.7825L14.6264 3.78609L13.7787 3.17023H14.8263L15.1502 2.17383Z" fill="#FFDA44"/>
<path d="M24.8496 2.17383L25.1735 3.17023H26.2211L25.3735 3.78609L25.6974 4.7825L24.8496 4.16672L24.0021 4.7825L24.3259 3.78609L23.4781 3.17023H24.5258L24.8496 2.17383Z" fill="#FFDA44"/>
<path d="M19.9999 35.2174L20.3237 36.2138H21.3714L20.5238 36.8297L20.8476 37.8261L19.9999 37.2102L19.1523 37.8261L19.4762 36.8297L18.6284 36.2138H19.6761L19.9999 35.2174Z" fill="#FFDA44"/>
<path d="M15.1502 35.2174L15.474 36.2138H16.5217L15.6741 36.8297L15.9979 37.8261L15.1502 37.2102L14.3027 37.8261L14.6264 36.8297L13.7787 36.2138H14.8263L15.1502 35.2174Z" fill="#FFDA44"/>
<path d="M24.8496 35.2174L25.1735 36.2138H26.2211L25.3735 36.8297L25.6974 37.8261L24.8496 37.2102L24.0021 37.8261L24.3259 36.8297L23.4781 36.2138H24.5258L24.8496 35.2174Z" fill="#FFDA44"/>
<path d="M6.09386 19.6696C6.60753 20.4813 6.36613 21.5556 5.55449 22.0693C4.74293 22.5831 3.66855 22.3417 3.1548 21.53C2.22472 20.0607 2.76402 17.6609 2.76402 17.6609C2.76402 17.6609 5.16371 18.2002 6.09386 19.6696Z" fill="#FFDA44"/>
<path d="M5.0895 22.2043C5.56973 22.2043 5.95903 21.815 5.95903 21.3347C5.95903 20.8545 5.56973 20.4652 5.0895 20.4652C4.60927 20.4652 4.21997 20.8545 4.21997 21.3347C4.21997 21.815 4.60927 22.2043 5.0895 22.2043Z" fill="#A2001D"/>
</g>
<defs>
<clipPath id="clip0_2978_2554">
<rect width="40" height="40" fill="white"/>
</clipPath>
</defs>
</svg>
