<svg width="40" height="40" viewBox="0 0 40 40" fill="none" xmlns="http://www.w3.org/2000/svg">
<g clip-path="url(#clip0_2978_2518)">
<path d="M20 40C31.0457 40 40 31.0457 40 20C40 8.9543 31.0457 0 20 0C8.9543 0 0 8.9543 0 20C0 31.0457 8.9543 40 20 40Z" fill="#F0F0F0"/>
<path d="M39.8307 17.3913H22.6088H22.6087V0.169297C21.7548 0.058125 20.8841 0 20 0C19.1159 0 18.2452 0.058125 17.3913 0.169297V17.3912V17.3913H0.169297C0.058125 18.2452 0 19.1159 0 20C0 20.8843 0.058125 21.7548 0.169297 22.6087H17.3912H17.3913V39.8307C18.2452 39.9419 19.1159 40 20 40C20.8841 40 21.7548 39.942 22.6087 39.8307V22.6088V22.6087H39.8307C39.9419 21.7548 40 20.8843 40 20C40 19.1159 39.9419 18.2452 39.8307 17.3913Z" fill="#D80027"/>
<path d="M12.1738 9.56529V6.95654H9.56517V9.56529H6.95642V12.174H9.56517V14.7826H12.1738V12.174H14.7825V9.56529H12.1738Z" fill="#D80027"/>
<path d="M30.4348 9.56529V6.95654H27.8261V9.56529H25.2174V12.174H27.8261V14.7826H30.4348V12.174H33.0435V9.56529H30.4348Z" fill="#D80027"/>
<path d="M12.1738 27.8261V25.2174H9.56517V27.8261H6.95642V30.4348H9.56517V33.0435H12.1738V30.4348H14.7825V27.8261H12.1738Z" fill="#D80027"/>
<path d="M30.4348 27.8261V25.2174H27.8261V27.8261H25.2174V30.4348H27.8261V33.0435H30.4348V30.4348H33.0435V27.8261H30.4348Z" fill="#D80027"/>
</g>
<defs>
<clipPath id="clip0_2978_2518">
<rect width="40" height="40" fill="white"/>
</clipPath>
</defs>
</svg>
