<svg width="40" height="40" viewBox="0 0 40 40" fill="none" xmlns="http://www.w3.org/2000/svg">
<g clip-path="url(#clip0_2978_2530)">
<path d="M0 20C0 22.4465 0.440078 24.7899 1.24398 26.9565L20 27.8261L38.756 26.9566C39.56 24.7899 40 22.4465 40 20C40 17.5536 39.56 15.2102 38.756 13.0436L20 12.174L1.24398 13.0435C0.440078 15.2102 0 17.5536 0 20H0Z" fill="#FFDA44"/>
<path d="M20 0C11.4007 0 4.06988 5.4275 1.24402 13.0435H38.7561C35.9302 5.4275 28.5993 0 20 0Z" fill="#D80027"/>
<path d="M38.7561 26.9565H1.24402C4.06988 34.5725 11.4007 40.0001 20 40.0001C28.5993 40.0001 35.9302 34.5725 38.7561 26.9565Z" fill="#496E2D"/>
<path d="M19.9998 13.0435L21.7264 18.3575H27.3145L22.7939 21.6421L24.5205 26.9564L19.9998 23.6721L15.4791 26.9564L17.206 21.6421L12.6854 18.3575H18.2732L19.9998 13.0435Z" fill="black"/>
</g>
<defs>
<clipPath id="clip0_2978_2530">
<rect width="40" height="40" fill="white"/>
</clipPath>
</defs>
</svg>
