<svg width="40" height="40" viewBox="0 0 40 40" fill="none" xmlns="http://www.w3.org/2000/svg">
<g clip-path="url(#clip0_3044_1758)">
<path d="M20 40C31.0457 40 40 31.0457 40 20C40 8.9543 31.0457 0 20 0C8.9543 0 0 8.9543 0 20C0 31.0457 8.9543 40 20 40Z" fill="#F9F9F9"/>
<path d="M20 39.9999C28.5992 39.9999 35.9301 34.5724 38.7559 26.9564H1.2439C4.06983 34.5724 11.4006 39.9999 20 39.9999Z" fill="#D80027"/>
<path d="M27.8261 16.5217V13.913H28.6957V12.1738H26.9565V13.0435H25.2175V12.1738H23.4783V13.913H24.3479V16.5217H22.6087V10.4349H23.4783V8.6958H21.7392V9.56518H20.8696V8.6958H19.1305V9.56518H18.2609V8.6958H16.5218V10.4349H17.3914V16.5217H15.6522V13.913H16.5218V12.1738H14.7826V13.0435H13.0436V12.1738H11.3044V13.913H12.174V16.5217H10.4348V23.4782H29.5653V16.5217H27.8261Z" fill="#D80027"/>
<path d="M20.0001 22.6086C18.5594 22.6086 17.3914 23.7766 17.3914 25.2173C17.3914 26.3529 18.1175 27.3189 19.1305 27.677V31.3043H16.5219V34.7826H20.8697V27.6771C21.8827 27.319 22.6088 26.3531 22.6088 25.2174C22.6087 23.7767 21.4408 22.6086 20.0001 22.6086ZM20.0001 26.0869C19.5198 26.0869 19.1305 25.6975 19.1305 25.2174C19.1305 24.7372 19.5198 24.3479 20.0001 24.3479C20.4803 24.3479 20.8696 24.7372 20.8696 25.2174C20.8696 25.6975 20.4803 26.0869 20.0001 26.0869Z" fill="#FFDA44"/>
</g>
<defs>
<clipPath id="clip0_3044_1758">
<rect width="40" height="40" fill="white"/>
</clipPath>
</defs>
</svg>
