<svg width="40" height="40" viewBox="0 0 40 40" fill="none" xmlns="http://www.w3.org/2000/svg">
<g clip-path="url(#clip0_3044_1764)">
<path d="M0 20C0 8.95437 8.95437 0 20 0C31.0456 0 40 8.95437 40 20C39.1305 20 20 22.6087 20 22.6087L0 20Z" fill="#F0F0F0"/>
<path d="M40 20C40 31.0456 31.0456 40 20 40C8.95437 40 0 31.0456 0 20" fill="#D80027"/>
<path d="M13.913 29.5653C19.1957 29.5653 23.4782 25.2828 23.4782 20C23.4782 14.7173 19.1957 10.4348 13.913 10.4348C8.63028 10.4348 4.34778 14.7173 4.34778 20C4.34778 25.2828 8.63028 29.5653 13.913 29.5653Z" fill="#F0F0F0"/>
<path d="M4.34778 20C4.34778 14.7175 8.63028 10.4348 13.913 10.4348C19.1958 10.4348 23.4782 14.7174 23.4782 20" fill="#D80027"/>
</g>
<defs>
<clipPath id="clip0_3044_1764">
<rect width="40" height="40" fill="white"/>
</clipPath>
</defs>
</svg>
