<svg width="40" height="40" viewBox="0 0 40 40" fill="none" xmlns="http://www.w3.org/2000/svg">
<g clip-path="url(#clip0_2978_2606)">
<path d="M26.9567 1.24406C24.79 0.440078 22.4465 0 20 0C17.5537 0 15.2102 0.440078 13.0437 1.24391L12.1741 20L13.0436 38.7561C15.2102 39.56 17.5537 40 20 40C22.4466 40 24.79 39.56 26.9567 38.7559L27.8263 20L26.9567 1.24406Z" fill="#FFDA44"/>
<path d="M0 20C0 28.5992 5.4275 35.9301 13.0435 38.7559V1.2439C5.4275 4.06983 0 11.4006 0 20Z" fill="#D80027"/>
<path d="M40.0001 20C40.0001 11.4006 34.5726 4.06983 26.9565 1.2439V38.756C34.5726 35.9301 40.0001 28.5992 40.0001 20Z" fill="#6DA544"/>
</g>
<defs>
<clipPath id="clip0_2978_2606">
<rect width="40" height="40" fill="white"/>
</clipPath>
</defs>
</svg>
