<svg width="40" height="40" viewBox="0 0 40 40" fill="none" xmlns="http://www.w3.org/2000/svg">
<g clip-path="url(#clip0_3044_1770)">
<path d="M8.7276 36.5217C11.9373 38.7159 15.8185 40 20 40C24.1815 40 28.0627 38.7159 31.2724 36.5217L20 34.7826L8.7276 36.5217Z" fill="#D80027"/>
<path d="M31.2724 3.47828C28.0627 1.28414 24.1815 0 20 0C15.8185 0 11.9373 1.28414 8.7276 3.47828L20 5.21742L31.2724 3.47828Z" fill="#D80027"/>
<path d="M40 20C40 13.382 36.0378 6.73593 31.2724 3.47827H8.72758C3.45859 7.08015 0 13.1359 0 20C0 26.8643 3.45859 32.9198 8.72758 36.5217H31.2724C36.5415 32.9198 40 26.8643 40 20Z" fill="#0052B4"/>
<path d="M18.8682 32.6248C18.5949 32.3904 12.1739 26.8085 12.1739 20C12.1739 13.1915 18.5948 7.60954 18.8682 7.37525L20 6.40509L21.1318 7.37517C21.4051 7.60954 27.8261 13.1914 27.8261 20C27.8261 26.8086 21.4051 32.3906 21.1318 32.6248L20 33.5949L18.8682 32.6248Z" fill="#D80027"/>
<path d="M26.0869 20C26.0869 13.913 20 8.69562 20 8.69562C20 8.69562 13.913 13.9132 13.913 20C13.913 21.8621 14.4831 23.6425 15.2739 25.2174H24.7261C25.5169 23.6425 26.0869 21.8621 26.0869 20Z" fill="#338AF3"/>
<path d="M26.0869 20C26.0869 21.8621 25.5169 23.6425 24.7261 25.2174L20 26.087L15.2739 25.2174C14.4831 23.6426 13.913 21.8621 13.913 20H26.0869Z" fill="#0052B4"/>
<path d="M20 31.3044C20 31.3044 22.9319 28.7905 24.7261 25.2174H15.2739C17.0681 28.7905 20 31.3044 20 31.3044Z" fill="#FFDA44"/>
<path d="M16.087 16.5217H23.9131L20 20.4348L16.087 16.5217Z" fill="#6DA544"/>
<path d="M18.6956 19.1305H21.3043V26.9566H18.6956V19.1305Z" fill="#A2001D"/>
</g>
<defs>
<clipPath id="clip0_3044_1770">
<rect width="40" height="40" fill="white"/>
</clipPath>
</defs>
</svg>
