<svg width="40" height="40" viewBox="0 0 40 40" fill="none" xmlns="http://www.w3.org/2000/svg">
<g clip-path="url(#clip0_2978_2599)">
<path d="M20.0001 0C18.1949 0 16.4462 0.240625 14.7826 0.688984L13.0436 20L14.7827 39.311C16.4462 39.7594 18.1949 40 20.0001 40C31.0457 40 40.0001 31.0456 40.0001 20C40.0001 8.95437 31.0457 0 20.0001 0Z" fill="#FFDA44"/>
<path d="M13.0436 20L14.7827 39.311C16.4462 39.7594 18.1949 40 20.0001 40C31.0457 40 40.0001 31.0456 40.0001 20H13.0436Z" fill="#6DA544"/>
<path d="M0 20C0 27.5809 4.21797 34.1762 10.4348 37.5682V2.43182C4.21797 5.82385 0 12.4192 0 20Z" fill="#D80027"/>
<path d="M0 20C0 29.2405 6.26727 37.016 14.7826 39.311V0.688965C6.26727 2.98396 0 10.7594 0 20Z" fill="#D80027"/>
<path d="M7.55751 14.7825L8.85244 18.7682H13.0435L9.65306 21.2316L10.9479 25.2174L7.55751 22.754L4.16697 25.2174L5.46212 21.2316L2.07166 18.7682H6.26252L7.55751 14.7825Z" fill="black"/>
</g>
<defs>
<clipPath id="clip0_2978_2599">
<rect width="40" height="40" fill="white"/>
</clipPath>
</defs>
</svg>
