<svg width="40" height="40" viewBox="0 0 40 40" fill="none" xmlns="http://www.w3.org/2000/svg">
<g clip-path="url(#clip0_2978_2610)">
<path d="M20 40C31.0457 40 40 31.0457 40 20C40 8.9543 31.0457 0 20 0C8.9543 0 0 8.9543 0 20C0 31.0457 8.9543 40 20 40Z" fill="#F0F0F0"/>
<path d="M20 0C16.464 0 13.1431 0.918906 10.2609 2.52906V37.4709C13.1431 39.0811 16.464 40 20 40C31.0456 40 40 31.0456 40 20C40 8.95437 31.0456 0 20 0Z" fill="#6DA544"/>
<path d="M10.3197 2.49615C9.06151 3.19342 7.88667 4.02217 6.81331 4.96436C6.92183 4.8692 7.03144 4.77514 7.1419 4.68233L22.4595 20L7.14183 35.3176C7.03128 35.2248 6.92175 35.1308 6.81323 35.0356C7.88659 35.9778 9.06151 36.8065 10.3196 37.5038L40 20L10.3197 2.49615Z" fill="#F0F0F0"/>
<path d="M8.63045 3.54547C8.02053 3.96781 7.43475 4.42227 6.87654 4.90797L20 20L6.87646 35.092C7.43467 35.5777 8.02045 36.0323 8.63037 36.4545L36.5764 20L8.63045 3.54547Z" fill="#FFDA44"/>
<path d="M7.14177 4.68237C6.69716 5.05597 6.2681 5.44761 5.85779 5.85784L18.2608 20L5.85779 34.1422C6.2681 34.5525 6.69708 34.9443 7.14177 35.3177L22.4594 20L7.14177 4.68237Z" fill="black"/>
<path d="M5.85785 5.85779C-1.95262 13.6683 -1.95262 26.3316 5.85785 34.1422C9.08543 30.9146 12.1896 27.8104 20 20L5.85785 5.85779Z" fill="#D80027"/>
</g>
<defs>
<clipPath id="clip0_2978_2610">
<rect width="40" height="40" fill="white"/>
</clipPath>
</defs>
</svg>
