<svg width="40" height="40" viewBox="0 0 40 40" fill="none" xmlns="http://www.w3.org/2000/svg">
<g clip-path="url(#clip0_3044_1781)">
<path d="M20 40C31.0457 40 40 31.0457 40 20C40 8.9543 31.0457 0 20 0C8.9543 0 0 8.9543 0 20C0 31.0457 8.9543 40 20 40Z" fill="#D80027"/>
<path d="M22.0648 15.1303C21.6103 17.0209 20.8027 16.6603 20.4064 18.3091C18.0718 17.7478 16.634 15.4001 17.1953 13.0653C17.7564 10.7307 20.1043 9.29291 22.439 9.85424C21.6462 13.1517 22.4715 13.4395 22.0648 15.1303Z" fill="#F0F0F0"/>
<path d="M16.0068 16.5313C17.6643 17.5477 17.0718 18.2045 18.5173 19.0909C17.262 21.1379 14.585 21.7797 12.538 20.5245C10.491 19.2692 9.8491 16.5921 11.1044 14.5452C13.9955 16.318 14.524 15.6221 16.0068 16.5313Z" fill="#F0F0F0"/>
<path d="M15.4669 22.7259C16.9459 21.4636 17.3873 22.23 18.677 21.1292C20.236 22.9555 20.0191 25.6999 18.1929 27.2589C16.3665 28.8179 13.6221 28.6008 12.0634 26.7746C14.6426 24.5728 14.1441 23.8549 15.4669 22.7259Z" fill="#F0F0F0"/>
<path d="M21.1917 25.1536C20.448 23.3569 21.3133 23.1738 20.6649 21.6072C22.8836 20.6889 25.4267 21.7432 26.345 23.9618C27.2632 26.1805 26.2088 28.7236 23.9902 29.6418C22.6935 26.5083 21.8569 26.7606 21.1917 25.1536Z" fill="#F0F0F0"/>
<path d="M25.2694 20.4591C23.3309 20.6112 23.424 19.7315 21.7337 19.8642C21.546 17.4705 23.3346 15.3775 25.7284 15.1896C28.1222 15.0021 30.2151 16.7906 30.4028 19.1845C27.0218 19.4496 27.0031 20.3232 25.2694 20.4591Z" fill="#F0F0F0"/>
</g>
<defs>
<clipPath id="clip0_3044_1781">
<rect width="40" height="40" fill="white"/>
</clipPath>
</defs>
</svg>
