<svg width="40" height="40" viewBox="0 0 40 40" fill="none" xmlns="http://www.w3.org/2000/svg">
<g clip-path="url(#clip0_2978_2634)">
<path d="M20 40C31.0457 40 40 31.0457 40 20C40 8.9543 31.0457 0 20 0C8.9543 0 0 8.9543 0 20C0 31.0457 8.9543 40 20 40Z" fill="#F0F0F0"/>
<path d="M20.0001 40C27.9292 40 34.7806 35.3855 38.0156 28.6956H1.98462C5.21962 35.3855 12.0709 40 20.0001 40Z" fill="#338AF3"/>
<path d="M20 0C12.0707 0 5.2195 4.61445 1.9845 11.3044H38.0154C34.7804 4.61445 27.9291 0 20 0Z" fill="#338AF3"/>
<path d="M12.3084 13.0435L12.9559 15.0364H15.0513L13.3561 16.268L14.0037 18.2609L12.3084 17.0292L10.6131 18.2609L11.2607 16.268L9.56543 15.0364H11.6608L12.3084 13.0435Z" fill="#338AF3"/>
<path d="M12.3084 21.7391L12.9559 23.7321H15.0513L13.3561 24.9637L14.0037 26.9565L12.3084 25.7248L10.6131 26.9565L11.2607 24.9637L9.56543 23.7321H11.6608L12.3084 21.7391Z" fill="#338AF3"/>
<path d="M27.6919 13.0435L28.3395 15.0364H30.4349L28.7397 16.268L29.3873 18.2609L27.6919 17.0292L25.9966 18.2609L26.6442 16.268L24.949 15.0364H27.0444L27.6919 13.0435Z" fill="#338AF3"/>
<path d="M27.6919 21.7391L28.3395 23.7321H30.4349L28.7397 24.9637L29.3873 26.9565L27.6919 25.7248L25.9966 26.9565L26.6442 24.9637L24.949 23.7321H27.0444L27.6919 21.7391Z" fill="#338AF3"/>
<path d="M20 17.3913L20.6476 19.3843H22.743L21.0478 20.6158L21.6954 22.6086L20 21.377L18.3047 22.6086L18.9523 20.6158L17.2571 19.3843H19.3525L20 17.3913Z" fill="#338AF3"/>
</g>
<defs>
<clipPath id="clip0_2978_2634">
<rect width="40" height="40" fill="white"/>
</clipPath>
</defs>
</svg>
