<svg width="40" height="40" viewBox="0 0 40 40" fill="none" xmlns="http://www.w3.org/2000/svg">
<g clip-path="url(#clip0_2978_2283)">
<path d="M40 20C40 17.5536 39.5599 15.2101 38.756 13.0435L20 12.1739L1.24398 13.0434C0.440078 15.2101 0 17.5536 0 20C0 22.4464 0.440078 24.7899 1.24398 26.9565L20 27.8261L38.756 26.9565C39.5599 24.7899 40 22.4464 40 20Z" fill="#F0F0F0"/>
<path d="M20 40C28.5993 40 35.9302 34.5725 38.7561 26.9565H1.24402C4.06988 34.5725 11.4007 40 20 40Z" fill="#0052B4"/>
<path d="M1.24402 13.0435H38.7561C35.9302 5.4275 28.5993 0 20 0C11.4007 0 4.06988 5.4275 1.24402 13.0435Z" fill="#D80027"/>
<path d="M25.2174 13.9131H21.7391L22.3189 9.56525L24.6377 7.82611L26.9565 9.56525V13.0435L25.2174 13.9131Z" fill="#338AF3"/>
<path d="M14.7825 13.9131H18.2608L17.681 9.56525L15.3622 7.82611L13.0435 9.56525V13.0435L14.7825 13.9131Z" fill="#338AF3"/>
<path d="M22.319 13.9131H17.6812V9.56525L20.0001 7.82611L22.319 9.56525V13.9131Z" fill="#0052B4"/>
<path d="M13.0435 13.0436V22.6087C13.0435 24.8863 14.1436 26.9118 15.8405 28.1815L17.0579 27.8769L18.5942 29.4224C19.0485 29.516 19.5185 29.5653 20 29.5653C20.4789 29.5653 20.9467 29.5166 21.3985 29.424L23.1522 27.9638L24.1594 28.1787C25.8556 26.909 26.9565 24.8857 26.9565 22.6087V13.0436H13.0435Z" fill="#F0F0F0"/>
<path d="M13.0435 13.0435H15.826V15.8261H13.0435V13.0435Z" fill="#D80027"/>
<path d="M18.6088 13.0435H21.3913V15.8261H18.6088V13.0435Z" fill="#D80027"/>
<path d="M24.1738 13.0435H26.9564V15.8261H24.1738V13.0435Z" fill="#D80027"/>
<path d="M15.826 15.826H18.6086V18.6086H15.826V15.826Z" fill="#D80027"/>
<path d="M21.3912 15.826H24.1738V18.6086H21.3912V15.826Z" fill="#D80027"/>
<path d="M13.0435 18.6078H15.826V21.3904H13.0435V18.6078Z" fill="#D80027"/>
<path d="M15.826 21.3904H18.6086V24.173H15.826V21.3904Z" fill="#D80027"/>
<path d="M18.6088 18.6078H21.3913V21.3904H18.6088V18.6078Z" fill="#D80027"/>
<path d="M24.1738 18.6078H26.9564V21.3904H24.1738V18.6078Z" fill="#D80027"/>
<path d="M21.3912 21.3904H24.1738V24.173H21.3912V21.3904Z" fill="#D80027"/>
<path d="M18.6088 24.173H21.3913V26.9556H18.6088V24.173Z" fill="#D80027"/>
<path d="M15.8261 24.1733H13.223C13.4618 25.2077 13.9311 26.1541 14.5747 26.9559H15.8261V24.1733Z" fill="#D80027"/>
<path d="M24.1738 26.9559H25.4251C26.0688 26.1542 26.538 25.2076 26.7768 24.1733H24.1738V26.9559Z" fill="#D80027"/>
<path d="M15.826 26.9559V28.1701C16.6353 28.7791 17.5811 29.2157 18.6086 29.4252V26.9559H15.826Z" fill="#D80027"/>
<path d="M21.3912 26.9559V29.4252C22.4188 29.2159 23.3645 28.7791 24.1738 28.1701V26.9559H21.3912Z" fill="#D80027"/>
</g>
<defs>
<clipPath id="clip0_2978_2283">
<rect width="40" height="40" fill="white"/>
</clipPath>
</defs>
</svg>
