<svg width="40" height="40" viewBox="0 0 40 40" fill="none" xmlns="http://www.w3.org/2000/svg">
<g clip-path="url(#clip0_2978_2617)">
<path d="M40 20C40 31.0456 31.0456 40 20 40C8.95437 40 0 31.0456 0 20C0 8.95437 20 0 20 0C20 0 40 8.95437 40 20Z" fill="#A2001D"/>
<path d="M0 20C0 8.95437 8.95437 0 20 0C31.0456 0 40 8.95437 40 20" fill="#0052B4"/>
<path d="M26.9564 25.2174L19.9999 24.3478L13.0435 25.2174V14.7825H26.9564V25.2174Z" fill="#F0F0F0"/>
<path d="M19.9999 24.3478C21.9209 24.3478 23.4782 22.7905 23.4782 20.8695C23.4782 18.9485 21.9209 17.3912 19.9999 17.3912C18.0789 17.3912 16.5216 18.9485 16.5216 20.8695C16.5216 22.7905 18.0789 24.3478 19.9999 24.3478Z" fill="#0052B4"/>
<path d="M20 22.6087C20.9605 22.6087 21.7391 21.8301 21.7391 20.8696C21.7391 19.9091 20.9605 19.1304 20 19.1304C19.0395 19.1304 18.2609 19.9091 18.2609 20.8696C18.2609 21.8301 19.0395 22.6087 20 22.6087Z" fill="#A2001D"/>
<path d="M17.3912 16.5217H22.6086L19.9999 19.1305L17.3912 16.5217Z" fill="#6DA544"/>
<path d="M19.1305 18.2609H20.8696V23.4783H19.1305V18.2609Z" fill="#FFDA44"/>
<path d="M22.7825 22.9565H17.2172L13.0435 25.2174H26.9564L22.7825 22.9565Z" fill="#6DA544"/>
</g>
<defs>
<clipPath id="clip0_2978_2617">
<rect width="40" height="40" fill="white"/>
</clipPath>
</defs>
</svg>
