<svg width="40" height="40" viewBox="0 0 40 40" fill="none" xmlns="http://www.w3.org/2000/svg">
<g clip-path="url(#clip0_2978_2652)">
<path d="M1.24398 13.0435C0.440078 15.2102 0 17.5536 0 20C0 22.4464 0.440078 24.7899 1.24398 26.9565L20 28.6956L38.756 26.9565C39.5599 24.7899 40 22.4464 40 20C40 17.5536 39.5599 15.2102 38.756 13.0435L20 11.3044L1.24398 13.0435Z" fill="#F0F0F0"/>
<path d="M20 0C11.4007 0 4.0698 5.4275 1.24402 13.0435H38.7561C35.9301 5.4275 28.5993 0 20 0Z" fill="#D80027"/>
<path d="M20 40C28.5993 40 35.9301 34.5725 38.7561 26.9565H1.24402C4.0698 34.5725 11.4007 40 20 40Z" fill="#6DA544"/>
</g>
<defs>
<clipPath id="clip0_2978_2652">
<rect width="40" height="40" fill="white"/>
</clipPath>
</defs>
</svg>
