<svg width="40" height="40" viewBox="0 0 40 40" fill="none" xmlns="http://www.w3.org/2000/svg">
<g clip-path="url(#clip0_2978_2694)">
<path d="M20 40C31.0457 40 40 31.0457 40 20C40 8.9543 31.0457 0 20 0C8.9543 0 0 8.9543 0 20C0 31.0457 8.9543 40 20 40Z" fill="#F0F0F0"/>
<path d="M27.5306 15.6521H22.5101L19.9999 11.3043L17.4899 15.6521H12.4692L14.9797 19.9999L12.4692 24.3478H17.4899L19.9999 28.6956L22.5101 24.3478H27.5306L25.0202 19.9999L27.5306 15.6521ZM23.0839 19.9999L21.5421 22.6709H18.4581L16.916 19.9999L18.458 17.329H21.542L23.0839 19.9999ZM19.9999 14.658L20.5738 15.6521H19.4262L19.9999 14.658ZM15.3738 17.329H16.5217L15.9478 18.3231L15.3738 17.329ZM15.3738 22.6709L15.9478 21.6768L16.5217 22.6709H15.3738ZM19.9999 25.3418L19.4261 24.3478H20.5738L19.9999 25.3418ZM24.626 22.6709H23.4782L24.0522 21.6768L24.626 22.6709ZM23.4782 17.329H24.626L24.0521 18.3231L23.4782 17.329Z" fill="#0052B4"/>
<path d="M32.4497 4.34772H7.55019C5.72496 5.80147 4.15964 7.56725 2.93542 9.56514H37.0645C35.8402 7.56733 34.2749 5.80147 32.4497 4.34772Z" fill="#0052B4"/>
<path d="M7.55019 35.6521H32.4496C34.2749 34.1984 35.8402 32.4326 37.0644 30.4347H2.93542C4.15972 32.4325 5.72503 34.1984 7.55019 35.6521Z" fill="#0052B4"/>
</g>
<defs>
<clipPath id="clip0_2978_2694">
<rect width="40" height="40" fill="white"/>
</clipPath>
</defs>
</svg>
