<svg width="40" height="40" viewBox="0 0 40 40" fill="none" xmlns="http://www.w3.org/2000/svg">
<g clip-path="url(#clip0_2978_2664)">
<path d="M20 40C31.0457 40 40 31.0457 40 20C40 8.9543 31.0457 0 20 0C8.9543 0 0 8.9543 0 20C0 31.0457 8.9543 40 20 40Z" fill="#F0F0F0"/>
<path d="M20 0C12.0707 0 5.2195 4.61445 1.9845 11.3044H38.0154C34.7804 4.61445 27.9291 0 20 0Z" fill="#FF9811"/>
<path d="M20 40C27.9291 40 34.7804 35.3855 38.0154 28.6956H1.9845C5.2195 35.3855 12.0707 40 20 40Z" fill="#6DA544"/>
<path d="M20.0001 26.9565C23.842 26.9565 26.9565 23.842 26.9565 20C26.9565 16.158 23.842 13.0435 20.0001 13.0435C16.1581 13.0435 13.0436 16.158 13.0436 20C13.0436 23.842 16.1581 26.9565 20.0001 26.9565Z" fill="#0052B4"/>
<path d="M20 24.3478C22.4013 24.3478 24.3478 22.4013 24.3478 20C24.3478 17.5988 22.4013 15.6522 20 15.6522C17.5988 15.6522 15.6522 17.5988 15.6522 20C15.6522 22.4013 17.5988 24.3478 20 24.3478Z" fill="#F0F0F0"/>
<path d="M20 14.6349L21.3413 17.6769L24.6463 17.3175L22.6825 20L24.6463 22.6826L21.3413 22.3232L20 25.3652L18.6586 22.3232L15.3536 22.6825L17.3174 20L15.3536 17.3175L18.6586 17.6769L20 14.6349Z" fill="#0052B4"/>
</g>
<defs>
<clipPath id="clip0_2978_2664">
<rect width="40" height="40" fill="white"/>
</clipPath>
</defs>
</svg>
