<svg width="40" height="40" viewBox="0 0 40 40" fill="none" xmlns="http://www.w3.org/2000/svg">
<g clip-path="url(#clip0_2978_2674)">
<path d="M20 40C31.0457 40 40 31.0457 40 20C40 8.9543 31.0457 0 20 0C8.9543 0 0 8.9543 0 20C0 31.0457 8.9543 40 20 40Z" fill="#F0F0F0"/>
<path d="M26.4959 14.7825H23.8792C23.9008 15.0701 23.9131 15.3603 23.9131 15.6521C23.9131 17.5868 23.4295 19.462 22.5864 20.7968C22.3264 21.2086 21.8893 21.79 21.3043 22.1822V14.7825H18.6956V22.1822C18.1107 21.79 17.6736 21.2086 17.4135 20.7968C16.5704 19.462 16.0869 17.5868 16.0869 15.6521C16.0869 15.3603 16.0992 15.07 16.1208 14.7825H13.5041C13.4873 15.0687 13.4781 15.3586 13.4781 15.6521C13.4781 21.0158 16.3428 25.2173 19.9999 25.2173C23.6569 25.2173 26.5216 21.0158 26.5216 15.6521C26.5217 15.3586 26.5126 15.0687 26.4959 14.7825Z" fill="#D80027"/>
<path d="M8.26083 9.56523H10.8695V11.3044H13.4782V9.56523H16.0868V11.3044H18.6955V9.56523H21.3042V11.3044H23.9129V9.56523H26.5215V11.3044H29.1302V9.56523H31.7389V11.3044H38.0152C34.7804 4.61445 27.9291 0 20 0C12.0708 0 5.2195 4.61445 1.9845 11.3044H8.26083V9.56523Z" fill="#6DA544"/>
<path d="M31.7391 28.6956V30.4348H29.1304V28.6956H26.5218V30.4348H23.9131V28.6956H21.3044V30.4348H18.6957V28.6956H16.0871V30.4348H13.4784V28.6956H10.8695V30.4348H8.26083V28.6956H1.9845C5.2195 35.3855 12.0707 40 20 40C27.9292 40 34.7804 35.3855 38.0154 28.6956H31.7391Z" fill="#D80027"/>
</g>
<defs>
<clipPath id="clip0_2978_2674">
<rect width="40" height="40" fill="white"/>
</clipPath>
</defs>
</svg>
