<svg width="40" height="40" viewBox="0 0 40 40" fill="none" xmlns="http://www.w3.org/2000/svg">
<g clip-path="url(#clip0_2978_2656)">
<path d="M20 40C31.0457 40 40 31.0457 40 20C40 8.9543 31.0457 0 20 0C8.9543 0 0 8.9543 0 20C0 31.0457 8.9543 40 20 40Z" fill="#F0F0F0"/>
<path d="M0.688965 25.2174C1.84615 29.5111 4.39654 33.2325 7.82607 35.8676V25.2174H0.688965Z" fill="#0052B4"/>
<path d="M18.2607 39.9239C18.834 39.9733 19.4138 40 19.9999 40C29.2404 40 37.0159 33.7327 39.3109 25.2174H18.2607V39.9239Z" fill="#0052B4"/>
<path d="M39.3109 14.7826C37.0159 6.26727 29.2404 0 19.9999 0C19.4138 0 18.834 0.0267187 18.2607 0.0760937V14.7826H39.3109Z" fill="#0052B4"/>
<path d="M7.82607 4.13245C4.39654 6.7676 1.84615 10.4889 0.688965 14.7826H7.82607V4.13245Z" fill="#0052B4"/>
<path d="M39.8307 17.3913H15.6523H15.6522V0.475403C13.8039 0.885247 12.0516 1.54954 10.4348 2.43181V17.3913H0.169297C0.0579688 18.2452 0 19.1159 0 20C0 20.8842 0.0579688 21.7548 0.169297 22.6087H10.4347H10.4348V37.5681C12.0516 38.4503 13.8039 39.1148 15.6522 39.5245V22.6089V22.6088H39.8307C39.9419 21.7548 40 20.8842 40 20C40 19.1159 39.9419 18.2452 39.8307 17.3913Z" fill="#D80027"/>
</g>
<defs>
<clipPath id="clip0_2978_2656">
<rect width="40" height="40" fill="white"/>
</clipPath>
</defs>
</svg>
