<svg width="278" height="218" viewBox="0 0 278 218" fill="none" xmlns="http://www.w3.org/2000/svg">
  <path opacity="0.4" fill-rule="evenodd" clip-rule="evenodd" d="M237.163 18.579C231.973 13.391 221.932 10.711 214.876 12.611L176.273 22.954C169.184 24.853 161.857 32.178 159.957 39.265L149.61 77.891C147.71 84.98 150.39 95.017 155.58 100.172L183.837 128.42C189.027 133.61 199.067 136.289 206.123 134.39L244.726 124.046C251.816 122.146 259.143 114.822 261.043 107.734L271.388 69.108C273.288 62.02 270.608 51.983 265.418 46.828L237.162 18.579H237.163Z" fill="#F6AE7A"/>
  <path opacity="0.4" fill-rule="evenodd" clip-rule="evenodd" d="M73.191 103.119C69.942 99.871 63.656 98.193 59.239 99.382L35.073 105.857C30.636 107.046 26.048 111.632 24.859 116.069L18.382 140.249C17.193 144.686 18.871 150.97 22.12 154.197L39.809 171.881C43.058 175.129 49.344 176.807 53.761 175.618L77.927 169.143C82.365 167.953 86.952 163.368 88.141 158.931L94.618 134.751C95.807 130.314 94.129 124.03 90.88 120.803L73.191 103.119Z" fill="#C9D2C3"/>
  <path fill-rule="evenodd" clip-rule="evenodd" d="M197 196.479C197 206.704 188.734 215 178.54 215H95.462C85.27 215 77 206.704 77 196.479V20.524C77 10.294 85.269 2 95.463 2H178.539C188.734 2 197 10.293 197 20.524V196.479Z" fill="#C9D2C3"/>
  <path fill-rule="evenodd" clip-rule="evenodd" d="M77 37H197V180H77V37Z" fill="#EDF0EB"/>
  <path d="M115 19H159M197 196.479C197 206.704 188.734 215 178.54 215H95.462C85.27 215 77 206.704 77 196.479V20.524C77 10.294 85.269 2 95.463 2H178.539C188.734 2 197 10.293 197 20.524V196.479ZM196 37H78H196ZM196 180H78H196Z" stroke="#020303" stroke-width="4" stroke-linecap="round" stroke-linejoin="round"/>
  <path fill-rule="evenodd" clip-rule="evenodd" d="M136.998 203C136.21 203.001 135.429 202.846 134.701 202.544C133.973 202.242 133.311 201.8 132.754 201.243C132.197 200.685 131.755 200.023 131.454 199.294C131.153 198.566 130.999 197.785 131 196.997C130.999 196.209 131.154 195.429 131.455 194.701C131.756 193.973 132.198 193.312 132.755 192.755C133.312 192.198 133.974 191.756 134.702 191.455C135.43 191.154 136.21 190.999 136.998 191C137.786 190.999 138.567 191.154 139.295 191.455C140.023 191.756 140.685 192.197 141.242 192.754C141.8 193.311 142.242 193.973 142.544 194.701C142.845 195.429 143 196.209 143 196.997C143.001 197.785 142.846 198.566 142.545 199.295C142.243 200.024 141.801 200.686 141.244 201.243C140.686 201.801 140.024 202.243 139.296 202.544C138.567 202.846 137.786 203.001 136.998 203Z" stroke="#020303" stroke-width="4" stroke-linecap="round" stroke-linejoin="round"/>
  <path fill-rule="evenodd" clip-rule="evenodd" d="M163.949 95.446L150.722 82.222C148.298 79.798 143.606 78.542 140.292 79.43L122.223 84.268C118.909 85.157 115.473 88.591 114.586 91.904L109.748 109.966C108.861 113.279 110.116 117.974 112.54 120.398L125.767 133.622C128.191 136.046 132.887 137.306 136.197 136.417L154.266 131.577C157.58 130.687 161.016 127.253 161.904 123.94L166.742 105.878C167.632 102.565 166.373 97.874 163.949 95.446Z" fill="#FF4612"/>
  <path fill-rule="evenodd" clip-rule="evenodd" d="M126.805 105.8C127.903 105.794 128.879 105.24 128.99 103.805L129.065 92.281C129.064 91.9507 129.194 91.6335 129.427 91.3987C129.659 91.1639 129.975 91.0307 130.305 91.028H131.99C132.68 91.028 133.238 91.595 133.23 92.295L133.22 94.259C133.565 94.0383 133.965 93.9194 134.375 93.916C135.648 93.916 136.66 94.944 136.66 96.229C136.661 96.5296 136.603 96.8275 136.489 97.1055C136.374 97.3834 136.206 97.6361 135.994 97.8488C135.781 98.0616 135.529 98.2302 135.251 98.345C134.973 98.4599 134.676 98.5187 134.375 98.518C133.935 98.518 133.535 98.389 133.191 98.175L133.151 103.548C133.151 105.151 134.157 105.768 135.287 105.801C136.849 105.801 137.643 104.898 137.643 104.898L137.647 104.901C137.997 104.541 138.483 104.312 139.055 104.323H139.063C139.763 104.341 140.453 104.701 140.765 105.343C141.036 105.915 141.623 106.297 142.57 106.369C143.711 106.458 144.458 106.022 144.523 105.155C144.591 104.262 144.073 103.934 141.977 103.248C138.905 102.198 136.877 101.374 137.11 98.318C137.325 95.462 139.66 93.791 143.357 94.076C145.467 94.241 146.961 95.016 147.87 96.161C148.882 97.432 147.898 99.331 146.286 99.296C145.933 99.2892 145.589 99.1843 145.293 98.9933C144.996 98.8022 144.758 98.5324 144.606 98.214C144.358 97.7 143.865 97.364 143.056 97.3C141.945 97.215 141.34 97.632 141.283 98.436C141.201 99.478 142.303 99.706 144.029 100.306C146.904 101.31 148.914 102.395 148.706 105.108C148.481 108.132 146.139 109.892 142.299 109.592C140.879 109.485 139.706 109.142 138.791 108.592C137.464 109.353 136.148 109.592 134.353 109.592C132.569 109.592 131.103 109.103 130.155 108.075C129.422 108.957 128.36 109.592 126.805 109.592C123.097 109.592 120.401 108.029 120.433 104.558L120.508 96.251C120.51 96.0336 120.597 95.8255 120.751 95.6719C120.904 95.5182 121.113 95.4313 121.33 95.43H123.859C124.313 95.43 124.681 95.804 124.677 96.265L124.599 103.548C124.599 105.183 125.643 105.794 126.805 105.801V105.8ZM122.691 88.989C123.961 88.989 124.976 90.014 124.976 91.302C124.977 91.6025 124.918 91.9003 124.804 92.1781C124.69 92.456 124.521 92.7085 124.309 92.9212C124.097 93.1339 123.844 93.3026 123.567 93.4175C123.289 93.5324 122.992 93.5914 122.691 93.591C121.418 93.591 120.431 92.566 120.431 91.302C120.431 90.014 121.468 88.989 122.691 88.989ZM146.29 116.846C146.404 114.94 147.574 113.84 149.344 113.84C151.228 113.84 152.144 115.026 152.226 116.846H146.29ZM149.372 110.545C145.646 110.545 142.854 112.665 142.085 116.25C141.874 112.894 139.761 110.888 136.646 110.888C134.469 110.888 133.049 111.873 132.212 113.201C131.268 111.705 129.677 110.888 127.7 110.888C125.865 110.888 120.065 110.663 120.065 118.207C120.065 118.36 120.069 118.503 120.073 118.646L120.065 118.656V123.697C120.065 124.837 120.977 125.757 122.1 125.757C123.223 125.757 124.135 124.837 124.135 123.697V117.66C124.135 115.907 125.107 114.722 126.723 114.722C128.2 114.722 129.066 115.768 129.066 117.632V123.697C129.066 124.833 129.977 125.757 131.1 125.757C132.223 125.757 133.131 124.833 133.131 123.697V117.15C133.299 115.686 134.193 114.722 135.641 114.722C137.201 114.722 138.037 115.768 138.037 117.632V123.697C138.037 124.833 138.945 125.757 140.072 125.757C141.195 125.757 142.106 124.833 142.106 123.697V120.481C142.907 123.994 145.7 126.101 149.49 126.101C151.267 126.101 152.955 125.551 154.185 124.64C154.228 124.608 154.264 124.576 154.307 124.544C154.353 124.508 154.407 124.479 154.447 124.44C154.453 124.436 154.453 124.426 154.457 124.422C154.525 124.365 154.597 124.315 154.661 124.254C155.851 123.154 155.165 121.127 153.567 120.913C153.217 120.865 152.862 120.915 152.539 121.058C152.216 121.2 151.939 121.43 151.739 121.72C151.739 121.723 151.739 121.723 151.736 121.727C151.275 122.341 150.47 122.687 149.372 122.687C147.488 122.687 146.372 121.505 146.29 119.652H155.097C155.83 119.652 156.424 119.049 156.424 118.307V117.974C156.424 113.323 153.627 110.545 149.372 110.545Z" fill="#FEFEFE"/>
  <path d="M2 216H7M42 216H222H42ZM232 216H242H232ZM252 216H272H252ZM17 216H32H17Z" stroke="#020303" stroke-width="4" stroke-linecap="round" stroke-linejoin="round"/>
</svg>
