<svg width="40" height="40" viewBox="0 0 40 40" fill="none" xmlns="http://www.w3.org/2000/svg">
<g clip-path="url(#clip0_2978_2708)">
<path d="M20 40C31.0457 40 40 31.0457 40 20C40 8.9543 31.0457 0 20 0C8.9543 0 0 8.9543 0 20C0 31.0457 8.9543 40 20 40Z" fill="#FFDA44"/>
<path d="M32.1763 4.13437C28.8039 1.54211 24.5824 0 20.0001 0C15.4177 0 11.1962 1.54219 7.82373 4.13437L20.0001 16.3106L32.1763 4.13437Z" fill="#6DA544"/>
<path d="M4.1343 7.82373C1.54219 11.1962 0 15.4176 0 20C0 24.5823 1.54219 28.8039 4.13437 32.1764L16.3107 20L4.1343 7.82373Z" fill="black"/>
<path d="M7.82373 35.8656C11.1962 38.4578 15.4177 40 20.0001 40C24.5824 40 28.8039 38.4578 32.1764 35.8656L20.0001 23.6893L7.82373 35.8656Z" fill="#6DA544"/>
<path d="M35.8657 32.1762C38.458 28.8038 40.0001 24.5823 40.0001 20C40.0001 15.4176 38.458 11.1962 35.8657 7.82373L23.6895 20L35.8657 32.1762Z" fill="black"/>
</g>
<defs>
<clipPath id="clip0_2978_2708">
<rect width="40" height="40" fill="white"/>
</clipPath>
</defs>
</svg>
