<svg width="40" height="40" viewBox="0 0 40 40" fill="none" xmlns="http://www.w3.org/2000/svg">
<g clip-path="url(#clip0_2978_2722)">
<path d="M20 40C31.0457 40 40 31.0457 40 20C40 8.9543 31.0457 0 20 0C8.9543 0 0 8.9543 0 20C0 31.0457 8.9543 40 20 40Z" fill="#F0F0F0"/>
<path d="M12.174 13.0435H38.7561C35.9303 5.4275 28.5993 0 20.0001 0C14.4772 0 9.47771 2.23898 5.85864 5.85852L12.174 13.0435Z" fill="black"/>
<path d="M12.174 26.9565H38.7561C35.9303 34.5725 28.5993 40 20.0001 40C14.4772 40 9.47771 37.761 5.85864 34.1415L12.174 26.9565Z" fill="#6DA544"/>
<path d="M5.85785 5.85785C-1.95262 13.6683 -1.95262 26.3317 5.85785 34.1422C9.08543 30.9146 12.1896 27.8105 20 20L5.85785 5.85785Z" fill="#D80027"/>
<path d="M7.93788 15.6522L9.03546 17.9474L11.5143 17.3745L10.4041 19.6636L12.3975 21.2444L9.91569 21.8037L9.92257 24.3478L7.93788 22.7561L5.95311 24.3478L5.96007 21.8037L3.47827 21.2444L5.47155 19.6636L4.36155 17.3745L6.84022 17.9474L7.93788 15.6522Z" fill="#F0F0F0"/>
</g>
<defs>
<clipPath id="clip0_2978_2722">
<rect width="40" height="40" fill="white"/>
</clipPath>
</defs>
</svg>
