<svg width="40" height="40" viewBox="0 0 40 40" fill="none" xmlns="http://www.w3.org/2000/svg">
<g clip-path="url(#clip0_2978_2733)">
<path d="M20 40C31.0457 40 40 31.0457 40 20C40 8.9543 31.0457 0 20 0C8.9543 0 0 8.9543 0 20C0 31.0457 8.9543 40 20 40Z" fill="#F0F0F0"/>
<path d="M20 0C12.0708 0 5.21956 4.61445 1.98456 11.3044H38.0154C34.7805 4.61445 27.9292 0 20 0Z" fill="black"/>
<path d="M20 40C12.0708 40 5.21956 35.3855 1.98456 28.6956H38.0154C34.7805 35.3855 27.9292 40 20 40Z" fill="#496E2D"/>
<path d="M39.0555 13.913H0.944453C0.331797 15.8325 0 17.8774 0 20C0 22.1226 0.331797 24.1675 0.944453 26.0869H39.0555C39.6682 24.1675 40 22.1226 40 20C40 17.8774 39.6682 15.8325 39.0555 13.913Z" fill="#A2001D"/>
<path d="M26.2277 9.24225L23.8592 8.14905L20 16.8874L16.1408 8.14905L13.7723 9.24225L18.5635 20L13.7723 30.7577L16.1408 31.8509L20 23.1126L23.8592 31.8509L26.2277 30.7577L21.4365 20L26.2277 9.24225Z" fill="#F0F0F0"/>
<path d="M21.6088 10.2725C20.6919 9.27118 20.0001 8.69556 20.0001 8.69556C20.0001 8.69556 19.3083 9.2711 18.3914 10.2725V29.7272C19.3083 30.7287 20.0001 31.3043 20.0001 31.3043C20.0001 31.3043 20.6919 30.7288 21.6088 29.7273V10.2725Z" fill="#F0F0F0"/>
<path d="M15.6522 14.0033V25.9964C16.6211 27.7132 17.8069 29.1204 18.6957 30.0534V9.94641C17.8069 10.8793 16.621 12.2866 15.6522 14.0033Z" fill="#A2001D"/>
<path d="M24.3478 14.0033C23.3789 12.2865 22.1931 10.8793 21.3043 9.94641V30.0534C22.193 29.1204 23.3789 27.7132 24.3478 25.9964V14.0033Z" fill="#A2001D"/>
<path d="M24.3478 14.0034V25.9965C25.3287 24.2583 26.087 22.2029 26.087 20C26.087 17.7971 25.3287 15.7416 24.3478 14.0034Z" fill="black"/>
<path d="M15.6522 14.0034V25.9965C14.6714 24.2583 13.9131 22.2029 13.9131 20C13.9131 17.7971 14.6714 15.7416 15.6522 14.0034Z" fill="black"/>
</g>
<defs>
<clipPath id="clip0_2978_2733">
<rect width="40" height="40" fill="white"/>
</clipPath>
</defs>
</svg>
