<svg width="40" height="40" viewBox="0 0 40 40" fill="none" xmlns="http://www.w3.org/2000/svg">
<g clip-path="url(#clip0_2978_2772)">
<path d="M20 40C31.0457 40 40 31.0457 40 20C40 8.9543 31.0457 0 20 0C8.9543 0 0 8.9543 0 20C0 31.0457 8.9543 40 20 40Z" fill="#D80027"/>
<path d="M29.781 20.0001L25.7845 21.8799L27.9127 25.7508L23.5727 24.9204L23.023 29.3044L19.9999 26.0802L16.9771 29.3044L16.4272 24.9204L12.0875 25.7506L14.2156 21.8797L10.219 20.0001L14.2156 18.1203L12.0875 14.2494L16.427 15.0798L16.9773 10.6957L19.9999 13.92L23.0231 10.6957L23.5727 15.0798L27.9129 14.2494L25.7846 18.1205L29.781 20.0001Z" fill="#FFDA44"/>
<path d="M20 26.0869C23.3617 26.0869 26.0869 23.3617 26.0869 20C26.0869 16.6382 23.3617 13.913 20 13.913C16.6382 13.913 13.913 16.6382 13.913 20C13.913 23.3617 16.6382 26.0869 20 26.0869Z" fill="#D80027"/>
<path d="M16.9565 19.9999C16.8099 19.9999 16.6651 20.0074 16.5222 20.0216C16.5275 20.8646 16.8325 21.6363 17.3362 22.2357C17.605 21.5125 18.0062 20.8531 18.5122 20.2887C18.0289 20.1028 17.5046 19.9999 16.9565 19.9999Z" fill="#FFDA44"/>
<path d="M18.8301 23.2759C19.1957 23.4065 19.5894 23.4781 20 23.4781C20.4106 23.4781 20.8043 23.4065 21.1699 23.2759C20.9706 22.4937 20.5591 21.7954 20 21.2466C19.4409 21.7953 19.0294 22.4937 18.8301 23.2759Z" fill="#FFDA44"/>
<path d="M23.0122 18.2612C22.4108 17.2217 21.2876 16.5215 20.0001 16.5215C18.7126 16.5215 17.5894 17.2216 16.988 18.2612C18.0844 18.2668 19.1125 18.5649 20.0001 19.0797C20.8877 18.5649 21.9156 18.2668 23.0122 18.2612Z" fill="#FFDA44"/>
<path d="M21.4877 20.2888C21.9937 20.8531 22.395 21.5125 22.6637 22.2358C23.1675 21.6363 23.4725 20.8647 23.4777 20.0217C23.3348 20.0074 23.19 19.9999 23.0434 19.9999C22.4955 19.9999 21.9712 20.1028 21.4877 20.2888Z" fill="#FFDA44"/>
</g>
<defs>
<clipPath id="clip0_2978_2772">
<rect width="40" height="40" fill="white"/>
</clipPath>
</defs>
</svg>
