<svg width="40" height="40" viewBox="0 0 40 40" fill="none" xmlns="http://www.w3.org/2000/svg">
<g clip-path="url(#clip0_2978_2115)">
<path d="M0 20C0 23.4648 0.881484 26.7237 2.4318 29.5652L20 31.3044L37.5682 29.5652C39.1185 26.7237 40 23.4648 40 20C40 16.5351 39.1185 13.2762 37.5682 10.4348L20 8.69562L2.4318 10.4348C0.881484 13.2762 0 16.5351 0 20H0Z" fill="#D80027"/>
<path d="M2.43176 10.4348H37.5681C34.1761 4.21789 27.5808 0 20 0C12.4191 0 5.82387 4.21789 2.43176 10.4348Z" fill="#0052B4"/>
<path d="M19.9998 40C27.5807 40 34.1759 35.7821 37.568 29.5652H2.43164C5.82375 35.7821 12.419 40 19.9998 40Z" fill="#0052B4"/>
<path d="M26.9564 23.9131V21.3044H25.2174V17.8261L23.4782 16.087L21.7391 17.8261V14.3478L19.9999 12.6087L18.2608 14.3478V17.8261L16.5217 16.087L14.7825 17.8261V21.3044H13.0435V23.9131H11.3043V26.5218H28.6956V23.9131H26.9564Z" fill="#F0F0F0"/>
</g>
<defs>
<clipPath id="clip0_2978_2115">
<rect width="40" height="40" fill="white"/>
</clipPath>
</defs>
</svg>
