<svg width="40" height="40" viewBox="0 0 40 40" fill="none" xmlns="http://www.w3.org/2000/svg">
<g clip-path="url(#clip0_2978_2746)">
<path d="M0 20C0 8.95437 8.95437 0 20 0C31.0456 0 40 8.95437 40 20" fill="#D80027"/>
<path d="M26.9564 18.5998L24.1138 19.9367L25.6276 22.6898L22.541 22.0992L22.1499 25.2173L19.9999 22.924L17.8499 25.2173L17.4589 22.0992L14.3723 22.6896L15.886 19.9367L13.0435 18.5998L15.886 17.2626L14.3723 14.5098L17.4588 15.1001L17.85 11.9822L19.9999 14.2754L22.1499 11.9822L22.541 15.1001L25.6277 14.5098L24.1141 17.2628L26.9564 18.5998Z" fill="#FFDA44"/>
<path d="M25.2174 6.52166H21.3044C21.3044 5.80143 20.7203 5.21729 20 5.21729C19.2797 5.21729 18.6956 5.80135 18.6956 6.52166H14.7826C14.7826 7.24197 15.4101 7.82604 16.1304 7.82604H16.0869C16.0869 8.54635 16.6708 9.13041 17.3913 9.13041C17.3913 9.85072 17.9752 10.4348 18.6956 10.4348H21.3043C22.0245 10.4348 22.6087 9.8508 22.6087 9.13041C23.3289 9.13041 23.9131 8.54643 23.9131 7.82604H23.8695C24.5899 7.82604 25.2174 7.24205 25.2174 6.52166Z" fill="#FFDA44"/>
<path d="M40 20C40 31.0456 31.0456 40 20 40C8.95437 40 0 31.0456 0 20H40Z" fill="#F0F0F0"/>
<path d="M20 40.0001C26.2517 40.0001 31.8325 37.1311 35.5002 32.6386C34.8405 32.1888 34.4843 31.4618 33.3331 31.4618C31.6664 31.4618 31.6664 32.9857 29.9999 32.9857C28.3333 32.9857 28.3332 31.4618 26.6667 31.4618C25 31.4618 25 32.9857 23.3333 32.9857C21.6666 32.9857 21.6665 31.4618 19.9997 31.4618C18.3331 31.4618 18.3331 32.9857 16.6665 32.9857C15.0001 32.9857 15.0001 31.4618 13.3335 31.4618C11.6667 31.4618 11.6667 32.9857 9.99987 32.9857C8.33307 32.9857 8.33307 31.4618 6.66627 31.4618C5.51518 31.4618 5.15901 32.1887 4.49963 32.6384C8.16713 37.1311 13.7482 40.0001 20 40.0001Z" fill="#0052B4"/>
<path d="M36.6664 22.5509C34.9997 22.5509 34.9997 21.027 33.333 21.027C31.6664 21.027 31.6664 22.5509 29.9998 22.5509C28.3333 22.5509 28.3332 21.027 26.6666 21.027C25 21.027 25 22.5509 23.3333 22.5509C21.6665 22.5509 21.6665 21.027 19.9997 21.027C18.333 21.027 18.333 22.5509 16.6665 22.5509C15.0001 22.5509 15.0001 21.027 13.3334 21.027C11.6666 21.027 11.6666 22.5509 9.99983 22.5509C8.33303 22.5509 8.33303 21.027 6.66624 21.027C4.99983 21.027 4.99983 22.5509 3.33319 22.5509C1.67553 22.5509 1.66592 21.0438 0.026001 21.0277C0.0721729 21.9425 0.181392 22.8406 0.346548 23.7189C1.67499 23.9142 1.79131 25.2175 3.33327 25.2175C4.99991 25.2175 4.99991 23.6938 6.66631 23.6938C8.33311 23.6938 8.33311 25.2175 9.99991 25.2175C11.6667 25.2175 11.6667 23.6938 13.3335 23.6938C15.0001 23.6938 15.0001 25.2175 16.6665 25.2175C18.3332 25.2175 18.3332 23.6938 19.9998 23.6938C21.6665 23.6938 21.6665 25.2175 23.3333 25.2175C25.0001 25.2175 25.0001 23.6938 26.6667 23.6938C28.3333 23.6938 28.3333 25.2175 29.9999 25.2175C31.6665 25.2175 31.6665 23.6938 33.3331 23.6938C34.9999 23.6938 34.9999 25.2175 36.6665 25.2175C38.2086 25.2175 38.3249 23.9142 39.6534 23.719C39.8187 22.8406 39.9277 21.9426 39.9741 21.0278C38.3339 21.0439 38.3241 22.5509 36.6664 22.5509Z" fill="#0052B4"/>
<path d="M33.3331 26.2444C31.6665 26.2444 31.6665 27.7684 29.9999 27.7684C28.3333 27.7684 28.3333 26.2444 26.6667 26.2444C25.0001 26.2444 25.0001 27.7684 23.3333 27.7684C21.6665 27.7684 21.6665 26.2444 19.9997 26.2444C18.3331 26.2444 18.3331 27.7684 16.6665 27.7684C15.0001 27.7684 15.0001 26.2444 13.3335 26.2444C11.6667 26.2444 11.6667 27.7684 9.9999 27.7684C8.33311 27.7684 8.33311 26.2444 6.66631 26.2444C4.9999 26.2444 4.9999 27.7684 3.33326 27.7684C2.1424 27.7684 1.80225 26.9905 1.09717 26.5462C1.56654 27.9023 2.17717 29.1924 2.91256 30.3984C3.04045 30.4219 3.17967 30.435 3.33326 30.435C4.9999 30.435 4.9999 28.9112 6.66631 28.9112C8.33311 28.9112 8.33311 30.435 9.9999 30.435C11.6667 30.435 11.6667 28.9112 13.3335 28.9112C15.0001 28.9112 15.0001 30.435 16.6665 30.435C18.3332 30.435 18.3332 28.9112 19.9997 28.9112C21.6665 28.9112 21.6665 30.435 23.3333 30.435C25.0001 30.435 25.0001 28.9112 26.6667 28.9112C28.3333 28.9112 28.3333 30.435 29.9999 30.435C31.6665 30.435 31.6665 28.9112 33.3331 28.9112C34.9999 28.9112 34.9999 30.435 36.6665 30.435C36.8202 30.435 36.9594 30.4219 37.0873 30.3983C37.8227 29.1924 38.4333 27.9023 38.9029 26.5462C38.1977 26.9904 37.8575 27.7684 36.6665 27.7684C34.9999 27.7684 34.9999 26.2444 33.3331 26.2444Z" fill="#0052B4"/>
<path d="M39.938 18.4199C38.3341 18.4578 38.312 19.9421 36.6664 19.9421C34.9998 19.9421 34.9998 18.4182 33.333 18.4182C31.6664 18.4182 31.6664 19.9421 29.9998 19.9421C28.3333 19.9421 28.3332 18.4182 26.6666 18.4182C25 18.4182 25 19.9421 23.3333 19.9421C21.6666 19.9421 21.6665 18.4182 19.9997 18.4182C18.333 18.4182 18.333 19.9421 16.6665 19.9421C15.0001 19.9421 15.0001 18.4182 13.3334 18.4182C11.6666 18.4182 11.6666 19.9421 9.99984 19.9421C8.33305 19.9421 8.33305 18.4182 6.66625 18.4182C4.99984 18.4182 4.99984 19.9421 3.3332 19.9421C1.68797 19.9421 1.6657 18.458 0.0619531 18.4199C0.02125 18.9413 0 19.4682 0 20C0 20.3643 0.0103125 20.7263 0.0297656 21.0857C1.66594 21.1041 1.6768 22.6087 3.33328 22.6087C4.99992 22.6087 4.99992 21.0849 6.66633 21.0849C8.33313 21.0849 8.33313 22.6087 9.99992 22.6087C11.6667 22.6087 11.6667 21.0849 13.3335 21.0849C15.0002 21.0849 15.0002 22.6087 16.6666 22.6087C18.3332 22.6087 18.3332 21.0849 19.9998 21.0849C21.6666 21.0849 21.6666 22.6087 23.3334 22.6087C25.0002 22.6087 25.0002 21.0849 26.6667 21.0849C28.3334 21.0849 28.3334 22.6087 29.9999 22.6087C31.6665 22.6087 31.6666 21.0849 33.3331 21.0849C34.9999 21.0849 34.9999 22.6087 36.6665 22.6087C38.3231 22.6087 38.334 21.1041 39.9705 21.0857C39.9897 20.7262 40 20.3643 40 20C40 19.4682 39.9787 18.9413 39.938 18.4199Z" fill="#F0F0F0"/>
</g>
<defs>
<clipPath id="clip0_2978_2746">
<rect width="40" height="40" fill="white"/>
</clipPath>
</defs>
</svg>
