<svg width="40" height="40" viewBox="0 0 40 40" fill="none" xmlns="http://www.w3.org/2000/svg">
<g clip-path="url(#clip0_2978_2243)">
<path d="M20 40C31.0457 40 40 31.0457 40 20C40 8.9543 31.0457 0 20 0C8.9543 0 0 8.9543 0 20C0 31.0457 8.9543 40 20 40Z" fill="#F0F0F0"/>
<path d="M39.9992 19.9421H18.3188C14.0143 24.2467 11.4114 27.5699 8.75354 30.2277L20.0579 31.2464L37.5996 29.5073C39.1305 26.6796 39.9999 23.4414 39.9999 20C39.9999 19.9807 39.9992 19.9615 39.9992 19.9421Z" fill="#D80027"/>
<path d="M8.75368 10.3769H37.5359C34.1345 4.19188 27.5571 0 20 0C14.4918 0 9.50461 2.22742 5.88782 5.83L8.75368 10.3769Z" fill="#FFDA44"/>
<path d="M9.62314 29.5073C7.82517 31.3052 7.13033 32.8116 5.82947 34.1124C9.45095 37.7489 14.4623 40 19.9999 40C27.6043 40 34.2171 35.7559 37.5997 29.5073H9.62314Z" fill="#0052B4"/>
<path d="M5.85785 5.79993C-1.95262 13.6104 -1.95262 26.2738 5.85785 34.0843C9.08543 30.8567 12.1896 27.7526 20 19.9421L5.85785 5.79993Z" fill="#6DA544"/>
<path d="M5.27538 19.9421C5.27538 17.0282 7.32327 14.5939 10.058 13.9967C9.63764 13.9049 9.20155 13.8552 8.75358 13.8552C5.39178 13.8552 2.66663 16.5803 2.66663 19.9421C2.66663 23.3039 5.39178 26.0291 8.75358 26.0291C9.20147 26.0291 9.63756 25.9793 10.058 25.8875C7.32327 25.2902 5.27538 22.856 5.27538 19.9421Z" fill="#F0F0F0"/>
<path d="M9.99075 14.7247L10.3146 15.7211H11.3622L10.5146 16.337L10.8384 17.3334L9.99075 16.7176L9.14309 17.3334L9.46692 16.337L8.61926 15.7211H9.66692L9.99075 14.7247Z" fill="#F0F0F0"/>
<path d="M9.99075 17.3334L10.3146 18.3299H11.3622L10.5146 18.9456L10.8384 19.9421L9.99075 19.3263L9.14309 19.9421L9.46692 18.9456L8.61926 18.3299H9.66692L9.99075 17.3334Z" fill="#F0F0F0"/>
<path d="M9.99075 19.9421L10.3146 20.9385H11.3622L10.5146 21.5544L10.8384 22.5508L9.99075 21.935L9.14309 22.5508L9.46692 21.5544L8.61926 20.9385H9.66692L9.99075 19.9421Z" fill="#F0F0F0"/>
<path d="M9.99075 22.5508L10.3146 23.5472H11.3622L10.5146 24.163L10.8384 25.1595L9.99075 24.5437L9.14309 25.1595L9.46692 24.163L8.61926 23.5472H9.66692L9.99075 22.5508Z" fill="#F0F0F0"/>
</g>
<defs>
<clipPath id="clip0_2978_2243">
<rect width="40" height="40" fill="white"/>
</clipPath>
</defs>
</svg>
