<svg width="40" height="40" viewBox="0 0 40 40" fill="none" xmlns="http://www.w3.org/2000/svg">
<g clip-path="url(#clip0_2978_3106)">
<path d="M20 40C31.0457 40 40 31.0457 40 20C40 8.9543 31.0457 0 20 0C8.9543 0 0 8.9543 0 20C0 31.0457 8.9543 40 20 40Z" fill="#F0F0F0"/>
<path d="M19.9999 0C13.9381 0 8.5066 2.69719 4.83887 6.95648H35.1608C31.4932 2.69719 26.0617 0 19.9999 0Z" fill="#0052B4"/>
<path d="M35.1609 33.0435H4.83887C8.5066 37.3028 13.9381 40 19.9999 40C26.0617 40 31.4932 37.3028 35.1609 33.0435Z" fill="#0052B4"/>
<path d="M37.0645 9.56525H2.93547C1.07383 12.6031 0 16.176 0 20C0 23.824 1.07383 27.397 2.93547 30.4348H37.0645C38.9262 27.397 40 23.824 40 20C40 16.176 38.9262 12.6031 37.0645 9.56525Z" fill="#D80027"/>
<path d="M12.3044 27.6956C16.5546 27.6956 20 24.2502 20 20C20 15.7498 16.5546 12.3044 12.3044 12.3044C8.05421 12.3044 4.60876 15.7498 4.60876 20C4.60876 24.2502 8.05421 27.6956 12.3044 27.6956Z" fill="#F0F0F0"/>
<path d="M12.3043 12.3044L14.0309 17.6185H19.6276L15.0982 20.9031L16.8383 26.2331L12.3043 22.9329L7.77709 26.2269L9.51038 20.9031L4.98499 17.6185H10.5776L12.3043 12.3044Z" fill="#D80027"/>
</g>
<defs>
<clipPath id="clip0_2978_3106">
<rect width="40" height="40" fill="white"/>
</clipPath>
</defs>
</svg>
