<svg width="40" height="40" viewBox="0 0 40 40" fill="none" xmlns="http://www.w3.org/2000/svg">
<g clip-path="url(#clip0_2978_2153)">
<path d="M40 20C40 31.0456 31.0456 40 20 40C8.95437 40 0 31.0456 0 20C0 20.0048 20 0.0021875 20 0C31.0456 0 40 8.95437 40 20Z" fill="#0052B4"/>
<path d="M19.9464 20H19.9999C19.9999 19.982 19.9999 19.9645 19.9999 19.9465C19.9821 19.9644 19.9643 19.9822 19.9464 20Z" fill="#F0F0F0"/>
<path d="M20 10.4348C20 6.91563 20 4.60977 20 0H19.9966C8.95242 0.001875 0 8.95539 0 20H10.4348V14.1241L16.3106 20H19.9466C19.9644 19.9822 19.9822 19.9644 20.0001 19.9465C20.0001 18.5991 20.0001 17.3968 20.0001 16.3108L14.1241 10.4348H20Z" fill="#F0F0F0"/>
<path d="M28.6956 14.7827C30.6166 14.7827 32.1738 13.2254 32.1738 11.3044C32.1738 9.38339 30.6166 7.82611 28.6956 7.82611C26.7746 7.82611 25.2173 9.38339 25.2173 11.3044C25.2173 13.2254 26.7746 14.7827 28.6956 14.7827Z" fill="#6DA544"/>
<path d="M10.1185 2.6087C6.99041 4.38988 4.38986 6.99034 2.60876 10.1184V20H7.82619V7.82628V7.82613H20.0001C20.0001 6.18058 20.0001 4.61292 20.0001 2.6087H10.1185Z" fill="#D80027"/>
<path d="M19.9998 17.5406L12.8939 10.4349H10.4346V10.4351L19.9996 20.0001H19.9998C19.9998 20.0001 19.9998 18.3042 19.9998 17.5406Z" fill="#D80027"/>
<path d="M22.6086 10.4349H34.7826V15.6523H22.6086V10.4349Z" fill="#D80027"/>
<path d="M22.6088 23.4783V26.9566H24.4388C25.536 28.0319 27.038 28.6957 28.6957 28.6957C30.3535 28.6957 31.8554 28.0319 32.9527 26.9566H33.0435H34.7827V23.4783H22.6088Z" fill="#FFDA44"/>
<path d="M22.6088 14.7826V20C22.6088 24.6593 28.6957 26.087 28.6957 26.087C28.6957 26.087 34.7827 24.6593 34.7827 20V14.7826H22.6088Z" fill="#338AF3"/>
<path d="M28.6952 17.5695C27.1736 17.5695 27.1736 18.9608 25.6519 18.9608C24.1303 18.9608 24.1303 17.5695 22.6086 17.5695V20.0042C24.1303 20.0042 24.1303 21.3956 25.6519 21.3956C27.1736 21.3956 27.1736 20.0042 28.6952 20.0042C30.217 20.0042 30.217 21.3956 31.7389 21.3956C33.2608 21.3956 33.2607 20.0042 34.7825 20.0042V17.5695C33.2608 17.5695 33.2608 18.9608 31.7389 18.9608C30.217 18.9608 30.217 17.5695 28.6952 17.5695Z" fill="#F3F3F3"/>
<path d="M28.6953 12.6956C27.1737 12.6956 27.1737 14.0869 25.652 14.0869C24.1304 14.0869 24.1304 12.6956 22.6088 12.6956V15.1304C24.1304 15.1304 24.1304 16.5217 25.652 16.5217C27.1737 16.5217 27.1737 15.1304 28.6953 15.1304C30.2171 15.1304 30.2171 16.5217 31.739 16.5217C33.2609 16.5217 33.2608 15.1304 34.7827 15.1304V12.6956C33.2609 12.6956 33.2609 14.0869 31.739 14.0869C30.2171 14.0869 30.2171 12.6956 28.6953 12.6956Z" fill="#F3F3F3"/>
</g>
<defs>
<clipPath id="clip0_2978_2153">
<rect width="40" height="40" fill="white"/>
</clipPath>
</defs>
</svg>
