<svg width="40" height="40" viewBox="0 0 40 40" fill="none" xmlns="http://www.w3.org/2000/svg">
<g clip-path="url(#clip0_2978_2728)">
<path d="M20 40C31.0457 40 40 31.0457 40 20C40 8.9543 31.0457 0 20 0C8.9543 0 0 8.9543 0 20C0 31.0457 8.9543 40 20 40Z" fill="#338AF3"/>
<path d="M31.3044 20.2174H8.69568C8.69568 21.7783 10.0551 23.0435 11.6158 23.0435H11.5218C11.5218 24.6044 12.787 25.8696 14.3479 25.8696C14.3479 27.4305 15.6131 28.6957 17.174 28.6957H22.8261C24.387 28.6957 25.6522 27.4305 25.6522 25.8696C27.2131 25.8696 28.4783 24.6044 28.4783 23.0435H28.3843C29.9448 23.0435 31.3044 21.7783 31.3044 20.2174Z" fill="#FFDA44"/>
<path d="M27.826 16.5217C27.826 20.8439 24.3221 24.3478 19.9999 24.3478C15.6777 24.3478 12.1738 20.8439 12.1738 16.5217" fill="#338AF3"/>
<path d="M25.9778 16.5218L23.5352 17.6707L24.8359 20.0364L22.1836 19.5289L21.8475 22.2083L20.0001 20.2376L18.1526 22.2083L17.8166 19.5289L15.1642 20.0362L16.4648 17.6707L14.0223 16.5218L16.4649 15.3728L15.1642 13.0073L17.8165 13.5146L18.1527 10.8353L20.0001 12.806L21.8476 10.8353L22.1836 13.5146L24.836 13.0073L23.5353 15.3729L25.9778 16.5218Z" fill="#FFDA44"/>
</g>
<defs>
<clipPath id="clip0_2978_2728">
<rect width="40" height="40" fill="white"/>
</clipPath>
</defs>
</svg>
