<svg width="40" height="40" viewBox="0 0 40 40" fill="none" xmlns="http://www.w3.org/2000/svg">
<g clip-path="url(#clip0_2978_2781)">
<path d="M38.0154 11.3044C34.7804 4.61445 27.9292 0 20 0C12.0707 0 5.2195 4.61445 1.9845 11.3044L20 13.0435L38.0154 11.3044Z" fill="#D80027"/>
<path d="M1.98462 28.6956C5.21962 35.3855 12.0709 40 20.0001 40C27.9293 40 34.7806 35.3855 38.0156 28.6956L20.0001 26.9565L1.98462 28.6956Z" fill="#D80027"/>
<path d="M38.0155 11.3044H1.98453C0.713125 13.9337 0 16.8835 0 20C0 23.1165 0.713125 26.0663 1.98453 28.6956H38.0154C39.287 26.0663 40 23.1165 40 20C40 16.8835 39.287 13.9337 38.0155 11.3044Z" fill="#0052B4"/>
<path d="M19.9999 26.9565C23.8419 26.9565 26.9564 23.842 26.9564 20C26.9564 16.158 23.8419 13.0435 19.9999 13.0435C16.158 13.0435 13.0435 16.158 13.0435 20C13.0435 23.842 16.158 26.9565 19.9999 26.9565Z" fill="#F0F0F0"/>
</g>
<defs>
<clipPath id="clip0_2978_2781">
<rect width="40" height="40" fill="white"/>
</clipPath>
</defs>
</svg>
