<svg width="40" height="40" viewBox="0 0 40 40" fill="none" xmlns="http://www.w3.org/2000/svg">
<g clip-path="url(#clip0_2978_2827)">
<path d="M40 20C40 31.0457 31.0456 40 20 40C8.95437 40 0 31.0457 0 20C0.869531 20 20 17.3914 20 17.3914L40 20Z" fill="#D80027"/>
<path d="M0 20C0 8.95437 8.95437 0 20 0C31.0456 0 40 8.95437 40 20" fill="#0052B4"/>
<path d="M14.7825 13.9131C14.7825 12.4724 13.6146 11.3044 12.1739 11.3044C11.5055 11.3044 10.8964 11.556 10.4347 11.9692V10.4348H11.3043V8.69564H10.4347V7.82611H8.69559V8.69564H7.82606V10.4348H8.69559V11.9692C8.23395 11.556 7.62481 11.3044 6.95645 11.3044C5.51575 11.3044 4.34778 12.4724 4.34778 13.9131C4.34778 14.6855 4.68379 15.3792 5.21731 15.857V17.3913H13.9129V15.857C14.4466 15.3792 14.7825 14.6855 14.7825 13.9131Z" fill="#FFDA44"/>
</g>
<defs>
<clipPath id="clip0_2978_2827">
<rect width="40" height="40" fill="white"/>
</clipPath>
</defs>
</svg>
