<svg width="40" height="40" viewBox="0 0 40 40" fill="none" xmlns="http://www.w3.org/2000/svg">
<g clip-path="url(#clip0_2978_3485)">
<path d="M20 39.9999C31.0456 39.9999 39.9999 31.0456 39.9999 20C39.9999 8.95429 31.0456 0 20 0C8.95429 0 0 8.95429 0 20C0 31.0456 8.95429 39.9999 20 39.9999Z" fill="#FFDA44"/>
<path d="M15.6522 3.47827H8.72754C8.42067 3.68804 8.12036 3.9064 7.82606 4.13241L6.08691 19.9999L7.82606 35.8675C8.12036 36.0936 8.42067 36.3119 8.72754 36.5216H15.6522V3.47827Z" fill="#FF9811"/>
<path d="M0 20.0001C0 26.4646 3.06782 32.2116 7.82611 35.8676V4.13251C3.06782 7.78861 0 13.5357 0 20.0001Z" fill="#6DA544"/>
<path d="M32.1741 12.1925V12.6929L32.1927 12.6957L32.1741 12.1925Z" fill="#FFDA44"/>
<path d="M38.4059 25.2174H34.6377L33.0436 26.9565V30.4348H29.5653V28.6957H31.3045V25.2174H23.4783V27.3913H21.7392V23.2482C21.2056 22.7706 20.8697 22.0767 20.8697 21.3043V10C20.8697 8.5593 22.0376 7.39133 23.4783 7.39133V23.4783H26.9566L28.1501 22.4837C27.9416 21.9872 27.8262 21.442 27.8262 20.8696V18.261H25.2175V13.0436H30.4348C30.4348 12.1741 31.7392 11.3045 31.7392 11.3045C31.7392 11.3045 33.0436 12.174 33.0436 13.0436V14.348V18.261C34.011 18.2725 35.5481 18.2474 37.2086 18.261C36.7724 17.4985 36.5218 16.5938 36.5218 15.6524C36.5218 14.1179 37.1843 12.7384 38.2388 11.7837C36.7188 8.41531 34.2934 5.54328 31.2725 3.47827H18.261V36.5218H31.2726C34.9459 34.0108 37.7388 30.3068 39.0938 25.9678L38.4059 25.2174Z" fill="#A2001D"/>
</g>
<defs>
<clipPath id="clip0_2978_3485">
<rect width="40" height="40" fill="white"/>
</clipPath>
</defs>
</svg>
