<svg width="40" height="40" viewBox="0 0 40 40" fill="none" xmlns="http://www.w3.org/2000/svg">
<g clip-path="url(#clip0_2978_2803)">
<path d="M20 40C31.0457 40 40 31.0457 40 20C40 8.9543 31.0457 0 20 0C8.9543 0 0 8.9543 0 20C0 31.0457 8.9543 40 20 40Z" fill="#F0F0F0"/>
<path d="M4.57153 7.2728H35.4284C34.2887 5.89272 32.9668 4.6689 31.5005 3.63647H8.49942C7.0331 4.66874 5.7113 5.89265 4.57153 7.2728Z" fill="#F0F0F0"/>
<path d="M0 20C0 20.6131 0.0291406 21.2192 0.083125 21.8182H39.9169C39.9709 21.2192 40 20.6131 40 20C40 19.387 39.9709 18.7809 39.9169 18.1819H0.083125C0.0291406 18.7809 0 19.387 0 20H0Z" fill="#F0F0F0"/>
<path d="M2.18099 29.0908H37.8191C38.408 27.9388 38.8883 26.7223 39.2469 25.4546H0.753174C1.11169 26.7223 1.59216 27.9389 2.18099 29.0908Z" fill="#F0F0F0"/>
<path d="M8.49942 36.3637H31.5004C32.9668 35.3313 34.2886 34.1074 35.4283 32.7274H4.57153C5.7113 34.1073 7.0331 35.3313 8.49942 36.3637Z" fill="#F0F0F0"/>
<path d="M0.75293 14.5454H39.2468C38.8882 13.2776 38.4079 12.0611 37.8189 10.9091H2.18082C1.59199 12.0611 1.11152 13.2776 0.75293 14.5454Z" fill="#F0F0F0"/>
<path d="M9.56543 3.63633H31.5007C28.2476 1.34586 24.2812 0 20.0002 0C17.3915 0 12.8186 1.34586 9.56543 3.63633Z" fill="#D80027"/>
<path d="M19.1306 10.9092H37.8192C37.1541 9.60814 36.3509 8.38947 35.4286 7.27283H19.1306V10.9092Z" fill="#D80027"/>
<path d="M19.1306 18.1819H39.917C39.8045 16.9333 39.5784 15.7173 39.2471 14.5455H19.1306V18.1819Z" fill="#D80027"/>
<path d="M0.753252 25.4546H39.247C39.5784 24.2829 39.8045 23.0669 39.917 21.8183H0.083252C0.195752 23.0669 0.421846 24.2828 0.753252 25.4546Z" fill="#D80027"/>
<path d="M4.57153 32.7272H35.4284C36.3507 31.6104 37.154 30.3918 37.819 29.0909H2.18091C2.84599 30.3919 3.64927 31.6106 4.57153 32.7272Z" fill="#D80027"/>
<path d="M20.0001 40C24.2811 40 28.2475 38.6541 31.5006 36.3636H8.49951C11.7526 38.6541 15.719 40 20.0001 40Z" fill="#D80027"/>
<path d="M0.753174 14.5455C0.421768 15.7173 0.195752 16.9332 0.083252 18.1818H20.0001V0C10.8454 0 3.12755 6.15094 0.753174 14.5455Z" fill="#0052B4"/>
<path d="M11.9053 5.21741L13.2002 9.20295H17.3913L14.0008 11.6664L15.2957 15.6522L11.9053 13.1889L8.51475 15.6522L9.8099 11.6664L6.41943 9.20295H10.6103L11.9053 5.21741Z" fill="#F0F0F0"/>
</g>
<defs>
<clipPath id="clip0_2978_2803">
<rect width="40" height="40" fill="white"/>
</clipPath>
</defs>
</svg>
