<svg width="40" height="40" viewBox="0 0 40 40" fill="none" xmlns="http://www.w3.org/2000/svg">
<g clip-path="url(#clip0_2978_2798)">
<path d="M0 20C0 23.1165 0.713047 26.0663 1.98453 28.6957L20 29.5653L38.0155 28.6958C39.287 26.0663 40 23.1165 40 20C40 16.8836 39.287 13.9338 38.0155 11.3044L20 10.4348L1.98453 11.3043C0.713047 13.9338 0 16.8836 0 20H0Z" fill="#F0F0F0"/>
<path d="M20.0001 40C27.9292 40 34.7806 35.3855 38.0156 28.6956H1.98462C5.21962 35.3855 12.0709 40 20.0001 40Z" fill="#6DA544"/>
<path d="M20.0001 0C12.0709 0 5.21962 4.61445 1.98462 11.3044H38.0155C34.7806 4.61445 27.9292 0 20.0001 0Z" fill="#0052B4"/>
<path d="M21.3044 19.5652V14.7827H18.6957V19.5652L15.5449 22.7161C16.4613 24.2161 18.1137 25.2174 20.0001 25.2174C21.8865 25.2174 23.5388 24.2161 24.4552 22.7161L21.3044 19.5652Z" fill="black"/>
</g>
<defs>
<clipPath id="clip0_2978_2798">
<rect width="40" height="40" fill="white"/>
</clipPath>
</defs>
</svg>
