<svg width="40" height="40" viewBox="0 0 40 40" fill="none" xmlns="http://www.w3.org/2000/svg">
<g clip-path="url(#clip0_2978_2831)">
<path d="M38.756 26.9565C39.56 24.7899 40 22.4464 40 20C40 17.5536 39.56 15.2101 38.756 13.0435L20 11.3044L1.24398 13.0435C0.44 15.2101 0 17.5536 0 20C0 22.4464 0.44 24.7899 1.24398 26.9565L20 28.6956L38.756 26.9565Z" fill="#6DA544"/>
<path d="M38.7559 13.0435C35.9301 5.4275 28.5992 0 19.9999 0C11.4006 0 4.06976 5.4275 1.2439 13.0435H38.7559Z" fill="#FFDA44"/>
<path d="M19.9999 40C28.5992 40 35.9301 34.5725 38.7559 26.9565H1.2439C4.06976 34.5725 11.4006 40 19.9999 40Z" fill="#D80027"/>
</g>
<defs>
<clipPath id="clip0_2978_2831">
<rect width="40" height="40" fill="white"/>
</clipPath>
</defs>
</svg>
