<svg width="40" height="40" viewBox="0 0 40 40" fill="none" xmlns="http://www.w3.org/2000/svg">
<g clip-path="url(#clip0_2978_2820)">
<path d="M1.98453 11.3044C0.713125 13.9338 0 16.8835 0 20C0 23.1165 0.713125 26.0663 1.98453 28.6956L20 30.4348L38.0155 28.6956C39.2869 26.0663 40 23.1165 40 20C40 16.8835 39.2869 13.9338 38.0155 11.3044L20 9.56525L1.98453 11.3044Z" fill="black"/>
<path d="M1.98529 28.6956C5.22013 35.3855 12.0708 40 20.0001 40C27.9292 40 34.78 35.3855 38.0148 28.6956H1.98529Z" fill="#496E2D"/>
<path d="M1.98529 11.3044H38.0148C34.78 4.61445 27.9292 0 20.0001 0C12.0708 0 5.22013 4.61445 1.98529 11.3044Z" fill="#D80027"/>
<path d="M24.6552 16.3427L26.2961 18.604L28.9537 17.7423L27.3101 20.0016L28.9509 22.2629L26.2943 21.3979L24.6507 23.6573L24.6524 20.8634L21.9957 19.9984L24.6534 19.1367L24.6552 16.3427Z" fill="#F0F0F0"/>
<path d="M20.1766 25.6522C17.055 25.6522 14.5244 23.1216 14.5244 20C14.5244 16.8785 17.055 14.3478 20.1766 14.3478C21.1499 14.3478 22.0657 14.5939 22.8653 15.0272C21.6109 13.8006 19.8956 13.0435 18.0027 13.0435C14.1607 13.0435 11.0462 16.158 11.0462 19.9999C11.0462 23.8419 14.1607 26.9564 18.0027 26.9564C19.8957 26.9564 21.611 26.1993 22.8653 24.9727C22.0657 25.4061 21.15 25.6522 20.1766 25.6522Z" fill="#F0F0F0"/>
</g>
<defs>
<clipPath id="clip0_2978_2820">
<rect width="40" height="40" fill="white"/>
</clipPath>
</defs>
</svg>
