<svg width="40" height="40" viewBox="0 0 40 40" fill="none" xmlns="http://www.w3.org/2000/svg">
<g clip-path="url(#clip0_2978_2993)">
<path d="M20 40C31.0457 40 40 31.0457 40 20C40 8.9543 31.0457 0 20 0C8.9543 0 0 8.9543 0 20C0 31.0457 8.9543 40 20 40Z" fill="#D80027"/>
<path d="M31.8193 16.4133H22.7901L19.9999 7.82611L17.2098 16.4133H8.18054L15.4853 21.7205L12.6951 30.3079L19.9999 25.0006L27.3048 30.308L24.5145 21.7206L31.8193 16.4133ZM17.5298 21.0562L18.4733 18.1524H21.5265L22.4701 21.0562V21.0563L19.9999 22.8509L17.5298 21.0563L17.5298 21.0562ZM20.9615 16.4133H19.0384L19.9999 13.4539L20.9615 16.4133ZM23.9494 19.9814L23.3551 18.1524H26.4667L23.9494 19.9814ZM16.6447 18.1524L16.0504 19.9814L13.533 18.1524H16.6447ZM16.0031 25.7548L16.9647 22.7955L18.5205 23.9258L16.0031 25.7548ZM21.4793 23.9259L23.0352 22.7956L23.9967 25.7549L21.4793 23.9259Z" fill="#FFDA44"/>
</g>
<defs>
<clipPath id="clip0_2978_2993">
<rect width="40" height="40" fill="white"/>
</clipPath>
</defs>
</svg>
