<svg width="40" height="40" viewBox="0 0 40 40" fill="none" xmlns="http://www.w3.org/2000/svg">
<g clip-path="url(#clip0_2978_2950)">
<path d="M28.6956 1.98453C26.0662 0.713125 23.1164 0 20 0C16.8835 0 13.9337 0.713125 11.3043 1.98453L9.56519 20L11.3043 38.0155C13.9337 39.2869 16.8835 40 20 40C23.1164 40 26.0662 39.2869 28.6956 38.0155L30.4347 20L28.6956 1.98453Z" fill="#FFDA44"/>
<path d="M11.3044 1.98523C4.61453 5.22015 0 12.0709 0 20C0 27.9291 4.61453 34.7798 11.3044 38.0148V1.98523Z" fill="#0052B4"/>
<path d="M28.6957 1.98523V38.0148C35.3855 34.7798 40.0001 27.9291 40.0001 20C40.0001 12.0709 35.3855 5.22015 28.6957 1.98523Z" fill="#D80027"/>
<path d="M26.9565 15.7359H22.174C22.174 14.5352 21.2007 13.562 20.0001 13.562C18.7994 13.562 17.8262 14.5352 17.8262 15.7359H13.0436C13.0436 16.918 14.0733 17.8762 15.2553 17.8762H15.184C15.184 19.0584 16.1423 20.0167 17.3245 20.0167C17.3245 21.0634 18.0762 21.933 19.069 22.119L17.3823 25.9269C18.1905 26.2555 19.0738 26.438 20.0001 26.438C20.9262 26.438 21.8096 26.2555 22.6177 25.9269L20.9311 22.119C21.9239 21.933 22.6756 21.0634 22.6756 20.0167C23.8578 20.0167 24.8161 19.0584 24.8161 17.8762H24.7448C25.9269 17.8762 26.9565 16.9179 26.9565 15.7359Z" fill="#FF9811"/>
<path d="M20 18.6956L17.174 20V22.6087L20 24.3478L22.8261 22.6087V20L20 18.6956Z" fill="#0052B4"/>
<path d="M17.174 17.3914H22.8261V20H17.174V17.3914Z" fill="#D80027"/>
</g>
<defs>
<clipPath id="clip0_2978_2950">
<rect width="40" height="40" fill="white"/>
</clipPath>
</defs>
</svg>
