<svg width="40" height="40" viewBox="0 0 40 40" fill="none" xmlns="http://www.w3.org/2000/svg">
<g clip-path="url(#clip0_2978_2973)">
<path d="M20 40C31.0457 40 40 31.0457 40 20C40 8.9543 31.0457 0 20 0C8.9543 0 0 8.9543 0 20C0 31.0457 8.9543 40 20 40Z" fill="#FFDA44"/>
<path d="M40 20C40 13.1358 36.5415 7.08007 31.2724 3.47827H8.72758C3.45859 7.08007 0 13.1358 0 20C0 26.8643 3.45859 32.9199 8.72758 36.5217H31.2724C36.5415 32.9199 40 26.8643 40 20Z" fill="#A2001D"/>
<path d="M15.6521 14.7826H24.3477V11.3044L22.6086 12.1739L19.9999 9.56525L17.3912 12.1739L15.6521 11.3044V14.7826Z" fill="#FFDA44"/>
<path d="M27.8259 20H23.4798C23.6502 19.7052 23.7493 19.364 23.7493 18.999C23.7493 17.8907 22.8508 16.9923 21.7426 16.9923C20.9769 16.9923 20.3119 17.4214 19.9735 18.0518C19.6351 17.4213 18.9701 16.9923 18.2044 16.9923C17.0962 16.9923 16.1977 17.8907 16.1977 18.999C16.1977 19.3641 16.2969 19.7053 16.4673 20H12.1736C12.1736 21.33 13.3319 22.408 14.6618 22.408H14.5816C14.5816 23.4989 15.3072 24.42 16.3019 24.7158L14.3475 26.6704L16.1921 28.515L18.8087 25.8984C18.9112 25.936 19.0173 25.966 19.1269 25.9866L17.5458 29.5565C18.3034 29.8647 19.1315 30.0357 19.9998 30.0357C20.8681 30.0357 21.6962 29.8647 22.4539 29.5565L20.8728 25.9866C20.9823 25.9661 21.0883 25.936 21.1908 25.8984L23.8074 28.515L25.6519 26.6704L23.6974 24.7159C24.6921 24.4199 25.4177 23.4989 25.4177 22.4081H25.3375C26.6675 22.408 27.8259 21.33 27.8259 20Z" fill="#FFDA44"/>
<path d="M20 21.3044L17.174 22.6087V25.2174L20 26.9565L22.8261 25.2174V22.6087L20 21.3044Z" fill="#6DA544"/>
<path d="M17.174 20H22.8261V23.4783H17.174V20Z" fill="#0052B4"/>
</g>
<defs>
<clipPath id="clip0_2978_2973">
<rect width="40" height="40" fill="white"/>
</clipPath>
</defs>
</svg>
