<svg width="40" height="40" viewBox="0 0 40 40" fill="none" xmlns="http://www.w3.org/2000/svg">
<g clip-path="url(#clip0_2978_2851)">
<path d="M20 40C31.0457 40 40 31.0457 40 20C40 8.9543 31.0457 0 20 0C8.9543 0 0 8.9543 0 20C0 31.0457 8.9543 40 20 40Z" fill="#F0F0F0"/>
<path d="M13.0436 20V38.756C15.2101 39.56 17.5537 40 20.0001 40C31.0457 40 40.0001 31.0456 40.0001 20C40.0001 8.95436 13.0436 20 13.0436 20Z" fill="#6DA544"/>
<path d="M20.0001 0C17.5537 0 15.2101 0.440078 13.0436 1.24398V20H40.0001C40.0001 8.95437 31.0457 0 20.0001 0Z" fill="#D80027"/>
</g>
<defs>
<clipPath id="clip0_2978_2851">
<rect width="40" height="40" fill="white"/>
</clipPath>
</defs>
</svg>
