<svg width="40" height="40" viewBox="0 0 40 40" fill="none" xmlns="http://www.w3.org/2000/svg">
<g clip-path="url(#clip0_2978_3243)">
<path d="M20 40C31.0457 40 40 31.0457 40 20C40 8.9543 31.0457 0 20 0C8.9543 0 0 8.9543 0 20C0 31.0457 8.9543 40 20 40Z" fill="#FFDA44"/>
<path d="M23.0418 39.77C26.2946 39.2738 29.2888 37.9928 31.8274 36.128L20.0002 19.9999L23.0418 39.77Z" fill="#D80027"/>
<path d="M16.9587 0.229858C13.7059 0.726108 10.7117 2.00705 8.17297 3.87181L20.0003 19.9999L16.9587 0.229858Z" fill="#D80027"/>
<path d="M8.17297 36.128C10.7116 37.9928 13.7058 39.2737 16.9585 39.7701L20.0003 19.9999L8.17297 36.128Z" fill="#D80027"/>
<path d="M3.87218 8.17261C2.00733 10.7114 0.726553 13.7055 0.230225 16.9583L20.0003 20L3.87218 8.17261Z" fill="#D80027"/>
<path d="M0.230225 23.0415C0.726475 26.2943 2.00741 29.2885 3.87226 31.8271L20.0003 19.9999L0.230225 23.0415Z" fill="#D80027"/>
<path d="M39.7703 16.9583C39.274 13.7056 37.9931 10.7113 36.1283 8.17267L20.0002 19.9999L39.7703 16.9583Z" fill="#D80027"/>
<path d="M31.8274 3.87173C29.2888 2.00697 26.2946 0.726108 23.0418 0.229858L20.0002 19.9999L31.8274 3.87173Z" fill="#D80027"/>
<path d="M36.1284 31.8272C37.9932 29.2885 39.2741 26.2942 39.7705 23.0416L20.0002 19.9999L36.1284 31.8272Z" fill="#D80027"/>
<path d="M20.0004 26.9564C23.8424 26.9564 26.9569 23.8419 26.9569 19.9999C26.9569 16.158 23.8424 13.0435 20.0004 13.0435C16.1585 13.0435 13.0439 16.158 13.0439 19.9999C13.0439 23.8419 16.1585 26.9564 20.0004 26.9564Z" fill="#D80027"/>
<path d="M20 25.2174C22.8815 25.2174 25.2174 22.8815 25.2174 20C25.2174 17.1185 22.8815 14.7826 20 14.7826C17.1185 14.7826 14.7826 17.1185 14.7826 20C14.7826 22.8815 17.1185 25.2174 20 25.2174Z" fill="#FFDA44"/>
</g>
<defs>
<clipPath id="clip0_2978_3243">
<rect width="40" height="40" fill="white"/>
</clipPath>
</defs>
</svg>
