<svg width="40" height="40" viewBox="0 0 40 40" fill="none" xmlns="http://www.w3.org/2000/svg">
<g clip-path="url(#clip0_2978_2882)">
<path d="M26.9564 1.24398C24.7898 0.440078 22.4464 0 19.9999 0C17.5535 0 15.2101 0.440078 13.0435 1.24398L11.3043 20L13.0435 38.756C15.2101 39.56 17.5535 40 19.9999 40C22.4464 40 24.7898 39.56 26.9564 38.756L28.6956 20L26.9564 1.24398Z" fill="#FFDA44"/>
<path d="M40.0001 20C40.0001 11.4008 34.5726 4.06986 26.9565 1.24408V38.7562C34.5726 35.9302 40.0001 28.5994 40.0001 20Z" fill="#D80027"/>
<path d="M0 20C0 28.5994 5.4275 35.9302 13.0435 38.7561V1.24408C5.4275 4.06986 0 11.4008 0 20Z" fill="#6DA544"/>
</g>
<defs>
<clipPath id="clip0_2978_2882">
<rect width="40" height="40" fill="white"/>
</clipPath>
</defs>
</svg>
