<svg width="40" height="40" viewBox="0 0 40 40" fill="none" xmlns="http://www.w3.org/2000/svg">
<g clip-path="url(#clip0_2978_3005)">
<path d="M38.756 26.9565C39.56 24.7899 40 22.4464 40 20C40 17.5536 39.56 15.2101 38.756 13.0435L20 11.3044L1.24398 13.0435C0.440078 15.2101 0 17.5536 0 20C0 22.4464 0.440078 24.7899 1.24398 26.9565L20 28.6956L38.756 26.9565Z" fill="#6DA544"/>
<path d="M38.7561 13.0435C35.9302 5.4275 28.5993 0 20 0C11.4007 0 4.06988 5.4275 1.24402 13.0435H38.7561Z" fill="#FFDA44"/>
<path d="M20 40C28.5993 40 35.9302 34.5725 38.7561 26.9565H1.24402C4.06988 34.5725 11.4007 40 20 40Z" fill="#D80027"/>
<path d="M33.7148 16.9208H23.2377L20 6.95648L16.7624 16.9208H6.28528L14.7615 23.0791L11.5238 33.0435L20 26.9565L28.4763 33.0434L25.2387 23.079L33.7148 16.9208Z" fill="#F0F0F0"/>
</g>
<defs>
<clipPath id="clip0_2978_3005">
<rect width="40" height="40" fill="white"/>
</clipPath>
</defs>
</svg>
