<svg width="40" height="40" viewBox="0 0 40 40" fill="none" xmlns="http://www.w3.org/2000/svg">
<g clip-path="url(#clip0_2978_2960)">
<path d="M20 40C22.4465 40 24.79 39.56 26.9565 38.756L27.8261 20L26.9566 1.24398C24.79 0.440078 22.4465 0 20 0C17.5536 0 15.2101 0.440078 13.0436 1.24398L12.174 20L13.0435 38.756C15.2101 39.56 17.5536 40 20 40Z" fill="#0052B4"/>
<path d="M0 20C0 28.5993 5.4275 35.9301 13.0435 38.756V1.24396C5.4275 4.06982 0 11.4007 0 20Z" fill="#A2001D"/>
<path d="M26.9565 1.24396V38.7561C34.5726 35.9301 40.0001 28.5993 40.0001 20C40.0001 11.4007 34.5726 4.06982 26.9565 1.24396Z" fill="#A2001D"/>
<path d="M9.56519 20H11.3043V26.9565H9.56519V20Z" fill="#FFDA44"/>
<path d="M2.60864 20H4.34778V26.9565H2.60864V20Z" fill="#FFDA44"/>
<path d="M6.95643 24.3478C7.91693 24.3478 8.69557 23.5691 8.69557 22.6086C8.69557 21.6481 7.91693 20.8695 6.95643 20.8695C5.99593 20.8695 5.21729 21.6481 5.21729 22.6086C5.21729 23.5691 5.99593 24.3478 6.95643 24.3478Z" fill="#FFDA44"/>
<path d="M6.95657 17.3912C7.4368 17.3912 7.8261 17.0019 7.8261 16.5217C7.8261 16.0415 7.4368 15.6522 6.95657 15.6522C6.47634 15.6522 6.08704 16.0415 6.08704 16.5217C6.08704 17.0019 6.47634 17.3912 6.95657 17.3912Z" fill="#FFDA44"/>
<path d="M5.21741 25.2174H8.69569V26.9565H5.21741V25.2174Z" fill="#FFDA44"/>
<path d="M5.21741 18.2609H8.69569V20H5.21741V18.2609Z" fill="#FFDA44"/>
<path d="M6.95645 10.4348L7.57239 12.3301H9.5652L7.95309 13.5015L8.56856 15.3968L6.95645 14.2254L5.34442 15.3968L5.95989 13.5015L4.34778 12.3301H6.34059L6.95645 10.4348Z" fill="#FFDA44"/>
</g>
<defs>
<clipPath id="clip0_2978_2960">
<rect width="40" height="40" fill="white"/>
</clipPath>
</defs>
</svg>
