<svg width="40" height="40" viewBox="0 0 40 40" fill="none" xmlns="http://www.w3.org/2000/svg">
<g clip-path="url(#clip0_3044_1797)">
<path d="M20 40C31.0457 40 40 31.0457 40 20C40 8.9543 31.0457 0 20 0C8.9543 0 0 8.9543 0 20C0 31.0457 8.9543 40 20 40Z" fill="#496E2D"/>
<path d="M23.4783 19.166C22.9874 19.166 22.5213 19.2639 22.0884 19.4197C22.3256 18.8912 22.4845 18.3033 22.4845 17.6754C22.4845 15.1909 20.0001 13.3276 20.0001 13.3276C20.0001 13.3276 17.5156 15.1909 17.5156 17.6754C17.5156 18.3032 17.6746 18.8912 17.9117 19.4197C17.4788 19.2641 17.0127 19.166 16.5219 19.166C14.0374 19.166 12.1741 21.6505 12.1741 21.6505C12.1741 21.6505 14.0374 24.135 16.5219 24.135C17.9785 24.135 19.2209 23.2812 20.0002 22.5745C20.7795 23.2812 22.0218 24.135 23.4784 24.135C25.9629 24.135 27.8263 21.6505 27.8263 21.6505C27.8263 21.6505 25.9627 19.166 23.4783 19.166Z" fill="#F0F0F0"/>
<path d="M20 7.82611L20.5132 9.40549H22.1739L20.8305 10.3817L21.3433 11.9611L20 10.9849L18.6566 11.9611L19.1694 10.3817L17.826 9.40549H19.4868L20 7.82611Z" fill="#FFDA44"/>
<path d="M13.6848 10.5886L14.6722 11.4775L15.8227 10.8132L15.2824 12.0269L16.2697 12.916L14.9484 12.7771L14.4081 13.9907L14.1317 12.6913L12.8105 12.5524L13.961 11.888L13.6848 10.5886Z" fill="#FFDA44"/>
<path d="M9.06201 15.2115L10.3615 15.4876L11.0258 14.3371L11.1647 15.6583L12.4641 15.9347L11.2505 16.4751L11.3894 17.7962L10.5003 16.8091L9.2867 17.3494L9.951 16.1987L9.06201 15.2115Z" fill="#FFDA44"/>
<path d="M26.3151 10.5886L25.3278 11.4775L24.1773 10.8132L24.7175 12.0269L23.7303 12.916L25.0516 12.7771L25.5919 13.9907L25.8683 12.6913L27.1895 12.5524L26.039 11.888L26.3151 10.5886Z" fill="#FFDA44"/>
<path d="M30.938 15.2115L29.6385 15.4876L28.9742 14.3371L28.8353 15.6583L27.5359 15.9347L28.7495 16.4751L28.6106 17.7962L29.4997 16.8091L30.7133 17.3494L30.049 16.1987L30.938 15.2115Z" fill="#FFDA44"/>
<path d="M20 31.0916C21.9735 31.0916 23.7926 30.4331 25.2518 29.3253H14.7483C16.2075 30.4331 18.0265 31.0916 20 31.0916Z" fill="#F0F0F0"/>
<path d="M12.0287 25.8741C12.3047 26.5059 12.6547 27.0975 13.0658 27.6405H26.9344C27.3455 27.0976 27.6955 26.5059 27.9715 25.8741H12.0287Z" fill="#F0F0F0"/>
</g>
<defs>
<clipPath id="clip0_3044_1797">
<rect width="40" height="40" fill="white"/>
</clipPath>
</defs>
</svg>
