<svg width="40" height="40" viewBox="0 0 40 40" fill="none" xmlns="http://www.w3.org/2000/svg">
<g clip-path="url(#clip0_3044_1809)">
<path d="M20 40C31.0457 40 40 31.0457 40 20C40 8.9543 31.0457 0 20 0C8.9543 0 0 8.9543 0 20C0 31.0457 8.9543 40 20 40Z" fill="#F0F0F0"/>
<path d="M39.8287 17.3912C39.277 13.1736 37.3824 9.09812 34.1422 5.85789C30.902 2.61765 26.8264 0.723044 22.6088 0.171326L22.6088 17.3912H39.8287Z" fill="#0052B4"/>
<path d="M17.3913 0.171326C13.1737 0.723044 9.09811 2.61758 5.85787 5.85781C2.61772 9.09812 0.723105 13.1737 0.171387 17.3914L17.3914 17.3913L17.3913 0.171326Z" fill="#0052B4"/>
<path d="M0.171387 22.6088C0.723105 26.8264 2.61772 30.902 5.85787 34.1422C9.09811 37.3824 13.1736 39.2769 17.3914 39.8288L17.3913 22.6089L0.171387 22.6088Z" fill="#0052B4"/>
<path d="M22.6088 39.8286C26.8264 39.2769 30.9019 37.3824 34.1421 34.1421C37.3824 30.9019 39.2769 26.8264 39.8286 22.6088H22.6088V39.8286Z" fill="#0052B4"/>
<path d="M26.8272 12.6905C26.8272 12.4246 27.0434 12.2084 27.3094 12.2084H28.3425C29.9757 12.2084 31.3043 10.8798 31.3043 9.24674C31.3043 7.6137 29.9757 6.28502 28.3425 6.28502H27.3614C27.0412 6.04448 26.6116 5.89612 26.1377 5.89612C25.1492 5.89612 24.3479 6.53713 24.3479 7.32791C24.3479 8.11104 25.1339 8.74635 26.1092 8.7587L26.1087 8.7644H28.3425C28.6086 8.7644 28.8247 8.98065 28.8247 9.24659C28.8247 9.51252 28.6086 9.7287 28.3425 9.7287H27.3094C25.6763 9.7287 24.3478 11.0573 24.3478 12.6903C24.3478 14.3234 25.6762 15.6521 27.3094 15.6521H31.3043V13.1725H27.3094C27.0434 13.1726 26.8272 12.9564 26.8272 12.6905Z" fill="#F0F0F0"/>
<path d="M11.1752 12.6905C11.1752 12.4246 11.3913 12.2084 11.6574 12.2084H12.6905C14.3236 12.2084 15.6523 10.8798 15.6523 9.24674C15.6523 7.6137 14.3237 6.28502 12.6905 6.28502H11.7094C11.3892 6.04448 10.9596 5.89612 10.4856 5.89612C9.49713 5.89612 8.6958 6.53713 8.6958 7.32791C8.6958 8.11104 9.48182 8.74635 10.4571 8.7587L10.4567 8.7644H12.6906C12.9566 8.7644 13.1728 8.98065 13.1728 9.24659C13.1728 9.51252 12.9566 9.7287 12.6906 9.7287H11.6574C10.0243 9.7287 8.6958 11.0573 8.6958 12.6903C8.6958 14.3234 10.0242 15.6521 11.6574 15.6521H15.6522V13.1725H11.6574C11.3913 13.1726 11.1752 12.9564 11.1752 12.6905Z" fill="#F0F0F0"/>
<path d="M26.8272 31.1422C26.8272 30.8763 27.0434 30.6601 27.3094 30.6601H28.3425C29.9756 30.6601 31.3043 29.3315 31.3043 27.6985C31.3043 26.0654 29.9757 24.7367 28.3425 24.7367H27.3614C27.0412 24.4962 26.6116 24.3478 26.1377 24.3478C25.1491 24.3478 24.3477 24.9889 24.3477 25.7796C24.3477 26.5628 25.1337 27.1981 26.1091 27.2104L26.1086 27.2161H28.3424C28.6084 27.2161 28.8246 27.4324 28.8246 27.6983C28.8246 27.9642 28.6084 28.1804 28.3424 28.1804H27.3093C25.6762 28.1804 24.3477 29.509 24.3477 31.1421C24.3477 32.7751 25.6761 34.1038 27.3093 34.1038H31.3042V31.6243H27.3094C27.0434 31.6244 26.8272 31.4081 26.8272 31.1422Z" fill="#F0F0F0"/>
<path d="M11.1751 31.1422C11.1751 30.8763 11.3913 30.6601 11.6573 30.6601H12.6904C14.3236 30.6601 15.6522 29.3315 15.6522 27.6985C15.6522 26.0654 14.3236 24.7367 12.6904 24.7367H11.7094C11.3891 24.4962 10.9595 24.3478 10.4856 24.3478C9.49701 24.3478 8.69568 24.9889 8.69568 25.7796C8.69568 26.5628 9.48169 27.1981 10.457 27.2104L10.4565 27.2161H12.6904C12.9565 27.2161 13.1726 27.4324 13.1726 27.6983C13.1726 27.9642 12.9565 28.1804 12.6904 28.1804H11.6573C10.0242 28.1804 8.69568 29.509 8.69568 31.1421C8.69568 32.7751 10.0241 34.1038 11.6573 34.1038H15.6522V31.6243H11.6573C11.3913 31.6244 11.1751 31.4081 11.1751 31.1422Z" fill="#F0F0F0"/>
</g>
<defs>
<clipPath id="clip0_3044_1809">
<rect width="40" height="40" fill="white"/>
</clipPath>
</defs>
</svg>
