<svg width="40" height="40" viewBox="0 0 40 40" fill="none" xmlns="http://www.w3.org/2000/svg">
<g clip-path="url(#clip0_2978_2907)">
<path d="M20 40C31.0457 40 40 31.0457 40 20C40 8.9543 31.0457 0 20 0C8.9543 0 0 8.9543 0 20C0 31.0457 8.9543 40 20 40Z" fill="#496E2D"/>
<path d="M19.9999 23.1055C16.6698 23.1055 13.8878 20.7651 13.2052 17.6397C13.1003 18.1201 13.0435 18.6183 13.0435 19.1304C13.0435 22.9725 16.1579 26.0869 19.9999 26.0869C23.842 26.0869 26.9564 22.9724 26.9564 19.1304C26.9564 18.6183 26.8996 18.1201 26.7947 17.6396C26.1121 20.7651 23.3301 23.1055 19.9999 23.1055Z" fill="#FFDA44"/>
<path d="M19.9998 13.913L20.6473 15.9059H22.7429L21.0477 17.1376L21.6952 19.1304L19.9998 17.8987L18.3046 19.1304L18.9522 17.1376L17.257 15.9059H19.3523L19.9998 13.913Z" fill="#FFDA44"/>
</g>
<defs>
<clipPath id="clip0_2978_2907">
<rect width="40" height="40" fill="white"/>
</clipPath>
</defs>
</svg>
