<svg width="40" height="40" viewBox="0 0 40 40" fill="none" xmlns="http://www.w3.org/2000/svg">
<g clip-path="url(#clip0_3044_1821)">
<path d="M40 20C40 31.0456 31.0456 40 20 40C8.95437 40 0 31.0456 0 20C0 20.0048 20 0.0021875 20 0C31.0456 0 40 8.95437 40 20Z" fill="#0052B4"/>
<path d="M19.9465 20H20C20 19.982 20 19.9645 20 19.9465C19.9822 19.9644 19.9644 19.9822 19.9465 20Z" fill="#F0F0F0"/>
<path d="M20 10.4348C20 6.91563 20 4.60977 20 0H19.9966C8.95242 0.001875 0 8.95539 0 20H10.4348V14.1241L16.3106 20H19.9466C19.9644 19.9822 19.9822 19.9644 20.0001 19.9465C20.0001 18.5991 20.0001 17.3968 20.0001 16.3108L14.1241 10.4348H20Z" fill="#F0F0F0"/>
<path d="M10.1183 2.60864C6.99028 4.38981 4.38974 6.99028 2.60864 10.1183V20H7.82607V7.82622V7.82607H20C20 6.18052 20 4.61286 20 2.60864H10.1183Z" fill="#D80027"/>
<path d="M20 17.5405L12.8942 10.4348H10.4348V10.435L19.9999 20H20C20 20 20 18.3041 20 17.5405Z" fill="#D80027"/>
<path d="M22.6086 10.4348V19.9999C22.6086 24.6593 28.6956 26.0869 28.6956 26.0869C28.6956 26.0869 34.7826 24.6593 34.7826 19.9999V10.4348H22.6086Z" fill="#338AF3"/>
<path d="M22.6086 19.9999C22.6086 24.6593 28.6956 26.087 28.6956 26.087C28.6956 26.087 34.7826 24.6593 34.7826 19.9999H22.6086Z" fill="#A2001D"/>
<path d="M31.3043 14.7827H29.5651V13.0435H27.826V14.7827H26.0869V16.5218H27.826V21.7391H29.5651V16.5218H31.3043V14.7827Z" fill="black"/>
</g>
<defs>
<clipPath id="clip0_3044_1821">
<rect width="40" height="40" fill="white"/>
</clipPath>
</defs>
</svg>
