<svg width="40" height="40" viewBox="0 0 40 40" fill="none" xmlns="http://www.w3.org/2000/svg">
<g clip-path="url(#clip0_2978_2912)">
<path d="M2.43188 10.4348L20.0001 12.1739L37.5683 10.4348C34.1762 4.21789 27.5809 0 20.0001 0C12.4192 0 5.82399 4.21789 2.43188 10.4348Z" fill="#D80027"/>
<path d="M2.4318 29.5652L20 31.3044L37.5682 29.5652C39.1185 26.7238 40 23.4648 40 20L20 18.2609L0 20C0 23.4648 0.881484 26.7238 2.4318 29.5652Z" fill="#FFDA44"/>
<path d="M2.4318 10.4348C0.881484 13.2762 0 16.5351 0 20H40C40 16.5351 39.1185 13.2762 37.5682 10.4348H20H2.4318Z" fill="#0052B4"/>
<path d="M20.0001 40C27.5809 40 34.1762 35.7821 37.5683 29.5652H2.43188C5.82399 35.7821 12.4192 40 20.0001 40Z" fill="#6DA544"/>
</g>
<defs>
<clipPath id="clip0_2978_2912">
<rect width="40" height="40" fill="white"/>
</clipPath>
</defs>
</svg>
