<svg width="40" height="40" viewBox="0 0 40 40" fill="none" xmlns="http://www.w3.org/2000/svg">
<g clip-path="url(#clip0_2978_2878)">
<path d="M20 40C31.0457 40 40 31.0457 40 20C40 8.9543 31.0457 0 20 0C8.9543 0 0 8.9543 0 20C0 31.0457 8.9543 40 20 40Z" fill="#D80027"/>
<path d="M6.95654 10.4348H33.0435V29.5652H6.95654V10.4348Z" fill="#6DA544"/>
<path d="M23.221 25.6522C20.0994 25.6522 17.5688 23.1216 17.5688 20C17.5688 16.8785 20.0994 14.3478 23.221 14.3478C24.1942 14.3478 25.1101 14.5939 25.9096 15.0272C24.6553 13.8006 22.9401 13.0435 21.0471 13.0435C17.2052 13.0435 14.0906 16.158 14.0906 19.9999C14.0906 23.8419 17.2052 26.9564 21.0471 26.9564C22.9401 26.9564 24.6554 26.1993 25.9096 24.9727C25.1101 25.4061 24.1942 25.6522 23.221 25.6522Z" fill="#F0F0F0"/>
</g>
<defs>
<clipPath id="clip0_2978_2878">
<rect width="40" height="40" fill="white"/>
</clipPath>
</defs>
</svg>
