<svg width="40" height="40" viewBox="0 0 40 40" fill="none" xmlns="http://www.w3.org/2000/svg">
<g clip-path="url(#clip0_2978_2862)">
<path d="M0 20C0 22.4464 0.440078 24.7898 1.24398 26.9565L20 27.8261L38.756 26.9565C39.56 24.7898 40 22.4464 40 20C40 17.5536 39.56 15.2101 38.756 13.0435L20 12.1739L1.24398 13.0434C0.440078 15.2101 0 17.5536 0 20H0Z" fill="#D80027"/>
<path d="M20.0002 0C11.4009 0 4.07 5.4275 1.24414 13.0435H38.7563C35.9303 5.4275 28.5995 0 20.0002 0Z" fill="black"/>
<path d="M38.7562 26.9565H1.24414C4.07 34.5724 11.4009 40 20.0002 40C28.5995 40 35.9303 34.5724 38.7562 26.9565Z" fill="#496E2D"/>
<path d="M25.9777 9.56522L23.5352 8.41632L24.8359 6.05077L22.1835 6.55819L21.8475 3.87866L20 5.84937L18.1525 3.87866L17.8164 6.55819L15.1641 6.05077L16.4648 8.41632L14.0222 9.56522H25.9777Z" fill="#D80027"/>
</g>
<defs>
<clipPath id="clip0_2978_2862">
<rect width="40" height="40" fill="white"/>
</clipPath>
</defs>
</svg>
