<svg width="40" height="40" viewBox="0 0 40 40" fill="none" xmlns="http://www.w3.org/2000/svg">
<g clip-path="url(#clip0_2978_2867)">
<path d="M20 40C31.0457 40 40 31.0457 40 20C40 8.9543 31.0457 0 20 0C8.9543 0 0 8.9543 0 20C0 31.0457 8.9543 40 20 40Z" fill="#F0F0F0"/>
<path d="M19.1306 20H40.0001C40.0001 18.1947 39.7595 16.4461 39.3112 14.7825H19.1306V20Z" fill="#D80027"/>
<path d="M19.1306 9.5652H37.0647C35.8404 7.56739 34.2751 5.80153 32.4499 4.34778H19.1306V9.5652Z" fill="#D80027"/>
<path d="M20.0001 40C24.7071 40 29.0334 38.3731 32.4499 35.6522H7.55035C10.9668 38.3731 15.2932 40 20.0001 40Z" fill="#D80027"/>
<path d="M2.93557 30.4347H37.0646C38.0475 28.831 38.8097 27.0778 39.3111 25.2173H0.689087C1.19042 27.0778 1.95268 28.831 2.93557 30.4347Z" fill="#D80027"/>
<path d="M20 20C20 8.95437 20 7.65219 20 0C8.95437 0 0 8.95437 0 20H20Z" fill="#0052B4"/>
<path d="M13.2994 17.1195C10.568 17.1195 8.35376 14.9052 8.35376 12.1739C8.35376 9.44258 10.5681 7.22829 13.2994 7.22829C14.151 7.22829 14.9524 7.44368 15.652 7.82274C14.5545 6.74954 13.0535 6.08704 11.3972 6.08704C8.03555 6.08704 5.31024 8.81227 5.31024 12.174C5.31024 15.5357 8.03555 18.2609 11.3972 18.2609C13.0535 18.2609 14.5545 17.5984 15.652 16.5252C14.9524 16.9041 14.1511 17.1195 13.2994 17.1195Z" fill="#FFDA44"/>
<path d="M14.6929 8.69562L15.571 10.5317L17.5539 10.0736L16.6659 11.9048L18.2606 13.1694L16.2751 13.6169L16.2807 15.6522L14.6929 14.3789L13.1051 15.6522L13.1106 13.6169L11.1251 13.1694L12.7198 11.9048L11.8318 10.0736L13.8148 10.5317L14.6929 8.69562Z" fill="#FFDA44"/>
</g>
<defs>
<clipPath id="clip0_2978_2867">
<rect width="40" height="40" fill="white"/>
</clipPath>
</defs>
</svg>
