<svg width="40" height="40" viewBox="0 0 40 40" fill="none" xmlns="http://www.w3.org/2000/svg">
<g clip-path="url(#clip0_2978_2996)">
<path d="M20 40C31.0457 40 40 31.0457 40 20C40 8.9543 31.0457 0 20 0C8.9543 0 0 8.9543 0 20C0 31.0457 8.9543 40 20 40Z" fill="#F0F0F0"/>
<path d="M10.8102 27.8261L5.85852 34.1415C9.47758 37.761 14.477 40 20 40C28.268 40 35.3628 34.9821 38.4087 27.8261H10.8102Z" fill="#FFDA44"/>
<path d="M38.4398 12.2463C35.4109 5.05172 28.2959 0 20 0C14.477 0 9.47758 2.23898 5.85852 5.85852L10.8671 12.2463H38.4398Z" fill="#496E2D"/>
<path d="M4.34778 14.7101V25.2173H39.3111C39.7597 23.554 40 21.8052 40 20C40 18.1686 39.7532 16.3951 39.2921 14.7101H4.34778Z" fill="black"/>
<path d="M5.85773 5.85779C-1.95274 13.6683 -1.95274 26.3316 5.85773 34.1422C9.08531 30.9146 12.1894 27.8104 19.9999 20L5.85773 5.85779Z" fill="#A2001D"/>
<path d="M8.09462 14.7826L9.38955 18.7682H13.5806L10.1902 21.2317L11.485 25.2174L8.09462 22.7541L4.70408 25.2174L5.99923 21.2317L2.60876 18.7682H6.79955L8.09462 14.7826Z" fill="#FFDA44"/>
<path d="M4.3053 20H11.8853V23.4783H4.3053V20Z" fill="#F0F0F0"/>
<path d="M13.3203 16.0124L12.0905 14.7826L8.0946 18.7785L4.09866 14.7826L2.8689 16.0124L6.86835 20.0048L2.8689 24.0043L4.09866 25.2174L8.0946 21.2287L12.0905 25.2174L13.3203 24.0043L9.32085 20.0048L13.3203 16.0124Z" fill="black"/>
</g>
<defs>
<clipPath id="clip0_2978_2996">
<rect width="40" height="40" fill="white"/>
</clipPath>
</defs>
</svg>
