<svg width="40" height="40" viewBox="0 0 40 40" fill="none" xmlns="http://www.w3.org/2000/svg">
<g clip-path="url(#clip0_2978_3010)">
<path d="M20 40C31.0457 40 40 31.0457 40 20C40 8.9543 31.0457 0 20 0C8.9543 0 0 8.9543 0 20C0 31.0457 8.9543 40 20 40Z" fill="#F0F0F0"/>
<path d="M5.8578 34.1422C6.69678 34.9812 7.59194 35.7294 8.53092 36.3881L36.3879 8.53111C35.7292 7.59212 34.981 6.69697 34.1419 5.85798C33.303 5.019 32.4078 4.27087 31.4688 3.61212L3.61194 31.4692C4.27061 32.408 5.01881 33.3032 5.8578 34.1422Z" fill="#A2001D"/>
<path d="M5.85787 5.8578C-0.451821 12.1675 -1.66307 21.6434 2.22154 29.1701L29.1701 2.22163C21.6434 -1.66298 12.1674 -0.451576 5.85787 5.8578Z" fill="#0052B4"/>
<path d="M34.142 34.1422C40.4515 27.8326 41.6628 18.3566 37.7783 10.8298L10.8297 37.7784C18.3564 41.663 27.8324 40.4518 34.142 34.1422Z" fill="#496E2D"/>
<path d="M16.5217 11.3044L14.2806 12.3585L15.4741 14.529L13.0405 14.0635L12.7321 16.5217L11.0371 14.7137L9.34202 16.5217L9.03374 14.0635L6.60015 14.5289L7.79351 12.3585L5.55249 11.3044L7.79358 10.2502L6.60015 8.07987L9.03366 8.54533L9.3421 6.08698L11.0371 7.8951L12.7322 6.08698L13.0405 8.54533L15.4741 8.07987L14.2808 10.2503L16.5217 11.3044Z" fill="#FFDA44"/>
</g>
<defs>
<clipPath id="clip0_2978_3010">
<rect width="40" height="40" fill="white"/>
</clipPath>
</defs>
</svg>
