<svg width="40" height="40" viewBox="0 0 40 40" fill="none" xmlns="http://www.w3.org/2000/svg">
<g clip-path="url(#clip0_3044_1910)">
<rect width="40" height="40" fill="#EEEEEE"/>
<mask id="mask0_3044_1910" style="mask-type:alpha" maskUnits="userSpaceOnUse" x="0" y="0" width="40" height="40">
<circle cx="20" cy="20" r="20" fill="#D9D9D9"/>
</mask>
<g mask="url(#mask0_3044_1910)">
<path d="M0 40H40V0H0V40Z" fill="#009543"/>
<path d="M0 26.6234H40V-2.47955e-05H0V26.6234Z" fill="#ED4135"/>
<path d="M0 13.3766H40V2.47955e-05H0V13.3766Z" fill="#0035AD"/>
<path d="M19.9912 6.89007C27.2305 6.89007 33.0991 12.7586 33.0991 19.998C33.0991 27.2373 27.2305 33.1061 19.9912 33.1061C12.7517 33.1061 6.88306 27.2373 6.88306 19.998C6.88306 12.7586 12.7517 6.89007 19.9912 6.89007Z" fill="#FAE600"/>
<path d="M19.9912 6.89007C27.2305 6.89007 33.0991 12.7586 33.0991 19.998C33.0991 27.2373 27.2305 33.1061 19.9912 33.1061C12.7517 33.1061 6.88306 27.2373 6.88306 19.998C6.88306 12.7586 12.7517 6.89007 19.9912 6.89007Z" stroke="black" stroke-width="0.811688"/>
<path d="M19.9912 6.9326V29.3303V6.9326ZM17.7692 18.6649H22.2133H17.7692ZM17.7692 21.9534H22.2133H17.7692Z" fill="black"/>
<path d="M19.9912 6.9326V29.3303M17.7692 18.6649H22.2133M17.7692 21.9534H22.2133" stroke="black" stroke-width="0.974026"/>
<path d="M14.7136 32.0341C20.0633 34.2187 25.0776 32.1682 25.0776 32.1682C25.0776 32.1682 23.1849 30.1198 22.2143 29.3198C21.2677 28.5398 18.4823 28.5707 17.5318 29.3198C16.7386 29.9455 14.4638 32.2504 14.7136 32.0341Z" fill="black"/>
<path d="M19.9912 23.9088C20.8011 23.9088 21.4577 24.8637 21.4577 26.0419C21.4577 27.2199 20.8011 28.175 19.9912 28.175C19.1813 28.175 18.5248 27.2199 18.5248 26.0419C18.5248 24.8637 19.1813 23.9088 19.9912 23.9088Z" fill="black"/>
<path d="M19.9912 19.1837C20.9729 19.1837 21.7688 19.6876 21.7688 20.3092C21.7688 20.9305 20.9729 21.4342 19.9912 21.4342C19.0094 21.4342 18.2136 20.9305 18.2136 20.3092C18.2136 19.6876 19.0094 19.1837 19.9912 19.1837Z" fill="black"/>
<path d="M19.9912 13.3319C20.9729 13.3319 21.7688 14.1277 21.7688 15.1097C21.7688 16.0913 20.9729 16.8871 19.9912 16.8871C19.0094 16.8871 18.2136 16.0913 18.2136 15.1097C18.2136 14.1277 19.0094 13.3319 19.9912 13.3319Z" fill="black"/>
<path d="M22.1244 8.48798C22.1237 8.48668 22.2784 8.74301 21.9543 9.32677C20.4054 12.1159 18.8512 12.1763 18.5564 12.4165C18.231 12.681 18.0939 12.6631 18.0939 12.6631C18.1171 12.424 18.1387 11.4472 18.1557 11.3531C18.3906 10.0498 20.3596 10.0677 21.9004 8.73327C22.1411 8.52499 22.1237 8.48668 22.1237 8.48668L22.1244 8.48798Z" fill="black"/>
<path d="M16.9249 14.4874C16.9249 14.4874 17.2728 15.4855 17.3248 16.4873C17.4082 18.0866 18.9407 18.1316 19.9913 18.1316V17.2428C19.2038 17.2428 18.5201 17.1257 17.9472 15.954C17.6645 15.3759 16.9249 14.4874 16.9249 14.4874Z" fill="black"/>
<path d="M16.8805 27.3751C16.8805 27.3751 17.4399 26.6847 18.0946 25.0662C18.4363 24.222 19.2458 23.731 19.9912 23.731V22.4868C18.3001 22.4868 17.4891 23.1136 17.4037 24.0298C17.2279 25.9121 16.8805 27.3751 16.8805 27.3751Z" fill="black"/>
<path d="M23.0576 14.4874C23.0576 14.4874 22.7096 15.4855 22.6576 16.4873C22.5745 18.0866 21.0419 18.1316 19.9912 18.1316V17.2428C20.7785 17.2428 21.4625 17.1257 22.0355 15.954C22.3182 15.3759 23.0576 14.4874 23.0576 14.4874Z" fill="black"/>
<path d="M23.1019 27.3751C23.1019 27.3751 22.5423 26.6847 21.8878 25.0662C21.5461 24.222 20.7368 23.731 19.9912 23.731V22.4868C21.6824 22.4868 22.4932 23.1136 22.5787 24.0298C22.7544 25.9121 23.1019 27.3751 23.1019 27.3751Z" fill="black"/>
</g>
</g>
<defs>
<clipPath id="clip0_3044_1910">
<rect width="40" height="40" fill="white"/>
</clipPath>
</defs>
</svg>
