<svg width="40" height="40" viewBox="0 0 40 40" fill="none" xmlns="http://www.w3.org/2000/svg">
<g clip-path="url(#clip0_2978_3072)">
<path d="M1.98453 11.3044C0.713125 13.9338 0 16.8835 0 20C0 23.1165 0.713125 26.0663 1.98453 28.6956L20 30.4348L38.0155 28.6956C39.2869 26.0663 40 23.1165 40 20C40 16.8835 39.2869 13.9338 38.0155 11.3044L20 9.56525L1.98453 11.3044Z" fill="#F0F0F0"/>
<path d="M1.98523 28.6956C5.22007 35.3855 12.0708 40 20 40C27.9292 40 34.7799 35.3855 38.0148 28.6956H1.98523Z" fill="#6DA544"/>
<path d="M1.98511 11.3044H38.0146C34.7798 4.61445 27.929 0 19.9999 0C12.0707 0 5.21995 4.61445 1.98511 11.3044Z" fill="#FF9811"/>
<path d="M19.9998 26.9565C23.8418 26.9565 26.9563 23.842 26.9563 20C26.9563 16.158 23.8418 13.0435 19.9998 13.0435C16.1579 13.0435 13.0433 16.158 13.0433 20C13.0433 23.842 16.1579 26.9565 19.9998 26.9565Z" fill="#FF9811"/>
</g>
<defs>
<clipPath id="clip0_2978_3072">
<rect width="40" height="40" fill="white"/>
</clipPath>
</defs>
</svg>
