<svg width="40" height="40" viewBox="0 0 40 40" fill="none" xmlns="http://www.w3.org/2000/svg">
<g clip-path="url(#clip0_2978_3063)">
<path d="M20 40C31.0457 40 40 31.0457 40 20C40 8.9543 31.0457 0 20 0C8.9543 0 0 8.9543 0 20C0 31.0457 8.9543 40 20 40Z" fill="#F0F0F0"/>
<path d="M19.9998 0C12.0706 0 5.21938 4.61445 1.98438 11.3044H38.0152C34.7803 4.61445 27.929 0 19.9998 0Z" fill="#338AF3"/>
<path d="M19.9998 40C27.929 40 34.7803 35.3855 38.0153 28.6956H1.98438C5.21938 35.3855 12.0706 40 19.9998 40Z" fill="#338AF3"/>
<path d="M19.9999 13.913C16.6382 13.913 13.913 16.6383 13.913 20C13.913 23.3617 16.6382 26.0869 19.9999 26.0869C23.3616 26.0869 26.0869 23.3617 26.0869 20C26.0869 16.6383 23.3616 13.913 19.9999 13.913ZM19.9999 23.4783C18.079 23.4783 16.5216 21.9211 16.5216 20C16.5216 18.0789 18.0789 16.5217 19.9999 16.5217C21.9209 16.5217 23.4782 18.0789 23.4782 20C23.4782 21.9211 21.9209 23.4783 19.9999 23.4783Z" fill="#FFDA44"/>
<path d="M23.0123 20.8695L19.9999 20L16.9876 20.8695L15.9835 22.6087H24.0163L23.0123 20.8695Z" fill="#0052B4"/>
<path d="M20 15.6522L17.9918 19.1304L20 20L22.0082 19.1304L20 15.6522Z" fill="#338AF3"/>
<path d="M16.9877 20.8696H23.0124L22.0082 19.1305H17.9918L16.9877 20.8696Z" fill="#6DA544"/>
</g>
<defs>
<clipPath id="clip0_2978_3063">
<rect width="40" height="40" fill="white"/>
</clipPath>
</defs>
</svg>
