<svg width="40" height="40" viewBox="0 0 40 40" fill="none" xmlns="http://www.w3.org/2000/svg">
<g clip-path="url(#clip0_2978_3046)">
<path d="M20 40C31.0457 40 40 31.0457 40 20C40 8.9543 31.0457 0 20 0C8.9543 0 0 8.9543 0 20C0 31.0457 8.9543 40 20 40Z" fill="#F0F0F0"/>
<path d="M20 0C11.4007 0 4.06988 5.4275 1.24402 13.0435H38.7561C35.9302 5.4275 28.5993 0 20 0Z" fill="#A2001D"/>
<path d="M20 40C28.5993 40 35.9302 34.5725 38.7561 26.9565H1.24402C4.06988 34.5725 11.4007 40 20 40Z" fill="#0052B4"/>
</g>
<defs>
<clipPath id="clip0_2978_3046">
<rect width="40" height="40" fill="white"/>
</clipPath>
</defs>
</svg>
