<svg width="40" height="40" viewBox="0 0 40 40" fill="none" xmlns="http://www.w3.org/2000/svg">
<g clip-path="url(#clip0_2978_3036)">
<path d="M20 40C31.0457 40 40 31.0457 40 20C40 8.9543 31.0457 0 20 0C8.9543 0 0 8.9543 0 20C0 31.0457 8.9543 40 20 40Z" fill="#F0F0F0"/>
<path d="M39.8826 22.1739L39.8822 22.1733L39.8821 22.1739H39.8826Z" fill="#0052B4"/>
<path d="M39.882 22.1739C39.882 22.1738 39.8821 22.1736 39.8821 22.1733L17.9489 0.104004C16.9595 0.204863 15.9912 0.377832 15.0498 0.617598C6.39828 2.82033 0 20 0 20C0 20 27.9998 38.7371 31.1941 36.5753C31.8333 36.1428 32.4461 35.6743 33.0295 35.1728L20.0309 22.1739H39.882Z" fill="#0052B4"/>
<path d="M34.7826 20L15.3316 0.549133C6.53813 2.65202 0 10.5619 0 20C0 31.0456 8.95438 40 20 40C24.1898 40 28.0779 38.7108 31.2913 36.5087L14.7826 20H34.7826Z" fill="#D80027"/>
<path d="M19.0215 29.5307L16.5789 28.3818L17.8796 26.0163L15.2272 26.5237L14.8912 23.8442L13.0437 25.8149L11.1963 23.8442L10.8601 26.5237L8.20787 26.0162L9.50857 28.3818L7.06592 29.5307L9.50857 30.6796L8.20787 33.0452L10.8603 32.5379L11.1962 35.2172L13.0437 33.2465L14.8912 35.2172L15.2272 32.5379L17.8795 33.0453L16.5788 30.6797L19.0215 29.5307Z" fill="#F0F0F0"/>
<path d="M17.3915 11.0924L15.6149 10.2569L16.561 8.53633L14.6318 8.90539L14.3874 6.95648L13.0437 8.38984L11.7 6.95648L11.4555 8.90539L9.52635 8.53633L10.4724 10.2569L8.6958 11.0924L13.0437 11.9621L17.3915 11.0924Z" fill="#F0F0F0"/>
<path d="M18.261 11.0924C18.261 13.9739 15.9251 16.3098 13.0436 16.3098C10.1621 16.3098 7.82617 13.9739 7.82617 11.0924" fill="#F0F0F0"/>
</g>
<defs>
<clipPath id="clip0_2978_3036">
<rect width="40" height="40" fill="white"/>
</clipPath>
</defs>
</svg>
