<svg width="40" height="40" viewBox="0 0 40 40" fill="none" xmlns="http://www.w3.org/2000/svg">
<g clip-path="url(#clip0_3044_1833)">
<path d="M40 20C40 31.0456 31.0456 40 20 40C8.95437 40 0 31.0456 0 20C0 20.0048 20 0.0021875 20 0C31.0456 0 40 8.95437 40 20Z" fill="#FFDA44"/>
<path d="M19.9999 9.56525V16.3108L13.0435 9.56525H19.9999Z" fill="#0052B4"/>
<path d="M10.4347 20H16.3106L10.4347 12.1739L9.56519 18.2608L10.4347 20Z" fill="#0052B4"/>
<path d="M19.9465 20H20C20 19.982 20 19.9645 20 19.9465C19.9822 19.9644 19.9644 19.9822 19.9465 20Z" fill="#F0F0F0"/>
<path d="M20 10.4348C20 6.91563 20 4.60977 20 0H19.9966C8.95242 0.001875 0 8.95539 0 20H10.4348V14.1241L16.3106 20H19.9466C19.9644 19.9822 19.9822 19.9644 20.0001 19.9465C20.0001 18.5991 20.0001 17.3968 20.0001 16.3108L14.1241 10.4348H20Z" fill="#F0F0F0"/>
<path d="M19.9999 17.5405L12.8941 10.4348H10.4347V10.435L19.9998 20H19.9999C19.9999 20 19.9999 18.3041 19.9999 17.5405Z" fill="#D80027"/>
<path d="M10.1183 2.60864C9.34731 3.04771 8.60864 3.537 7.90614 4.07114H8.72677L6.55786 5.64724L7.38614 8.197L5.21724 6.62122L4.98646 6.78896C4.08591 7.81161 3.28747 8.9263 2.60864 10.1183V20H7.82607V7.82622V7.82607H20C20 6.18052 20 4.61286 20 2.60864H10.1183Z" fill="#D80027"/>
<path d="M8.54379 3.60565C8.32809 3.75667 8.11543 3.9119 7.90598 4.0712L6.55793 5.64729L5.21731 6.6212L4.98458 6.79026C4.49348 7.34807 4.03293 7.93339 3.60559 8.54378C4.0927 8.78018 4.6395 8.91307 5.21731 8.91307C7.2584 8.91307 8.91293 7.25854 8.91293 5.21745C8.91309 4.63948 8.78028 4.09284 8.54379 3.60565Z" fill="#0052B4"/>
<path d="M4.98462 6.79023L5.21735 6.62117L7.38626 8.19703L6.5579 5.64726L8.72665 4.07117H7.90587C6.84384 4.8789 5.86517 5.79015 4.98462 6.79023Z" fill="#FFDA44"/>
<path d="M13.8236 3.47827L14.2553 4.80679H15.6522L14.5221 5.62796L14.9536 6.95647L13.8236 6.13538L12.6935 6.95647L13.125 5.62796L11.9949 4.80679H13.3918L13.8236 3.47827Z" fill="#FFDA44"/>
<path d="M5.21747 12.1739L5.64918 13.5024H7.04606L5.91606 14.3237L6.34754 15.6522L5.21747 14.831L4.08731 15.6522L4.51879 14.3237L3.38879 13.5024H4.78567L5.21747 12.1739Z" fill="#FFDA44"/>
</g>
<defs>
<clipPath id="clip0_3044_1833">
<rect width="40" height="40" fill="white"/>
</clipPath>
</defs>
</svg>
