<svg width="40" height="40" viewBox="0 0 40 40" fill="none" xmlns="http://www.w3.org/2000/svg">
<g clip-path="url(#clip0_2978_3050)">
<path d="M40 20C40 31.0456 31.0456 40 20 40C8.95437 40 0 31.0456 0 20C0 20.0048 20 0.0021875 20 0C31.0456 0 40 8.95437 40 20Z" fill="#0052B4"/>
<path d="M19.9464 20H19.9999C19.9999 19.982 19.9999 19.9645 19.9999 19.9465C19.9821 19.9644 19.9643 19.9822 19.9464 20Z" fill="#F0F0F0"/>
<path d="M20 10.4348C20 6.91563 20 4.60977 20 0H19.9966C8.9525 0.001875 0 8.95539 0 20H10.4348V14.1241L16.3107 20H19.9466C19.9644 19.9822 19.9823 19.9644 20.0001 19.9465C20.0001 18.5991 20.0001 17.3968 20.0001 16.3108L14.1241 10.4348H20Z" fill="#F0F0F0"/>
<path d="M10.1182 2.60864C6.99016 4.38981 4.38969 6.99028 2.60852 10.1183V20H7.82594V7.82622V7.82607H19.9998C19.9998 6.18052 19.9998 4.61286 19.9998 2.60864H10.1182Z" fill="#D80027"/>
<path d="M20 17.5405L12.8943 10.4348C12.8943 10.4348 10.4348 10.435 10.4348 10.4348V10.435L19.9999 20H20C20 20 20 18.3041 20 17.5405Z" fill="#D80027"/>
<path d="M34.6351 14.8405L35.0668 16.1691H36.4637L35.3336 16.9902L35.7653 18.3187L34.6351 17.4977L33.5049 18.3187L33.9366 16.9902L32.8064 16.1691H34.2034L34.6351 14.8405Z" fill="#D80027"/>
<path d="M29.6415 24.4057L30.2891 26.3987H32.3845L30.6892 27.6302L31.3368 29.6231L29.6415 28.3915L27.9462 29.6231L28.5939 27.6302L26.8986 26.3987H28.994L29.6415 24.4057Z" fill="#D80027"/>
<path d="M29.8301 8.75354L30.3698 10.4144H32.116L30.7032 11.4406L31.2429 13.1014L29.8301 12.0749L28.4175 13.1014L28.9571 11.4406L27.5444 10.4144H29.2905L29.8301 8.75354Z" fill="#D80027"/>
<path d="M25.0252 14.7825L25.6727 16.7755H27.7682L26.0729 18.0071L26.7205 20L25.0252 18.7683L23.3299 20L23.9775 18.0071L22.2822 16.7755H24.3776L25.0252 14.7825Z" fill="#D80027"/>
</g>
<defs>
<clipPath id="clip0_2978_3050">
<rect width="40" height="40" fill="white"/>
</clipPath>
</defs>
</svg>
