<svg width="40" height="40" viewBox="0 0 40 40" fill="none" xmlns="http://www.w3.org/2000/svg">
<g clip-path="url(#clip0_2978_3135)">
<path d="M20 40C31.0457 40 40 31.0457 40 20C40 8.9543 31.0457 0 20 0C8.9543 0 0 8.9543 0 20C0 31.0457 8.9543 40 20 40Z" fill="#F0F0F0"/>
<path d="M0 20C0 27.5808 4.21797 34.1761 10.4348 37.5682V2.43176C4.21797 5.82379 0 12.4191 0 20Z" fill="#D80027"/>
<path d="M38.7561 26.9564C39.56 24.7898 40 22.4463 40 19.9999C40 17.5535 39.56 15.21 38.7561 13.0435H1.24406C0.440078 15.21 0 17.5535 0 19.9999C0 22.4463 0.440078 24.7898 1.24406 26.9564L20 28.6956L38.7561 26.9564Z" fill="#D80027"/>
<path d="M20 40C28.5993 40 35.9301 34.5725 38.7561 26.9565H1.24402C4.0698 34.5725 11.4007 40 20 40Z" fill="#6DA544"/>
<path d="M0 20C0 29.2405 6.26727 37.016 14.7826 39.311V0.688965C6.26727 2.98396 0 10.7594 0 20Z" fill="#D80027"/>
<path d="M12.2357 8.80109L10.3911 6.95648L9.16137 8.18633L7.93168 6.95648L6.08707 8.80109L7.31684 10.0309L6.08691 11.2607L7.93152 13.1053L9.16129 11.8755L10.3911 13.1053L12.2357 11.2607L11.0059 10.0309L12.2357 8.80109Z" fill="#F0F0F0"/>
</g>
<defs>
<clipPath id="clip0_2978_3135">
<rect width="40" height="40" fill="white"/>
</clipPath>
</defs>
</svg>
