<svg width="40" height="40" viewBox="0 0 40 40" fill="none" xmlns="http://www.w3.org/2000/svg">
<g clip-path="url(#clip0_2978_3171)">
<path d="M20 40C31.0457 40 40 31.0457 40 20C40 8.9543 31.0457 0 20 0C8.9543 0 0 8.9543 0 20C0 31.0457 8.9543 40 20 40Z" fill="#F0F0F0"/>
<path d="M0 20C0 31.0456 8.95437 40 20 40C20 32.3941 20 20 20 20C20 20 6.95648 20 0 20Z" fill="#0052B4"/>
<path d="M20 0C31.0456 0 40 8.95437 40 20C32.3941 20 20 20 20 20C20 20 20 6.95648 20 0Z" fill="#D80027"/>
<path d="M11.9056 6.95648L13.2007 10.9423H17.3916L14.0011 13.4055L15.2961 17.3913L11.9056 14.928L8.51515 17.3913L9.81015 13.4055L6.41968 10.9423H10.6105L11.9056 6.95648Z" fill="#0052B4"/>
<path d="M28.0946 22.6087L29.3897 26.5945H33.5805L30.19 29.0578L31.4851 33.0435L28.0946 30.5802L24.7041 33.0435L25.9991 29.0578L22.6086 26.5945H26.7995L28.0946 22.6087Z" fill="#D80027"/>
</g>
<defs>
<clipPath id="clip0_2978_3171">
<rect width="40" height="40" fill="white"/>
</clipPath>
</defs>
</svg>
