<svg width="40" height="40" viewBox="0 0 40 40" fill="none" xmlns="http://www.w3.org/2000/svg">
<g clip-path="url(#clip0_3044_1747)">
<path d="M20 40C31.0457 40 40 31.0457 40 20C40 8.9543 31.0457 0 20 0C8.9543 0 0 8.9543 0 20C0 31.0457 8.9543 40 20 40Z" fill="#F0F0F0"/>
<path d="M2.43188 10.4348H37.5682C34.1762 4.21789 27.5809 0 20.0001 0C12.4192 0 5.82399 4.21789 2.43188 10.4348Z" fill="#D80027"/>
<path d="M20.0001 40C27.5809 40 34.1762 35.7821 37.5683 29.5652H2.43188C5.82399 35.7821 12.4192 40 20.0001 40Z" fill="#D80027"/>
<path d="M26.9564 20C26.9564 23.842 23.8419 26.087 19.9999 26.087C16.158 26.087 13.0435 23.842 13.0435 20C13.0435 16.158 16.158 13.0435 19.9999 13.0435C23.8419 13.0435 26.9564 16.158 26.9564 20Z" fill="#FFDA44"/>
<path d="M26.9564 20C26.9564 23.842 23.8419 26.9565 19.9999 26.9565C16.158 26.9565 13.0435 23.842 13.0435 20" fill="#0052B4"/>
<path d="M15.6521 18.2608H17.3912V21.7391H15.6521V18.2608Z" fill="#D80027"/>
<path d="M22.6086 18.2608H24.3478V21.7391H22.6086V18.2608Z" fill="#D80027"/>
<path d="M19.1304 15.6522H20.8695V21.7391H19.1304V15.6522Z" fill="#D80027"/>
</g>
<defs>
<clipPath id="clip0_3044_1747">
<rect width="40" height="40" fill="white"/>
</clipPath>
</defs>
</svg>
