<svg width="40" height="40" viewBox="0 0 40 40" fill="none" xmlns="http://www.w3.org/2000/svg">
<g clip-path="url(#clip0_2978_3177)">
<path d="M34.1422 34.1421C26.3317 41.9526 13.6685 41.9526 5.85784 34.1421C-1.95263 26.3316 -1.95263 13.6683 5.85792 5.85773C13.6684 -1.95274 25.1019 -0.722972 32.9124 7.08757C40.7228 14.898 41.9526 26.3316 34.1422 34.1421Z" fill="black"/>
<path d="M5.85791 5.85784C13.6684 -1.95262 26.3316 -1.95247 34.1422 5.85792C41.9527 13.6684 41.9527 26.3317 34.1422 34.1422" fill="#A2001D"/>
<path d="M15.2846 26.9565L15.6083 27.953H16.6561L15.8084 28.5688L16.1322 29.5653L15.2846 28.9494L14.4369 29.5653L14.7607 28.5688L13.9131 27.953H14.9607L15.2846 26.9565Z" fill="#F0F0F0"/>
<path d="M12.6085 17.3913L13.1483 19.0521H14.8944L13.4817 20.0784L14.0213 21.7392L12.6085 20.7127L11.1959 21.7392L11.7356 20.0784L10.3228 19.0521H12.069L12.6085 17.3913Z" fill="#F0F0F0"/>
<path d="M12.6085 29.5652L13.1481 31.226H14.8944L13.4815 32.2523L14.0213 33.9131L12.6085 32.8866L11.1959 33.9131L11.7354 32.2523L10.3228 31.226H12.0688L12.6085 29.5652Z" fill="#F0F0F0"/>
<path d="M17.7142 21.7392L18.2539 23.4H20L18.5873 24.4262L19.1269 26.087L17.7142 25.0605L16.3015 26.087L16.8412 24.4262L15.4285 23.4H17.1746L17.7142 21.7392Z" fill="#F0F0F0"/>
<path d="M7.50307 21.7392L8.04283 23.4H9.78885L8.37619 24.4262L8.91572 26.087L7.50307 25.0605L6.09033 26.087L6.6301 24.4262L5.21729 23.4H6.96346L7.50307 21.7392Z" fill="#F0F0F0"/>
<path d="M33.4803 14.8094C32.5865 13.9156 31.4251 13.3876 30.177 13.2969L33.9129 10.3912C32.4251 8.90327 30.4308 8.23132 28.4849 8.37343C28.2519 7.53624 27.8078 6.74546 27.1494 6.0871L25.6737 9.0385C25.5769 8.8621 25.4544 8.69608 25.3048 8.54663C24.4558 7.69764 23.0794 7.69764 22.2304 8.54663C21.3815 9.39561 21.3814 10.772 22.2304 11.621C22.3799 11.7705 22.546 11.893 22.7224 11.9899L19.771 13.4656C20.4295 14.1242 21.2208 14.5687 22.0585 14.8015C21.9159 16.7474 22.5872 18.7413 24.0751 20.2293L27.3392 16.0326C27.5847 15.7908 27.909 15.6573 28.254 15.6573C28.6025 15.6573 28.93 15.7929 29.1763 16.0394C29.4227 16.2857 29.5584 16.6133 29.5584 16.9616C29.5584 17.3101 29.4227 17.6376 29.1763 17.884L30.4062 19.1138C30.9809 18.539 31.2976 17.7747 31.2976 16.9617C31.2976 16.2966 31.0854 15.6642 30.6937 15.1414C31.2644 15.2938 31.8039 15.5924 32.2508 16.0394C33.607 17.3955 33.607 19.6023 32.2508 20.9583L33.4806 22.1882C34.466 21.2027 35.0087 19.8926 35.0087 18.4989C35.0085 17.1051 34.4657 15.7949 33.4803 14.8094Z" fill="#FFDA44"/>
</g>
<defs>
<clipPath id="clip0_2978_3177">
<rect width="40" height="40" fill="white"/>
</clipPath>
</defs>
</svg>
