<svg width="40" height="40" viewBox="0 0 40 40" fill="none" xmlns="http://www.w3.org/2000/svg">
<g clip-path="url(#clip0_2978_3198)">
<path d="M20 40C31.0457 40 40 31.0457 40 20C40 8.9543 31.0457 0 20 0C8.9543 0 0 8.9543 0 20C0 31.0457 8.9543 40 20 40Z" fill="#F0F0F0"/>
<path d="M20.0001 0V20L5.85791 34.1422C9.47721 37.7614 14.4772 40 20.0001 40C31.0457 40 40.0001 31.0456 40.0001 20C40.0001 8.95437 20.0001 0 20.0001 0Z" fill="#D80027"/>
<path d="M20.0001 0C14.4772 0 9.47721 2.23859 5.85791 5.85781C10.7649 10.7648 12.5069 12.5069 20.0001 20H40.0001C40.0001 8.95437 31.0457 0 20.0001 0Z" fill="#0052B4"/>
<path d="M13.6945 20L11.252 18.8511L12.5527 16.4856L9.90034 16.993L9.56425 14.3135L7.71675 16.2842L5.86933 14.3135L5.53315 16.993L2.88089 16.4855L4.18159 18.8511L1.73901 20L4.18159 21.1489L2.88089 23.5145L5.53339 23.0071L5.86925 25.6865L7.71675 23.7159L9.56425 25.6865L9.90034 23.0071L12.5525 23.5146L11.2519 21.149L13.6945 20Z" fill="#FFDA44"/>
<path d="M5.33364 7.82611L6.14646 8.96228L7.4781 8.54049L6.64856 9.66455L7.46138 10.8007L6.13591 10.3592L5.30646 11.4832L5.31685 10.0863L3.99146 9.64478L5.32333 9.22299L5.33364 7.82611Z" fill="#FFDA44"/>
<path d="M5.33364 28.5168L6.14646 29.653L7.4781 29.2311L6.64856 30.3553L7.46138 31.4915L6.13591 31.05L5.30646 32.174L5.31685 30.7771L3.99146 30.3355L5.32333 29.9137L5.33364 28.5168Z" fill="#FFDA44"/>
<path d="M16.9269 18.1715L16.1142 19.3077L14.7825 18.8857L15.612 20.0099L14.7992 21.1461L16.1247 20.7046L16.9542 21.8285L16.9437 20.4317L18.2691 19.9902L16.9373 19.5684L16.9269 18.1715Z" fill="#FFDA44"/>
</g>
<defs>
<clipPath id="clip0_2978_3198">
<rect width="40" height="40" fill="white"/>
</clipPath>
</defs>
</svg>
