<svg width="40" height="40" viewBox="0 0 40 40" fill="none" xmlns="http://www.w3.org/2000/svg">
<g clip-path="url(#clip0_2978_3155)">
<path d="M20 40C31.0457 40 40 31.0457 40 20C40 8.9543 31.0457 0 20 0C8.9543 0 0 8.9543 0 20C0 31.0457 8.9543 40 20 40Z" fill="#F0F0F0"/>
<path d="M0 20C0 27.5808 4.21789 34.1761 10.4348 37.5682V2.43176C4.21789 5.82387 0 12.4191 0 20Z" fill="#F0F0F0"/>
<path d="M20 0C16.5352 0 13.2763 0.881484 10.4348 2.4318V37.5681C13.2763 39.1185 16.5352 40 20 40C31.0457 40 40 31.0456 40 20C40 8.95437 31.0457 0 20 0Z" fill="#496E2D"/>
<path d="M28.5509 23.3078C26.0207 25.136 22.4874 24.5669 20.6593 22.0367C18.831 19.5064 19.4001 15.9732 21.9303 14.1451C22.7193 13.5751 23.6057 13.2382 24.5075 13.121C22.7725 12.8616 20.9386 13.2525 19.4044 14.361C16.2903 16.6112 15.5898 20.9597 17.8399 24.0739C20.09 27.1879 24.4386 27.8885 27.5528 25.6382C29.0871 24.5297 30.034 22.9115 30.3323 21.1827C29.9381 22.0019 29.3399 22.7377 28.5509 23.3078Z" fill="#F0F0F0"/>
<path d="M28.4426 13.0436L29.8679 14.5797L31.7691 13.699L30.7486 15.529L32.1738 17.0652L30.1179 16.6601L29.0974 18.4903L28.8473 16.4098L26.7914 16.0047L28.6927 15.1241L28.4426 13.0436Z" fill="#F0F0F0"/>
</g>
<defs>
<clipPath id="clip0_2978_3155">
<rect width="40" height="40" fill="white"/>
</clipPath>
</defs>
</svg>
