<svg width="40" height="40" viewBox="0 0 40 40" fill="none" xmlns="http://www.w3.org/2000/svg">
<g clip-path="url(#clip0_3044_1919)">
<mask id="mask0_3044_1919" style="mask-type:alpha" maskUnits="userSpaceOnUse" x="0" y="0" width="40" height="40">
<circle cx="20" cy="20" r="20" fill="#D9D9D9"/>
</mask>
<g mask="url(#mask0_3044_1919)">
<path d="M0 0H20V13.5H0V0Z" fill="#D22F27"/>
<path fill-rule="evenodd" clip-rule="evenodd" d="M20.5677 0.873423L1.25 13.5H0V11.75L19.4323 -0.873474L20.5677 0.873423Z" fill="#5C9E31"/>
<path fill-rule="evenodd" clip-rule="evenodd" d="M18.8577 13.5L-0.567749 0.873423L0.567734 -0.873474L20 11.75V13.5H19.75H18.8577Z" fill="#5C9E31"/>
<path d="M10 13.5V0V13.5Z" fill="black"/>
<path d="M10 13.5V0" stroke="white" stroke-width="2.0835"/>
<path d="M0 6H20H0Z" fill="black"/>
<path d="M0 6H20" stroke="white" stroke-width="2.0835"/>
<path d="M20 0H65V40H20V0Z" fill="#61B2E4"/>
<path d="M0 13.5H20V27H0V13.5Z" fill="white"/>
<path d="M32.333 18.7915C32.333 21.9165 36.4995 24 39.6245 24C42.7495 24 51.083 22.9585 55.2495 14.625H57.333C57.333 18.7915 54.208 26.0835 51.083 28.1665H33.375L25.0415 18.7915H32.333Z" fill="#F1B31C" stroke="#F1B31C" stroke-width="2.0835" stroke-linecap="round" stroke-linejoin="round"/>
<path d="M19.833 30.25C22.958 30.25 22.958 28.1665 26.083 28.1665C29.208 28.1665 29.208 30.25 32.333 30.25C35.458 30.25 35.458 28.1665 38.583 28.1665C41.708 28.1665 41.708 30.25 44.833 30.25C47.958 30.25 47.958 28.1665 51.083 28.1665C54.208 28.1665 54.208 30.25 57.333 30.25C60.458 30.25 60.458 28.1665 63.583 28.1665" stroke="white" stroke-width="2.0835" stroke-linecap="round" stroke-linejoin="round"/>
<path d="M0 27H20V40H0V27Z" fill="#D22F27"/>
<path d="M4.75 31.25H15.1665M4.75 35.4165H15.1665" stroke="#F1B31C" stroke-width="2.0835" stroke-linecap="round" stroke-linejoin="round"/>
<path d="M43.7915 7.33301C41.708 11.4995 40.6665 17.7495 41.708 19.833L37.5415 18.7915C37.5415 13.583 39.625 9.41651 42.75 7.33301H43.7915ZM52.125 7.33301C50.0415 11.4995 49 17.7495 50.0415 19.833L45.8745 18.7915C45.8745 13.583 47.958 9.41651 51.083 7.33301H52.125ZM29.6455 13.6925C30.3605 11.039 32.069 8.76201 34.4165 7.33301H35.458C34.3591 9.62719 33.6014 12.0697 33.209 14.583L29.6455 13.6925Z" fill="#F1B31C" stroke="#F1B31C" stroke-width="2.0835" stroke-linecap="round" stroke-linejoin="round"/>
</g>
</g>
<defs>
<clipPath id="clip0_3044_1919">
<rect width="40" height="40" fill="white"/>
</clipPath>
</defs>
</svg>
