<svg width="40" height="40" viewBox="0 0 40 40" fill="none" xmlns="http://www.w3.org/2000/svg">
<g clip-path="url(#clip0_3044_1850)">
<path d="M20 40C31.0457 40 40 31.0457 40 20C40 8.9543 31.0457 0 20 0C8.9543 0 0 8.9543 0 20C0 31.0457 8.9543 40 20 40Z" fill="#F0F0F0"/>
<path d="M20 0C13.4569 0 7.6479 3.14242 3.99915 8H36.0009C32.3521 3.14242 26.5431 0 20 0Z" fill="#D80027"/>
<path d="M20 40C26.5431 40 32.3521 36.8576 36.0009 32H3.99915C7.6479 36.8576 13.4569 40 20 40Z" fill="#D80027"/>
<path d="M0 20C0 21.3699 0.138125 22.7076 0.400547 24H39.5996C39.862 22.7076 40 21.3699 40 20C40 18.6301 39.8619 17.2924 39.5995 16H0.400547C0.138125 17.2924 0 18.6301 0 20H0Z" fill="#D80027"/>
<path d="M5.85785 5.85779C-1.95262 13.6683 -1.95262 26.3316 5.85785 34.1422C9.08543 30.9146 12.1896 27.8104 20 20L5.85785 5.85779Z" fill="#0052B4"/>
<path d="M8.0945 14.7826L9.38942 18.7682H13.5805L10.19 21.2317L11.4849 25.2174L8.0945 22.7541L4.70396 25.2174L5.99911 21.2317L2.60864 18.7682H6.79942L8.0945 14.7826Z" fill="#F0F0F0"/>
</g>
<defs>
<clipPath id="clip0_3044_1850">
<rect width="40" height="40" fill="white"/>
</clipPath>
</defs>
</svg>
