<svg width="40" height="40" viewBox="0 0 40 40" fill="none" xmlns="http://www.w3.org/2000/svg">
<g clip-path="url(#clip0_2978_3166)">
<path d="M20 40C31.0457 40 40 31.0457 40 20C40 8.9543 31.0457 0 20 0C8.9543 0 0 8.9543 0 20C0 31.0457 8.9543 40 20 40Z" fill="#F0F0F0"/>
<path d="M12.1739 13.0435H38.7559C35.9302 5.4275 28.5992 0 20 0C14.477 0 9.47758 2.23898 5.85852 5.85852L12.1739 13.0435Z" fill="black"/>
<path d="M12.1739 26.9565H38.7559C35.9302 34.5725 28.5992 40 20 40C14.477 40 9.47758 37.761 5.85852 34.1415L12.1739 26.9565Z" fill="#6DA544"/>
<path d="M5.85785 5.85779C-1.95262 13.6683 -1.95262 26.3316 5.85785 34.1422C9.08543 30.9146 12.1896 27.8104 20 20L5.85785 5.85779Z" fill="#D80027"/>
</g>
<defs>
<clipPath id="clip0_2978_3166">
<rect width="40" height="40" fill="white"/>
</clipPath>
</defs>
</svg>
