<svg width="40" height="40" viewBox="0 0 40 40" fill="none" xmlns="http://www.w3.org/2000/svg">
<g clip-path="url(#clip0_2978_3223)">
<path d="M0 20C0 28.5992 5.4275 35.9301 13.0434 38.7559L14.7826 19.9999L13.0434 1.24399C5.4275 4.06993 0 11.4007 0 20Z" fill="#6DA544"/>
<path d="M40 20C40 8.95437 31.0457 0 20 0C17.5536 0 15.2101 0.440078 13.0434 1.24398V38.756C15.2101 39.56 17.5536 40 20 40C31.0457 40 40 31.0456 40 20Z" fill="#D80027"/>
<path d="M13.0436 26.9565C16.8855 26.9565 20.0001 23.842 20.0001 20C20.0001 16.158 16.8855 13.0435 13.0436 13.0435C9.20162 13.0435 6.0871 16.158 6.0871 20C6.0871 23.842 9.20162 26.9565 13.0436 26.9565Z" fill="#FFDA44"/>
<path d="M9.13043 16.5217V20.8695C9.13043 23.0306 10.8823 24.7826 13.0435 24.7826C15.2047 24.7826 16.9565 23.0307 16.9565 20.8695V16.5217H9.13043Z" fill="#D80027"/>
<path d="M13.0434 22.1739C12.3242 22.1739 11.7391 21.5887 11.7391 20.8695V19.1305H14.3477V20.8696C14.3477 21.5887 13.7626 22.1739 13.0434 22.1739Z" fill="#F0F0F0"/>
</g>
<defs>
<clipPath id="clip0_2978_3223">
<rect width="40" height="40" fill="white"/>
</clipPath>
</defs>
</svg>
