<svg width="40" height="40" viewBox="0 0 40 40" fill="none" xmlns="http://www.w3.org/2000/svg">
<g clip-path="url(#clip0_2978_3187)">
<path d="M20 40C31.0457 40 40 31.0457 40 20C40 8.9543 31.0457 0 20 0C8.9543 0 0 8.9543 0 20C0 31.0457 8.9543 40 20 40Z" fill="#F0F0F0"/>
<path d="M20 0C12.0707 0 5.2195 4.61445 1.9845 11.3044H38.0154C34.7804 4.61445 27.9291 0 20 0Z" fill="#D80027"/>
<path d="M20 40C27.9291 40 34.7804 35.3855 38.0154 28.6956H1.9845C5.2195 35.3855 12.0707 40 20 40Z" fill="#0052B4"/>
<path d="M24.919 14.2115L23.0744 16.0561C23.8612 16.8429 24.3479 17.9298 24.3479 19.1305C24.3479 21.5317 22.4012 23.4783 20.0001 23.4783C17.5989 23.4783 15.6523 21.5316 15.6523 19.1305C15.6523 17.9298 16.139 16.8429 16.9258 16.0561L15.0812 14.2115C13.8222 15.4702 13.0436 17.2094 13.0436 19.1305C13.0436 22.9725 16.1581 26.087 20.0001 26.087C23.842 26.087 26.9566 22.9724 26.9566 19.1305C26.9565 17.2094 26.1779 15.4702 24.919 14.2115Z" fill="#6DA544"/>
<path d="M19.9999 16.5217L20.6475 18.5147H22.7429L21.0477 19.7463L21.6952 21.7391L19.9999 20.5075L18.3046 21.7391L18.9522 19.7463L17.257 18.5147H19.3523L19.9999 16.5217Z" fill="#FFDA44"/>
</g>
<defs>
<clipPath id="clip0_2978_3187">
<rect width="40" height="40" fill="white"/>
</clipPath>
</defs>
</svg>
