<svg viewBox="0 0 24 24" fill="none" xmlns="http://www.w3.org/2000/svg">
    <path fill-rule="evenodd" clip-rule="evenodd" d="M4.48414 3C3.66447 3 3 3.66447 3 4.48414V9.29494C3 10.1146 3.66447 10.7791 4.48414 10.7791H9.29501C10.1147 10.7791 10.7791 10.1146 10.7791 9.29494V4.48414C10.7791 3.66447 10.1147 3 9.29501 3H4.48414ZM4.5 9.27907V4.5H9.27914V9.27907H4.5ZM14.5117 3.00003C13.6921 3.00003 13.0276 3.6645 13.0276 4.48417V9.29497C13.0276 10.1146 13.6921 10.7791 14.5117 10.7791H19.3226C20.1423 10.7791 20.8067 10.1146 20.8067 9.29497V4.48417C20.8067 3.6645 20.1423 3.00003 19.3226 3.00003H14.5117ZM14.5276 9.27911V4.50003H19.3067V9.27911H14.5276ZM3 14.7062C3 13.8865 3.66447 13.222 4.48414 13.222H9.29501C10.1147 13.222 10.7791 13.8865 10.7791 14.7062V19.517C10.7791 20.3366 10.1147 21.0011 9.29501 21.0011H4.48414C3.66447 21.0011 3 20.3367 3 19.517V14.7062ZM4.5 14.722V19.5011H9.27914V14.722H4.5ZM14.8709 13.4767C14.4803 13.0862 13.8472 13.0862 13.4566 13.4767L13.4482 13.4852C13.2606 13.6727 13.1553 13.9271 13.1553 14.1923C13.1553 14.4575 13.2606 14.7119 13.4482 14.8994L13.4566 14.9079C13.8472 15.2984 14.4803 15.2984 14.8709 14.9079L14.8793 14.8994L14.8793 14.8994C15.2699 14.5089 15.2699 13.8757 14.8793 13.4852L14.8792 13.4851L14.8709 13.4767ZM20.6355 13.4767C20.245 13.0862 19.6118 13.0862 19.2213 13.4767L19.2128 13.4852C19.0253 13.6727 18.9199 13.9271 18.9199 14.1923C18.9199 14.4575 19.0253 14.7119 19.2128 14.8994L19.2213 14.9079C19.6118 15.2984 20.245 15.2984 20.6355 14.9079L20.644 14.8994L20.644 14.8994C21.0345 14.5089 21.0345 13.8757 20.644 13.4852L20.6439 13.4851L20.6355 13.4767ZM13.4566 19.4107C13.8472 19.0202 14.4803 19.0202 14.8709 19.4107L14.8792 19.4191L14.8793 19.4192C15.2699 19.8097 15.2699 20.4429 14.8793 20.8334L14.8793 20.8334L14.8709 20.8419C14.4803 21.2324 13.8472 21.2324 13.4566 20.8419L13.4482 20.8334C13.2606 20.6459 13.1553 20.3915 13.1553 20.1263C13.1553 19.8611 13.2606 19.6067 13.4482 19.4192L13.4566 19.4107ZM20.6355 19.4107C20.245 19.0202 19.6118 19.0202 19.2213 19.4107L19.2128 19.4192C19.0253 19.6067 18.9199 19.8611 18.9199 20.1263C18.9199 20.3915 19.0253 20.6459 19.2128 20.8334L19.2213 20.8419C19.6118 21.2324 20.245 21.2324 20.6355 20.8419L20.644 20.8334L20.644 20.8334C21.0345 20.4429 21.0345 19.8097 20.644 19.4192L20.6439 19.4191L20.6355 19.4107ZM16.3392 16.4438C16.7297 16.0533 17.3629 16.0533 17.7534 16.4438L17.7618 16.4522L17.7619 16.4523C18.1524 16.8428 18.1524 17.476 17.7619 17.8665L17.7619 17.8665L17.7534 17.875C17.3629 18.2655 16.7297 18.2655 16.3392 17.875L16.3307 17.8665C16.1432 17.679 16.0378 17.4246 16.0378 17.1594C16.0378 16.8942 16.1432 16.6398 16.3307 16.4523L16.3392 16.4438Z" fill="#212121"/>
</svg>
