<svg width="40" height="40" viewBox="0 0 40 40" fill="none" xmlns="http://www.w3.org/2000/svg">
<g clip-path="url(#clip0_3044_1913)">
<mask id="mask0_3044_1913" style="mask-type:alpha" maskUnits="userSpaceOnUse" x="0" y="0" width="40" height="40">
<circle cx="20" cy="20" r="20" fill="#D9D9D9"/>
</mask>
<g mask="url(#mask0_3044_1913)">
<path d="M20 0C8.9543 0 0 8.9543 0 20C0 31.0457 8.9543 40 20 40C31.0457 40 40 31.0457 40 20C40 8.9543 31.0457 0 20 0Z" fill="#3366FF"/>
<path d="M3.60352 31.4553L20.5 20L36.7119 30.9911C33.1353 36.4183 26.9859 40 20 40C13.2153 40 7.21963 36.6216 3.60352 31.4553Z" fill="#FF0000"/>
<path d="M2.92799 9.57593L20.5 20L0.0266266 18.959C0.00894779 19.3038 0 19.6508 0 20C0 20.3492 0.00894779 20.6962 0.0266266 21.041L20.5 20L39.9759 20.9903C39.9919 20.6622 40 20.3321 40 20C40 19.6679 39.9919 19.3378 39.9759 19.0097L20.5 20L37.3327 10.0145C37.001 9.43993 36.6415 8.88341 36.2562 8.34676L20.5 20L21.968 0.0955967C21.3205 0.0323626 20.664 0 20 0C19.6737 0 19.3492 0.00781431 19.0267 0.023266L20.5 20L4.09781 7.86895C3.67955 8.4164 3.28892 8.98609 2.92799 9.57593Z" fill="#FFFF00"/>
</g>
</g>
<defs>
<clipPath id="clip0_3044_1913">
<rect width="40" height="40" fill="white"/>
</clipPath>
</defs>
</svg>
