<svg width="40" height="40" viewBox="0 0 40 40" fill="none" xmlns="http://www.w3.org/2000/svg">
<g clip-path="url(#clip0_2978_3260)">
<path d="M26.9564 1.24391C24.7897 0.440078 22.4464 1.03982e-08 19.9999 1.03982e-08C17.5535 -7.81146e-05 15.2101 0.440078 13.0435 1.24391L11.3043 19.9999L13.0435 38.7559C15.21 39.56 17.5535 40 19.9999 40C22.4463 40 24.7898 39.56 26.9564 38.7559L28.6955 20L26.9564 1.24391Z" fill="#FFDA44"/>
<path d="M39.9999 20C39.9999 11.4008 34.5724 4.06974 26.9564 1.24396V38.7561C34.5724 35.93 39.9999 28.5993 39.9999 20Z" fill="#D80027"/>
<path d="M0 19.9999C0 28.5993 5.4275 35.93 13.0434 38.7561L13.0434 1.24402C5.4275 4.0698 0 11.4006 0 19.9999H0Z" fill="#0052B4"/>
</g>
<defs>
<clipPath id="clip0_2978_3260">
<rect width="40" height="40" fill="white"/>
</clipPath>
</defs>
</svg>
