<svg width="40" height="40" viewBox="0 0 40 40" fill="none" xmlns="http://www.w3.org/2000/svg">
<g clip-path="url(#clip0_2978_3352)">
<path d="M20 40C31.0457 40 40 31.0457 40 20C40 8.9543 31.0457 0 20 0C8.9543 0 0 8.9543 0 20C0 31.0457 8.9543 40 20 40Z" fill="#F0F0F0"/>
<path d="M20 0C8.95437 0 0 8.95437 0 20C0 22.4464 0.440078 24.7899 1.24398 26.9565H38.7561C39.56 24.7899 40 22.4464 40 20C40 8.95437 31.0456 0 20 0Z" fill="#0052B4"/>
<path d="M20.0002 0C11.4009 0 4.07 5.4275 1.24414 13.0435H38.7563C35.9303 5.4275 28.5995 0 20.0002 0Z" fill="#D80027"/>
<path d="M5.17188 11.3044V21.2814C5.17188 26.9567 12.586 28.6957 12.586 28.6957C12.586 28.6957 20.0001 26.9567 20.0001 21.2814V11.3044H5.17188Z" fill="#D80027"/>
<path d="M8.23804 13.0436H16.9337V9.56531L15.1946 10.4348L12.5859 7.82617L9.97718 10.4348L8.23804 9.56531V13.0436Z" fill="#FFDA44"/>
<path d="M18.2609 22.6706L12.6087 17.0184L6.95654 22.6706L8.80115 24.5152L12.6087 20.7077L16.4163 24.5152L18.2609 22.6706Z" fill="#FFDA44"/>
<path d="M18.2608 17.3914H15.6236C15.7719 17.1354 15.8581 16.839 15.8581 16.522C15.8581 15.5614 15.0795 14.7828 14.119 14.7828C13.4553 14.7828 12.879 15.1546 12.5858 15.701C12.2926 15.1546 11.7163 14.7828 11.0526 14.7828C10.0921 14.7828 9.31345 15.5614 9.31345 16.522C9.31345 16.839 9.3997 17.1355 9.54798 17.3914H6.95642C6.95642 18.3519 7.79306 19.1305 8.75345 19.1305H8.69556C8.69556 20.091 9.47416 20.8696 10.4347 20.8696C10.4347 21.7201 11.0455 22.4267 11.8521 22.5779L10.4818 25.6718C11.1385 25.9388 11.8562 26.0871 12.6087 26.0871C13.3612 26.0871 14.0788 25.9388 14.7356 25.6718L13.3652 22.5779C14.1719 22.4268 14.7827 21.7202 14.7827 20.8696C15.7432 20.8696 16.5218 20.091 16.5218 19.1305H16.4639C17.4242 19.1305 18.2608 18.3518 18.2608 17.3914Z" fill="#F0F0F0"/>
</g>
<defs>
<clipPath id="clip0_2978_3352">
<rect width="40" height="40" fill="white"/>
</clipPath>
</defs>
</svg>
