<svg width="40" height="40" viewBox="0 0 40 40" fill="none" xmlns="http://www.w3.org/2000/svg">
<g clip-path="url(#clip0_2978_3268)">
<path d="M0 20C0 23.4648 0.881484 26.7238 2.4318 29.5652L20 31.3044L37.5682 29.5652C39.1185 26.7238 40 23.4648 40 20L20 18.2609L0 20Z" fill="#FFDA44"/>
<path d="M37.5682 10.4348C34.1761 4.21789 27.5809 0 20 0C12.4191 0 5.82391 4.21789 2.4318 10.4348C0.881484 13.2762 0 16.5352 0 20H40C40 16.5352 39.1185 13.2762 37.5682 10.4348Z" fill="#338AF3"/>
<path d="M20 40C27.5808 40 34.1761 35.7821 37.5682 29.5652H2.43176C5.82387 35.7821 12.4191 40 20 40Z" fill="#496E2D"/>
<path d="M22.6086 11.7048L25.0513 12.8538L23.7506 15.2194L26.4029 14.712L26.739 17.3913L28.5864 15.4207L30.4339 17.3913L30.7699 14.712L33.4222 15.2192L32.1216 12.8537L34.5641 11.7048L32.1215 10.5559L33.4222 8.19032L30.77 8.69767L30.4338 6.01837L28.5864 7.989L26.739 6.01837L26.4029 8.69767L23.7505 8.19032L25.0512 10.556L22.6086 11.7048Z" fill="#FFDA44"/>
</g>
<defs>
<clipPath id="clip0_2978_3268">
<rect width="40" height="40" fill="white"/>
</clipPath>
</defs>
</svg>
