<svg width="40" height="40" viewBox="0 0 40 40" fill="none" xmlns="http://www.w3.org/2000/svg">
<g clip-path="url(#clip0_2978_3330)">
<path d="M20 40C31.0457 40 40 31.0457 40 20C40 8.9543 31.0457 0 20 0C8.9543 0 0 8.9543 0 20C0 31.0457 8.9543 40 20 40Z" fill="#6DA544"/>
<path d="M11.3044 23.913C11.3044 25.3537 12.4724 26.5216 13.9131 26.5216H21.7392C21.7392 27.7223 22.7125 28.6955 23.9131 28.6955H26.5218C27.7224 28.6955 28.6957 27.7223 28.6957 26.5216V23.913H11.3044Z" fill="#F0F0F0"/>
<path d="M28.9132 11.3043V17.3912C28.9132 18.3502 28.1331 19.1304 27.1741 19.1304V21.739C29.5715 21.739 31.5219 19.7886 31.5219 17.3912V11.3043H28.9132Z" fill="#F0F0F0"/>
<path d="M10.2177 17.3914C10.2177 18.3504 9.4375 19.1305 8.47852 19.1305V21.7392C10.8759 21.7392 12.8263 19.7887 12.8263 17.3914V11.3044H10.2177V17.3914Z" fill="#F0F0F0"/>
<path d="M25 11.3043H27.6087V17.3912H25V11.3043Z" fill="#F0F0F0"/>
<path d="M21.0871 14.7825C21.0871 15.0222 20.892 15.2172 20.6523 15.2172C20.4126 15.2172 20.2176 15.0222 20.2176 14.7825V11.3042H17.6089V14.7825C17.6089 15.0222 17.4138 15.2172 17.1741 15.2172C16.9344 15.2172 16.7394 15.0222 16.7394 14.7825V11.3042H14.1306V14.7825C14.1306 16.4607 15.4959 17.826 17.1741 17.826C17.8205 17.826 18.4198 17.6229 18.9133 17.2779C19.4066 17.6228 20.0061 17.826 20.6524 17.826C20.7826 17.826 20.9105 17.8169 21.0364 17.8008C20.8516 18.5625 20.1656 19.1303 19.348 19.1303V21.739C21.7455 21.739 23.6958 19.7885 23.6958 17.3912V14.7825V11.3042H21.0872V14.7825H21.0871Z" fill="#F0F0F0"/>
<path d="M14.1306 19.1304H18.0437V21.739H14.1306V19.1304Z" fill="#F0F0F0"/>
</g>
<defs>
<clipPath id="clip0_2978_3330">
<rect width="40" height="40" fill="white"/>
</clipPath>
</defs>
</svg>
