<svg width="40" height="40" viewBox="0 0 40 40" fill="none" xmlns="http://www.w3.org/2000/svg">
<g clip-path="url(#clip0_2978_3420)">
<path d="M34.1427 34.1427C41.6435 26.6418 41.9397 14.6665 35.0343 6.8103L20 19.9999L6.8103 35.0343C14.6665 41.9397 26.6418 41.6435 34.1427 34.1427Z" fill="#496E2D"/>
<path d="M5.8573 5.85733C13.3581 -1.64351 25.3335 -1.93968 33.1897 4.9657L19.9999 20.0002L4.96573 33.1897C-1.93972 25.3335 -1.64347 13.3582 5.8573 5.85733Z" fill="#0052B4"/>
<path d="M33.1895 4.96564L4.96558 33.1896C5.25089 33.5143 5.54714 33.8327 5.85721 34.1426C6.16721 34.4526 6.48573 34.7489 6.81042 35.0343L35.0342 6.81032C34.7489 6.48563 34.4526 6.1672 34.1425 5.85712C33.8326 5.54728 33.5141 5.25095 33.1895 4.96564Z" fill="#FFDA44"/>
<path d="M8.42657 6.95593L8.85836 8.2846H10.2553L9.12516 9.10562L9.5568 10.4343L8.42657 9.61311L7.29634 10.4343L7.72813 9.10562L6.5979 8.2846H7.99493L8.42657 6.95593Z" fill="#F0F0F0"/>
<path d="M15.5621 6.95599L15.9939 8.28466H17.3907L16.2606 9.10568L16.6923 10.4343L15.5621 9.61318L14.4318 10.4343L14.8636 9.10568L13.7334 8.28466H15.1303L15.5621 6.95599Z" fill="#F0F0F0"/>
<path d="M8.42632 13.9127L8.85812 15.2414H10.2551L9.12492 16.0625L9.55656 17.3912L8.42632 16.57L7.29609 17.3912L7.72789 16.0625L6.59766 15.2414H7.99468L8.42632 13.9127Z" fill="#F0F0F0"/>
<path d="M15.5621 13.9127L15.9939 15.2414H17.3907L16.2606 16.0625L16.6923 17.3912L15.5621 16.57L14.4318 17.3912L14.8636 16.0625L13.7334 15.2414H15.1303L15.5621 13.9127Z" fill="#F0F0F0"/>
<path d="M11.9943 10.4343L12.4261 11.763H13.8229L12.6928 12.5841L13.1245 13.9128L11.9943 13.0916L10.864 13.9128L11.2958 12.5841L10.1655 11.763H11.5626L11.9943 10.4343Z" fill="#F0F0F0"/>
</g>
<defs>
<clipPath id="clip0_2978_3420">
<rect width="40" height="40" fill="white"/>
</clipPath>
</defs>
</svg>
