<svg width="40" height="40" viewBox="0 0 40 40" fill="none" xmlns="http://www.w3.org/2000/svg">
<g clip-path="url(#clip0_2978_3514)">
<path d="M1.98453 11.3044C0.713125 13.9338 0 16.8835 0 20C0 23.1165 0.713125 26.0663 1.98453 28.6956L20 30.4348L38.0155 28.6956C39.2869 26.0663 40 23.1165 40 20C40 16.8835 39.2869 13.9338 38.0155 11.3044L20 9.56525L1.98453 11.3044Z" fill="#F0F0F0"/>
<path d="M1.98511 28.6956C5.21995 35.3855 12.0707 40 19.9999 40C27.9291 40 34.7798 35.3855 38.0146 28.6956H1.98511Z" fill="black"/>
<path d="M1.98511 11.3044H38.0146C34.7798 4.61445 27.9291 0 19.9999 0C12.0707 0 5.21995 4.61445 1.98511 11.3044Z" fill="#D80027"/>
<path d="M5.85785 5.85779C-1.95262 13.6683 -1.95262 26.3316 5.85785 34.1422C9.08543 30.9146 12.1896 27.8104 20 20L5.85785 5.85779Z" fill="#496E2D"/>
</g>
<defs>
<clipPath id="clip0_2978_3514">
<rect width="40" height="40" fill="white"/>
</clipPath>
</defs>
</svg>
