<svg width="40" height="40" viewBox="0 0 40 40" fill="none" xmlns="http://www.w3.org/2000/svg">
<g clip-path="url(#clip0_2978_3541)">
<path d="M20 40C31.0457 40 40 31.0457 40 20C40 8.9543 31.0457 0 20 0C8.9543 0 0 8.9543 0 20C0 31.0457 8.9543 40 20 40Z" fill="#FFDA44"/>
<path d="M15.6524 17.3913H39.8309C38.5525 7.57828 30.1616 0 20.0002 0C18.5069 0 17.0523 0.165078 15.6523 0.475391V17.3913H15.6524Z" fill="#0052B4"/>
<path d="M10.4349 17.3912V2.43176C4.94318 5.42817 1.01186 10.9243 0.169434 17.3913H10.4349V17.3912Z" fill="#0052B4"/>
<path d="M10.4348 22.6087H0.169434C1.01186 29.0757 4.94318 34.5718 10.4349 37.5682L10.4348 22.6087Z" fill="#0052B4"/>
<path d="M15.6523 22.6088V39.5246C17.0523 39.835 18.5069 40 20.0002 40C30.1616 40 38.5525 32.4218 39.8309 22.6087H15.6523V22.6088Z" fill="#0052B4"/>
</g>
<defs>
<clipPath id="clip0_2978_3541">
<rect width="40" height="40" fill="white"/>
</clipPath>
</defs>
</svg>
