<svg width="40" height="40" viewBox="0 0 40 40" fill="none" xmlns="http://www.w3.org/2000/svg">
<g clip-path="url(#clip0_2978_3372)">
<path d="M20 40C31.0457 40 40 31.0457 40 20C40 8.9543 31.0457 0 20 0C8.9543 0 0 8.9543 0 20C0 31.0457 8.9543 40 20 40Z" fill="#F0F0F0"/>
<path d="M0 20.0001C0 8.95438 8.95437 0 20 0C31.0456 0 40 8.95438 40 20.0001" fill="#D80027"/>
<path d="M12.1739 10.4347C12.1739 7.52075 14.2218 5.08653 16.9565 4.48926C16.5361 4.39754 16.1001 4.34778 15.6521 4.34778C12.2903 4.34778 9.56512 7.07293 9.56512 10.4347C9.56512 13.7965 12.2903 16.5217 15.6521 16.5217C16.1 16.5217 16.5361 16.4719 16.9565 16.3801C14.2218 15.7829 12.1739 13.3486 12.1739 10.4347Z" fill="#F0F0F0"/>
<path d="M20.0002 4.78253L20.4319 6.11105H21.8288L20.6986 6.93222L21.1303 8.26073L20.0002 7.43972L18.87 8.26073L19.3017 6.93222L18.1716 6.11105H19.5684L20.0002 4.78253Z" fill="#F0F0F0"/>
<path d="M16.6115 7.39124L17.0431 8.71983H18.4401L17.3099 9.54092L17.7416 10.8694L16.6115 10.0484L15.4812 10.8694L15.913 9.54092L14.7827 8.71983H16.1797L16.6115 7.39124Z" fill="#F0F0F0"/>
<path d="M23.3888 7.39124L23.8206 8.71983H25.2175L24.0873 9.54092L24.5191 10.8694L23.3888 10.0484L22.2587 10.8694L22.6904 9.54092L21.5602 8.71983H22.9571L23.3888 7.39124Z" fill="#F0F0F0"/>
<path d="M22.0846 11.3043L22.5164 12.6329H23.9132L22.7831 13.4539L23.2148 14.7825L22.0846 13.9614L20.9545 14.7825L21.3862 13.4539L20.256 12.6329H21.6528L22.0846 11.3043Z" fill="#F0F0F0"/>
<path d="M17.9158 11.3043L18.3474 12.6329H19.7444L18.6142 13.4539L19.046 14.7825L17.9158 13.9614L16.7855 14.7825L17.2173 13.4539L16.0871 12.6329H17.4841L17.9158 11.3043Z" fill="#F0F0F0"/>
</g>
<defs>
<clipPath id="clip0_2978_3372">
<rect width="40" height="40" fill="white"/>
</clipPath>
</defs>
</svg>
