<svg width="40" height="40" viewBox="0 0 40 40" fill="none" xmlns="http://www.w3.org/2000/svg">
<g clip-path="url(#clip0_2978_3415)">
<path d="M20 40C31.0457 40 40 31.0457 40 20C40 8.9543 31.0457 0 20 0C8.9543 0 0 8.9543 0 20C0 31.0457 8.9543 40 20 40Z" fill="#F0F0F0"/>
<path d="M38.756 13.0435H17.3913V7.82605H6.95648V13.0435H1.24398C0.440078 15.21 0 17.5535 0 20C0 22.4464 0.440078 24.7898 1.24398 26.9564L20 28.6956L38.756 26.9564C39.5599 24.7898 40 22.4464 40 20C40 17.5535 39.5599 15.21 38.756 13.0435Z" fill="#0052B4"/>
<path d="M20 40C28.5993 40 35.9301 34.5725 38.756 26.9565H1.24396C4.06982 34.5725 11.4007 40 20 40Z" fill="#D80027"/>
<path d="M6.95648 13.0435V14.7826C6.95648 18.7764 12.1739 20.0001 12.1739 20.0001C12.1739 20.0001 17.3913 18.7764 17.3913 14.7826V13.0435L15.6522 14.7827L12.1739 12.174L8.69562 14.7827L6.95648 13.0435Z" fill="#F0F0F0"/>
</g>
<defs>
<clipPath id="clip0_2978_3415">
<rect width="40" height="40" fill="white"/>
</clipPath>
</defs>
</svg>
