<svg width="40" height="40" viewBox="0 0 40 40" fill="none" xmlns="http://www.w3.org/2000/svg">
<g clip-path="url(#clip0_2978_3368)">
<path d="M38.756 26.9565C39.56 24.7899 40 22.4464 40 20C40 17.5536 39.56 15.2102 38.756 13.0435L20 11.3044L1.24398 13.0435C0.44 15.2102 0 17.5536 0 20C0 22.4464 0.44 24.7899 1.24398 26.9565L20 28.6956L38.756 26.9565Z" fill="#F0F0F0"/>
<path d="M19.9999 40C28.5991 40 35.93 34.5725 38.7558 26.9565H1.24377C4.06971 34.5725 11.4005 40 19.9999 40Z" fill="#338AF3"/>
<path d="M19.9999 0C11.4005 0 4.06971 5.4275 1.24377 13.0435H38.7559C35.93 5.4275 28.5991 0 19.9999 0Z" fill="#6DA544"/>
</g>
<defs>
<clipPath id="clip0_2978_3368">
<rect width="40" height="40" fill="white"/>
</clipPath>
</defs>
</svg>
