<svg width="40" height="40" viewBox="0 0 40 40" fill="none" xmlns="http://www.w3.org/2000/svg">
<g clip-path="url(#clip0_2978_3299)">
<path d="M40 20C40 31.0456 31.0456 40 20 40C8.95437 40 0 31.0456 0 20C0.869531 20 20 17.3913 20 17.3913L40 20Z" fill="#338AF3"/>
<path d="M0 20C0 8.95437 8.95437 0 20 0C31.0456 0 40 8.95437 40 20" fill="#F0F0F0"/>
<path d="M27.9388 13.8003L20.0001 21.7391L12.0613 13.8003C11.0347 15.3243 10.4349 17.1586 10.4349 19.1304V21.739C10.4349 25.9278 13.1416 29.496 16.8976 30.7875C16.3963 31.77 16.4808 32.9962 17.2154 33.913C18.191 33.131 19.2011 32.3215 20.058 31.635C20.9149 32.3216 21.925 33.1311 22.9006 33.913C23.6438 32.9855 23.7222 31.7409 23.2011 30.7526C26.9058 29.4331 29.5652 25.8911 29.5652 21.739V19.1304C29.5653 17.1586 28.9655 15.3244 27.9388 13.8003Z" fill="#6DA544"/>
<path d="M20.0001 28.6957C16.1642 28.6957 13.0436 25.5749 13.0436 21.7392V19.1305C13.0436 15.2946 16.1643 12.174 20.0001 12.174C23.8358 12.174 26.9565 15.2947 26.9565 19.1305V21.7392C26.9565 25.5749 23.8359 28.6957 20.0001 28.6957Z" fill="#FFDA44"/>
<path d="M24.3478 21.7391V19.1305C24.3478 16.733 22.3974 14.7827 20 14.7827C17.6027 14.7827 15.6522 16.7331 15.6522 19.1305V21.7391L20 22.6087L24.3478 21.7391Z" fill="#338AF3"/>
<path d="M15.6522 21.7391C15.6522 24.1366 17.6027 26.0869 20 26.0869C22.3974 26.0869 24.3478 24.1365 24.3478 21.7391H15.6522Z" fill="#6DA544"/>
<path d="M25.2175 12.1739C25.2175 10.7332 24.0495 9.56526 22.6088 9.56526C21.9404 9.56526 21.3313 9.81682 20.8697 10.23V8.69565H21.7392V6.95651H20.8697V6.08698H19.1305V6.95651H18.261V8.69565H19.1305V10.23C18.6689 9.81682 18.0597 9.56526 17.3914 9.56526C15.9507 9.56526 14.7827 10.7332 14.7827 12.1739C14.7827 12.9463 15.1187 13.6401 15.6522 14.1178V15.6522H24.3479V14.1178C24.8815 13.6401 25.2175 12.9463 25.2175 12.1739Z" fill="#FFDA44"/>
</g>
<defs>
<clipPath id="clip0_2978_3299">
<rect width="40" height="40" fill="white"/>
</clipPath>
</defs>
</svg>
