<svg width="40" height="40" viewBox="0 0 40 40" fill="none" xmlns="http://www.w3.org/2000/svg">
<g clip-path="url(#clip0_2978_3346)">
<path d="M28.6956 1.98453C26.0662 0.713125 23.1164 0 20 0C16.8835 0 13.9337 0.713125 11.3043 1.98453L9.56519 20L11.3043 38.0155C13.9337 39.2869 16.8835 40 20 40C23.1164 40 26.0662 39.2869 28.6956 38.0155L30.4347 20L28.6956 1.98453Z" fill="#FFDA44"/>
<path d="M19.9998 13.0436L21.7264 18.3576H27.3145L22.7939 21.6423L24.5205 26.9565L19.9998 23.6722L15.4791 26.9565L17.2061 21.6423L12.6854 18.3576H18.2732L19.9998 13.0436Z" fill="#496E2D"/>
<path d="M11.3044 1.98523C4.61453 5.22015 0 12.0709 0 20C0 27.9291 4.61453 34.7798 11.3044 38.0148V1.98523Z" fill="#496E2D"/>
<path d="M28.6956 1.98523V38.0148C35.3854 34.7798 39.9999 27.9291 39.9999 20C39.9999 12.0709 35.3854 5.22015 28.6956 1.98523Z" fill="#D80027"/>
</g>
<defs>
<clipPath id="clip0_2978_3346">
<rect width="40" height="40" fill="white"/>
</clipPath>
</defs>
</svg>
