<svg width="40" height="40" viewBox="0 0 40 40" fill="none" xmlns="http://www.w3.org/2000/svg">
<g clip-path="url(#clip0_2978_3519)">
<path d="M20 40C31.0457 40 40 31.0457 40 20C40 8.9543 31.0457 0 20 0C8.9543 0 0 8.9543 0 20C0 31.0457 8.9543 40 20 40Z" fill="#F0F0F0"/>
<path d="M38.7559 13.0435H1.24391C0.440078 15.2102 0 17.5536 0 20C0 22.4464 0.440078 24.7899 1.24391 26.9565H38.756C39.56 24.7899 40 22.4464 40 20C40 17.5536 39.56 15.2102 38.7559 13.0435Z" fill="#A2001D"/>
<path d="M20.0577 39.9999C26.9079 39.9999 32.9529 36.5553 36.5574 31.3043H3.55811C7.16264 36.5553 13.2075 39.9999 20.0577 39.9999Z" fill="#6DA544"/>
<path d="M20.0578 0.00012207C26.908 0.00012207 32.953 3.44481 36.5575 8.69575H3.55823C7.16276 3.44481 13.2076 0.00012207 20.0578 0.00012207Z" fill="#6DA544"/>
<path d="M20 13.0435L21.7266 18.3576H27.3145L22.7939 21.6423L24.5207 26.9565L20 23.6722L15.4793 26.9565L17.2061 21.6423L12.6854 18.3576H18.2733L20 13.0435Z" fill="#FFDA44"/>
</g>
<defs>
<clipPath id="clip0_2978_3519">
<rect width="40" height="40" fill="white"/>
</clipPath>
</defs>
</svg>
