<svg width="40" height="40" viewBox="0 0 40 40" fill="none" xmlns="http://www.w3.org/2000/svg">
<g clip-path="url(#clip0_2978_3473)">
<path d="M20 40C31.0457 40 40 31.0457 40 20C40 8.9543 31.0457 0 20 0C8.9543 0 0 8.9543 0 20C0 31.0457 8.9543 40 20 40Z" fill="#F0F0F0"/>
<path d="M38.4398 12.2463C35.4109 5.05172 28.2959 0 20 0C14.477 0 9.47758 2.23898 5.85852 5.85852L10.8671 12.2463H38.4398Z" fill="black"/>
<path d="M10.9239 27.6812L5.85852 34.1414C9.47758 37.761 14.477 40 20 40C28.3239 40 35.4592 34.9145 38.4706 27.6812H10.9239Z" fill="#496E2D"/>
<path d="M4.34778 14.7101V25.2173H39.3111C39.7597 23.554 40 21.8052 40 20C40 18.1686 39.7532 16.3951 39.2921 14.7101H4.34778Z" fill="#A2001D"/>
<path d="M5.85785 5.85779C-1.95262 13.6683 -1.95262 26.3316 5.85785 34.1422C9.08543 30.9146 12.1896 27.8104 20 20L5.85785 5.85779Z" fill="#0052B4"/>
<path d="M6.51449 15.0275L8.95551 18.4339L12.9499 17.1647L10.4646 20.5392L12.9057 23.9457L8.92848 22.6248L6.44316 25.9992L6.47051 21.8083L2.49316 20.4873L6.48723 19.2182L6.51449 15.0275Z" fill="#FFDA44"/>
</g>
<defs>
<clipPath id="clip0_2978_3473">
<rect width="40" height="40" fill="white"/>
</clipPath>
</defs>
</svg>
