<svg width="40" height="40" viewBox="0 0 40 40" fill="none" xmlns="http://www.w3.org/2000/svg">
<g clip-path="url(#clip0_2978_3307)">
<path d="M20 40C31.0457 40 40 31.0457 40 20C40 8.9543 31.0457 0 20 0C8.9543 0 0 8.9543 0 20C0 31.0457 8.9543 40 20 40Z" fill="#FFDA44"/>
<path d="M12.174 13.0435H38.7561C35.9303 5.4275 28.5993 0 20.0001 0C14.4772 0 9.47771 2.23898 5.85864 5.85852L12.174 13.0435Z" fill="#6DA544"/>
<path d="M12.174 26.9565H38.7561C35.9303 34.5725 28.5993 40 20.0001 40C14.4772 40 9.47771 37.761 5.85864 34.1415L12.174 26.9565Z" fill="#6DA544"/>
<path d="M5.85773 5.85779C-1.95274 13.6683 -1.95274 26.3316 5.85773 34.1422C9.08531 30.9146 12.1894 27.8104 19.9999 20L5.85773 5.85779Z" fill="#D80027"/>
<path d="M25.3964 16.5217L26.2598 19.1789H29.0537L26.7934 20.8211L27.6567 23.4783L25.3964 21.836L23.1361 23.4783L23.9994 20.8211L21.7391 19.1789H24.533L25.3964 16.5217Z" fill="black"/>
<path d="M34.0922 16.5217L34.9554 19.1789H37.7493L35.4891 20.8211L36.3524 23.4783L34.0922 21.836L31.8318 23.4783L32.6951 20.8211L30.4348 19.1789H33.2287L34.0922 16.5217Z" fill="black"/>
</g>
<defs>
<clipPath id="clip0_2978_3307">
<rect width="40" height="40" fill="white"/>
</clipPath>
</defs>
</svg>
