<svg width="135" height="40" viewBox="0 0 135 40" fill="none" xmlns="http://www.w3.org/2000/svg">
<rect width="135" height="40" fill="white"/>
<path d="M130 40H5C2.25 40 0 37.75 0 35V5C0 2.25 2.25 0 5 0H130C132.75 0 135 2.25 135 5V35C135 37.75 132.75 40 130 40Z" fill="black"/>
<path d="M130 0.8C132.32 0.8 134.2 2.68 134.2 5V35C134.2 37.32 132.32 39.2 130 39.2H5C2.68 39.2 0.8 37.32 0.8 35V5C0.8 2.68 2.68 0.8 5 0.8H130ZM130 0H5C2.25 0 0 2.25 0 5V35C0 37.75 2.25 40 5 40H130C132.75 40 135 37.75 135 35V5C135 2.25 132.75 0 130 0Z" fill="#A6A6A6"/>
<path d="M47.4199 10.24C47.4199 11.08 47.1699 11.75 46.6699 12.24C46.1099 12.83 45.3799 13.13 44.4699 13.13C43.5999 13.13 42.8599 12.83 42.2599 12.23C41.6599 11.63 41.3599 10.88 41.3599 10C41.3599 9.12 41.6599 8.37 42.2599 7.77C42.8599 7.17 43.5999 6.86 44.4699 6.86C44.9099 6.86 45.3299 6.94 45.7199 7.09C46.1099 7.25 46.4299 7.47 46.6799 7.75L46.1299 8.3C45.9499 8.08 45.7099 7.9 45.4099 7.78C45.1199 7.65 44.7999 7.59 44.4699 7.59C43.8199 7.59 43.2599 7.82 42.8099 8.27C42.3599 8.73 42.1399 9.3 42.1399 9.99C42.1399 10.68 42.3599 11.25 42.8099 11.71C43.2599 12.16 43.8099 12.39 44.4699 12.39C45.0699 12.39 45.5599 12.22 45.9599 11.89C46.3599 11.56 46.5899 11.09 46.6499 10.51H44.4699V9.79H47.3799C47.3999 9.95 47.4199 10.1 47.4199 10.24Z" fill="white" stroke="white" stroke-width="0.2" stroke-miterlimit="10"/>
<path d="M52.0298 7V7.74H49.2998V9.64H51.7598V10.36H49.2998V12.26H52.0298V13H48.5298V7H52.0298Z" fill="white" stroke="white" stroke-width="0.2" stroke-miterlimit="10"/>
<path d="M55.2801 7.74V13H54.5101V7.74H52.8301V7H56.9501V7.74H55.2801Z" fill="white" stroke="white" stroke-width="0.2" stroke-miterlimit="10"/>
<path d="M60.7099 13H59.9399V7H60.7099V13Z" fill="white" stroke="white" stroke-width="0.2" stroke-miterlimit="10"/>
<path d="M64.1297 7.74V13H63.3597V7.74H61.6797V7H65.7997V7.74H64.1297Z" fill="white" stroke="white" stroke-width="0.2" stroke-miterlimit="10"/>
<path d="M74.4901 10C74.4901 10.89 74.1901 11.63 73.6001 12.23C73.0001 12.83 72.2701 13.13 71.4001 13.13C70.5301 13.13 69.8001 12.83 69.2001 12.23C68.6101 11.63 68.3101 10.89 68.3101 10C68.3101 9.11 68.6101 8.37 69.2001 7.77C69.7901 7.17 70.5201 6.86 71.4001 6.86C72.2701 6.86 73.0001 7.16 73.6001 7.77C74.2001 8.38 74.4901 9.12 74.4901 10ZM69.1101 10C69.1101 10.69 69.3301 11.27 69.7601 11.72C70.2001 12.17 70.7501 12.4 71.4001 12.4C72.0501 12.4 72.6001 12.17 73.0301 11.72C73.4701 11.27 73.6901 10.7 73.6901 10C73.6901 9.3 73.4701 8.73 73.0301 8.28C72.5901 7.83 72.0501 7.6 71.4001 7.6C70.7501 7.6 70.2001 7.83 69.7601 8.28C69.3301 8.73 69.1101 9.31 69.1101 10Z" fill="white" stroke="white" stroke-width="0.2" stroke-miterlimit="10"/>
<path d="M76.3398 13H75.5698V7H76.5098L79.4298 11.67H79.4598L79.4298 10.51V7H80.1998V13H79.3998L76.3498 8.11H76.3198L76.3498 9.27V13H76.3398Z" fill="white" stroke="white" stroke-width="0.2" stroke-miterlimit="10"/>
<path d="M68.14 21.75C65.79 21.75 63.87 23.54 63.87 26C63.87 28.45 65.79 30.25 68.14 30.25C70.49 30.25 72.41 28.45 72.41 26C72.41 23.54 70.49 21.75 68.14 21.75ZM68.14 28.58C66.85 28.58 65.74 27.52 65.74 26C65.74 24.47 66.85 23.42 68.14 23.42C69.43 23.42 70.54 24.47 70.54 26C70.54 27.52 69.42 28.58 68.14 28.58ZM58.82 21.75C56.47 21.75 54.55 23.54 54.55 26C54.55 28.45 56.47 30.25 58.82 30.25C61.17 30.25 63.09 28.45 63.09 26C63.09 23.54 61.17 21.75 58.82 21.75ZM58.82 28.58C57.53 28.58 56.42 27.52 56.42 26C56.42 24.47 57.53 23.42 58.82 23.42C60.11 23.42 61.22 24.47 61.22 26C61.22 27.52 60.11 28.58 58.82 28.58ZM47.74 23.06V24.86H52.06C51.93 25.87 51.59 26.62 51.08 27.13C50.45 27.76 49.47 28.45 47.75 28.45C45.09 28.45 43.01 26.31 43.01 23.65C43.01 20.99 45.09 18.85 47.75 18.85C49.18 18.85 50.23 19.41 51 20.14L52.27 18.87C51.19 17.84 49.76 17.05 47.74 17.05C44.1 17.05 41.04 20.01 41.04 23.66C41.04 27.3 44.1 30.27 47.74 30.27C49.71 30.27 51.19 29.63 52.35 28.42C53.54 27.23 53.91 25.55 53.91 24.2C53.91 23.78 53.88 23.39 53.81 23.07H47.74V23.06ZM93.05 24.46C92.7 23.51 91.62 21.75 89.41 21.75C87.22 21.75 85.4 23.47 85.4 26C85.4 28.38 87.2 30.25 89.62 30.25C91.57 30.25 92.7 29.06 93.16 28.37L91.71 27.4C91.23 28.11 90.57 28.58 89.62 28.58C88.67 28.58 87.99 28.15 87.56 27.29L93.25 24.94L93.05 24.46ZM87.25 25.88C87.2 24.24 88.52 23.4 89.47 23.4C90.21 23.4 90.84 23.77 91.05 24.3L87.25 25.88ZM82.63 30H84.5V17.5H82.63V30ZM79.57 22.7H79.5C79.08 22.2 78.28 21.75 77.26 21.75C75.13 21.75 73.18 23.62 73.18 26.02C73.18 28.4 75.13 30.26 77.26 30.26C78.27 30.26 79.08 29.81 79.5 29.29H79.56V29.9C79.56 31.53 78.69 32.4 77.29 32.4C76.15 32.4 75.44 31.58 75.15 30.89L73.52 31.57C73.99 32.7 75.23 34.08 77.29 34.08C79.48 34.08 81.33 32.79 81.33 29.65V22.01H79.56V22.7H79.57ZM77.42 28.58C76.13 28.58 75.05 27.5 75.05 26.02C75.05 24.52 76.13 23.43 77.42 23.43C78.69 23.43 79.69 24.53 79.69 26.02C79.7 27.5 78.7 28.58 77.42 28.58ZM101.81 17.5H97.34V30H99.21V25.26H101.82C103.89 25.26 105.92 23.76 105.92 21.38C105.91 19 103.87 17.5 101.81 17.5ZM101.85 23.52H99.2V19.23H101.85C103.25 19.23 104.04 20.39 104.04 21.37C104.04 22.35 103.25 23.52 101.85 23.52ZM113.39 21.73C112.04 21.73 110.64 22.33 110.06 23.64L111.72 24.33C112.07 23.64 112.73 23.41 113.42 23.41C114.38 23.41 115.37 23.99 115.38 25.02V25.15C115.04 24.96 114.32 24.67 113.43 24.67C111.64 24.67 109.83 25.65 109.83 27.48C109.83 29.15 111.29 30.23 112.93 30.23C114.18 30.23 114.88 29.67 115.31 29.01H115.37V29.97H117.17V25.18C117.18 22.97 115.52 21.73 113.39 21.73ZM113.16 28.58C112.55 28.58 111.7 28.27 111.7 27.52C111.7 26.56 112.76 26.19 113.68 26.19C114.5 26.19 114.89 26.37 115.38 26.61C115.24 27.76 114.24 28.58 113.16 28.58ZM123.74 22L121.6 27.42H121.54L119.32 22H117.31L120.64 29.58L118.74 33.79H120.69L125.82 22H123.74ZM106.94 30H108.81V17.5H106.94V30Z" fill="white"/>
<path d="M20.7203 19.42L10.0703 30.72C10.0703 30.72 10.0703 30.72 10.0703 30.73C10.4003 31.96 11.5203 32.86 12.8503 32.86C13.3803 32.86 13.8803 32.72 14.3103 32.46L14.3403 32.44L26.3203 25.53L20.7203 19.42Z" fill="#EA4335"/>
<path d="M31.49 17.5L31.48 17.49L26.31 14.49L20.48 19.68L26.33 25.53L31.48 22.56C32.38 22.07 32.99 21.12 32.99 20.03C32.99 18.93 32.38 17.99 31.49 17.5Z" fill="#FBBC04"/>
<path d="M10.0702 9.28C10.0102 9.52 9.97021 9.76 9.97021 10.02V29.99C9.97021 30.25 10.0002 30.49 10.0702 30.73L21.0802 19.72L10.0702 9.28Z" fill="#4285F4"/>
<path d="M20.8003 20L26.3103 14.49L14.3403 7.55C13.9103 7.29 13.4003 7.14 12.8503 7.14C11.5203 7.14 10.4003 8.05 10.0703 9.27L20.8003 20Z" fill="#34A853"/>
</svg>
