<svg width="40" height="40" viewBox="0 0 40 40" fill="none" xmlns="http://www.w3.org/2000/svg">
<g clip-path="url(#clip0_2978_3551)">
<path d="M20 40C31.0457 40 40 31.0457 40 20C40 8.9543 31.0457 0 20 0C8.9543 0 0 8.9543 0 20C0 31.0457 8.9543 40 20 40Z" fill="#F0F0F0"/>
<path d="M20 0C11.4007 0 4.06988 5.4275 1.24402 13.0435H38.7561C35.9302 5.4275 28.5993 0 20 0Z" fill="#D80027"/>
<path d="M20 40C28.5993 40 35.9302 34.5725 38.7561 26.9565H1.24402C4.06988 34.5725 11.4007 40 20 40Z" fill="black"/>
<path d="M11.9505 15.2175L13.0296 18.5387H16.522L13.6966 20.5917L14.7759 23.9131L11.9505 21.8604L9.12508 23.9131L10.2043 20.5917L7.37891 18.5387H10.8713L11.9505 15.2175Z" fill="#6DA544"/>
<path d="M28.0502 15.2175L29.1293 18.5387H32.6218L29.7964 20.5917L30.8756 23.9131L28.0502 21.8604L25.2248 23.9131L26.304 20.5917L23.4786 18.5387H26.9711L28.0502 15.2175Z" fill="#6DA544"/>
</g>
<defs>
<clipPath id="clip0_2978_3551">
<rect width="40" height="40" fill="white"/>
</clipPath>
</defs>
</svg>
