<svg width="40" height="40" viewBox="0 0 40 40" fill="none" xmlns="http://www.w3.org/2000/svg">
<g clip-path="url(#clip0_3044_1858)">
<path d="M38.0155 28.6956C39.2869 26.0663 40 23.1164 40 20C40 16.8836 39.2869 13.9337 38.0155 11.3044L20 10.4348L1.98453 11.3043C0.713125 13.9337 0 16.8836 0 20C0 23.1164 0.713125 26.0663 1.98453 28.6956L20 29.5652L38.0155 28.6956Z" fill="#FFDA44"/>
<path d="M20 0C12.0707 0 5.2195 4.61445 1.9845 11.3044H38.0154C34.7804 4.61445 27.9291 0 20 0Z" fill="black"/>
<path d="M20 40C12.0707 40 5.2195 35.3855 1.9845 28.6956H38.0154C34.7804 35.3855 27.9291 40 20 40Z" fill="#0052B4"/>
<path d="M39.0555 13.913H0.944453C0.331797 15.8325 0 17.8774 0 20C0 22.1226 0.331797 24.1675 0.944453 26.0869H39.0555C39.6682 24.1675 40 22.1226 40 20C40 17.8774 39.6682 15.8325 39.0555 13.913Z" fill="#A2001D"/>
<path d="M6.95654 19.1304H33.0435V20.8696H6.95654V19.1304Z" fill="#FFDA44"/>
<path d="M10.4348 15.6522H29.5653V17.3913H10.4348V15.6522Z" fill="#FFDA44"/>
<path d="M29.6895 20C29.6895 20 25.2174 25.2174 20 25.2174C14.7827 25.2174 14.7826 20 14.7826 20C14.7826 20 14.7826 14.7826 20 14.7826C25.2174 14.7826 29.6895 20 29.6895 20Z" fill="#F0F0F0"/>
<path d="M20 25.2174C14.7826 25.2174 10.3105 20 10.3105 20C10.3105 20 14.7826 14.7826 20 14.7826" fill="black"/>
<path d="M16.5217 18.2609H18.2609V21.7391H16.5217V18.2609Z" fill="#F0F0F0"/>
<path d="M21.7391 18.2609H23.4783V21.7391H21.7391V18.2609Z" fill="black"/>
<path d="M6.95643 21.7391C7.91693 21.7391 8.69557 20.9605 8.69557 20C8.69557 19.0395 7.91693 18.2609 6.95643 18.2609C5.99593 18.2609 5.21729 19.0395 5.21729 20C5.21729 20.9605 5.99593 21.7391 6.95643 21.7391Z" fill="#0052B4"/>
<path d="M33.0435 21.7391C34.004 21.7391 34.7826 20.9605 34.7826 20C34.7826 19.0395 34.004 18.2609 33.0435 18.2609C32.083 18.2609 31.3043 19.0395 31.3043 20C31.3043 20.9605 32.083 21.7391 33.0435 21.7391Z" fill="#0052B4"/>
</g>
<defs>
<clipPath id="clip0_3044_1858">
<rect width="40" height="40" fill="white"/>
</clipPath>
</defs>
</svg>
