<svg width="40" height="40" viewBox="0 0 40 40" fill="none" xmlns="http://www.w3.org/2000/svg">
<g clip-path="url(#clip0_3044_1892)">
<path d="M40 20C40 31.0456 31.0456 40 20 40C8.95437 40 0 31.0456 0 20C0 20.0048 20 0.0021875 20 0C31.0456 0 40 8.95437 40 20Z" fill="#0052B4"/>
<path d="M19.9465 20H20C20 19.982 20 19.9645 20 19.9465C19.9822 19.9644 19.9644 19.9822 19.9465 20Z" fill="#F0F0F0"/>
<path d="M20 10.4348C20 6.91563 20 4.60977 20 0H19.9966C8.95242 0.001875 0 8.95539 0 20H10.4348V14.1241L16.3106 20H19.9466C19.9644 19.9822 19.9822 19.9644 20.0001 19.9465C20.0001 18.5991 20.0001 17.3968 20.0001 16.3108L14.1241 10.4348H20Z" fill="#F0F0F0"/>
<path d="M10.1183 2.60864C6.99028 4.38981 4.38974 6.99028 2.60864 10.1183V20H7.82607V7.82622V7.82607H20C20 6.18052 20 4.61286 20 2.60864H10.1183Z" fill="#D80027"/>
<path d="M19.9999 17.5405L12.8941 10.4348H10.4347V10.435L19.9998 20H19.9999C19.9999 20 19.9999 18.3041 19.9999 17.5405Z" fill="#D80027"/>
<path d="M22.6086 10.4348V19.9999C22.6086 24.6593 28.6956 26.0869 28.6956 26.0869C28.6956 26.0869 34.7826 24.6593 34.7826 19.9999V10.4348H22.6086Z" fill="#FFDA44"/>
<path d="M27.8261 13.913C27.8261 14.8736 27.0475 17.3913 26.0869 17.3913C25.1264 17.3913 24.3478 14.8736 24.3478 13.913C24.3478 12.9525 26.0869 12.1739 26.0869 12.1739C26.0869 12.1739 27.8261 12.9525 27.8261 13.913Z" fill="#FF9811"/>
<path d="M32.441 15.8072C32.7217 15.1224 32.9399 14.1215 32.9399 13.6232C32.9399 12.8227 31.8964 12.1739 31.8964 12.1739C31.8964 12.1739 30.8529 12.8228 30.8529 13.6232C30.8529 14.1215 31.0712 15.1224 31.3518 15.8072L30.7494 17.1673C31.1035 17.3112 31.4905 17.3912 31.8963 17.3912C32.3022 17.3912 32.6892 17.3112 33.0433 17.1673L32.441 15.8072Z" fill="#A2001D"/>
<path d="M27.3914 20C27.3914 20 26.5219 21.7392 26.5219 23.4783H30.8697C30.8696 21.7392 30.0001 20 30.0001 20L28.6957 19.1305L27.3914 20Z" fill="#6DA544"/>
<path d="M30 20V19.5652C30 18.8449 29.416 18.2609 28.6956 18.2609C27.9753 18.2609 27.3912 18.8448 27.3912 19.5652V20H30Z" fill="#D80027"/>
</g>
<defs>
<clipPath id="clip0_3044_1892">
<rect width="40" height="40" fill="white"/>
</clipPath>
</defs>
</svg>
