<svg width="40" height="40" viewBox="0 0 40 40" fill="none" xmlns="http://www.w3.org/2000/svg">
<g clip-path="url(#clip0_2978_2210)">
<path d="M20 0C17.5536 0 15.2101 0.440078 13.0436 1.24398L12.174 20L13.0435 38.756C15.2101 39.56 17.5536 40 20 40C22.4465 40 24.79 39.56 26.9565 38.756L27.8261 20L26.9566 1.24398C24.79 0.440078 22.4465 0 20 0V0Z" fill="#FFDA44"/>
<path d="M39.9999 20C39.9999 11.4007 34.5724 4.06988 26.9564 1.24402V38.7561C34.5724 35.9302 39.9999 28.5993 39.9999 20Z" fill="#D80027"/>
<path d="M13.0435 38.7561V1.24402C5.4275 4.06988 0 11.4007 0 20C0 28.5993 5.4275 35.9302 13.0435 38.7561Z" fill="#0052B4"/>
</g>
<defs>
<clipPath id="clip0_2978_2210">
<rect width="40" height="40" fill="white"/>
</clipPath>
</defs>
</svg>
