<svg width="40" height="40" viewBox="0 0 40 40" fill="none" xmlns="http://www.w3.org/2000/svg">
<g clip-path="url(#clip0_2978_3604)">
<path d="M20 40C31.0457 40 40 31.0457 40 20C40 8.9543 31.0457 0 20 0C8.9543 0 0 8.9543 0 20C0 31.0457 8.9543 40 20 40Z" fill="#FFDA44"/>
<path d="M20.0001 0C19.9856 0.00015625 19.1306 8 19.1306 8H36.0011C32.3523 3.14242 26.5433 0 20.0001 0Z" fill="#496E2D"/>
<path d="M20.0001 39.9999C26.5433 39.9999 32.3522 36.8575 36.001 31.9999H3.99927C7.64802 36.8575 13.457 39.9999 20.0001 39.9999Z" fill="#496E2D"/>
<path d="M39.5997 16H19.1306L20.0001 24H39.5997C39.8622 22.7076 40.0001 21.3699 40.0001 20C40.0001 18.6301 39.862 17.2924 39.5997 16Z" fill="#496E2D"/>
<path d="M20 24C20 19.8261 20 4.69562 20 0C8.95437 0 0 8.95437 0 20C0 21.3699 0.138125 22.7076 0.400469 24H20Z" fill="#D80027"/>
<path d="M11.0358 9.56525L12.3308 13.5508H16.5218L13.1315 16.0143L14.4263 20L11.0358 17.5367L7.64536 20L8.94044 16.0143L5.55005 13.5508H9.74091L11.0358 9.56525Z" fill="#F0F0F0"/>
</g>
<defs>
<clipPath id="clip0_2978_3604">
<rect width="40" height="40" fill="white"/>
</clipPath>
</defs>
</svg>
