<svg width="40" height="40" viewBox="0 0 40 40" fill="none" xmlns="http://www.w3.org/2000/svg">
<g clip-path="url(#clip0_3044_1879)">
<path d="M20 40C31.0457 40 40 31.0457 40 20C40 8.9543 31.0457 0 20 0C8.9543 0 0 8.9543 0 20C0 31.0457 8.9543 40 20 40Z" fill="#FFDA44"/>
<path d="M32.1739 9.56523C31.9945 10.4273 31.913 11.3455 31.913 12.2609C31.913 17.537 35.0583 22.1034 39.5657 24.1591C39.8495 22.8173 40 21.4263 40 20C40 8.95437 31.0456 0 20 0C8.95437 0 0 8.95437 0 20C0 31.0456 8.95437 40 20 40C26.8502 40 32.8952 36.5553 36.4997 31.3044H11.3044V28.6957H38.0155C38.2888 28.1304 38.5358 27.55 38.7561 26.9566H11.3044L32.1739 9.56523Z" fill="#0052B4"/>
<path d="M14.6932 10.4348L15.1249 11.7634H16.5218L15.3917 12.5846L15.8234 13.9131L14.6932 13.0921L13.5631 13.9131L13.9947 12.5846L12.8645 11.7634H14.2615L14.6932 10.4348Z" fill="#F0F0F0"/>
<path d="M9.01861 20L9.5583 21.6609H11.3044L9.89166 22.687L10.4313 24.3478L9.01861 23.3214L7.60596 24.3478L8.14557 22.687L6.73291 21.6609H8.479L9.01861 20Z" fill="#F0F0F0"/>
<path d="M9.01861 6.08698L9.5583 7.74783H11.3044L9.89166 8.77401L10.4313 10.4348L9.01861 9.40838L7.60596 10.4348L8.14557 8.77401L6.73291 7.74783H8.479L9.01861 6.08698Z" fill="#F0F0F0"/>
<path d="M4.67071 13.9131L5.2104 15.5739H6.95642L5.54376 16.6001L6.08345 18.2609L4.67071 17.2345L3.25806 18.2609L3.79767 16.6001L2.38501 15.5739H4.13103L4.67071 13.9131Z" fill="#F0F0F0"/>
</g>
<defs>
<clipPath id="clip0_3044_1879">
<rect width="40" height="40" fill="white"/>
</clipPath>
</defs>
</svg>
