<svg width="40" height="40" viewBox="0 0 40 40" fill="none" xmlns="http://www.w3.org/2000/svg">
<g clip-path="url(#clip0_3044_1887)">
<path d="M20 40C31.0457 40 40 31.0457 40 20C40 8.9543 31.0457 0 20 0C8.9543 0 0 8.9543 0 20C0 31.0457 8.9543 40 20 40Z" fill="#FFDA44"/>
<path d="M20 0C15.1034 0 10.6186 1.7607 7.14185 4.68234L28.6957 20L7.14185 35.3177C10.6186 38.2393 15.1034 40 20 40C31.0457 40 40 31.0456 40 20C40 8.95437 31.0457 0 20 0Z" fill="#D80027"/>
<path d="M5.85785 5.85779C-1.95262 13.6683 -1.95262 26.3316 5.85785 34.1422C9.08543 30.9146 12.1896 27.8104 20 20L5.85785 5.85779Z" fill="black"/>
<path d="M5.54514 15.4183L8.58889 18.299L12.2692 16.294L10.4704 20.0791L13.5142 22.9598L9.35842 22.4186L7.55936 26.2036L6.79006 22.084L2.63428 21.5426L6.31443 19.5378L5.54514 15.4183Z" fill="#F0F0F0"/>
</g>
<defs>
<clipPath id="clip0_3044_1887">
<rect width="40" height="40" fill="white"/>
</clipPath>
</defs>
</svg>
