<svg width="40" height="40" viewBox="0 0 40 40" fill="none" xmlns="http://www.w3.org/2000/svg">
<g clip-path="url(#clip0_2978_3647)">
<path d="M20.0002 0C18.5069 0 17.0523 0.165078 15.6525 0.475391L14.783 19.9999L15.6525 39.5245C17.0524 39.8348 18.507 40 20.0002 40C31.0459 40 40.0002 31.0456 40.0002 19.9999C40.0001 8.9543 31.0459 0 20.0002 0V0Z" fill="#496E2D"/>
<path d="M5.21759 6.52902C1.97665 10.0834 0.000244141 14.8107 0.000244141 20C0.000244141 25.1892 1.97673 29.9165 5.21767 33.4711L6.0872 20L5.21759 6.52902Z" fill="#496E2D"/>
<path d="M29.2518 15.086C30.2358 12.3434 29.1303 9.36047 26.7579 7.87485C27.1846 7.93039 27.6118 8.03086 28.0334 8.18203C31.1977 9.31735 32.8425 12.8027 31.7072 15.9669C30.5719 19.1313 27.0866 20.776 23.9223 19.6407C23.5007 19.4895 23.107 19.2953 22.7424 19.067C25.5182 19.4284 28.2678 17.8287 29.2518 15.086Z" fill="#F0F0F0"/>
<path d="M23.7942 7.12305L22.9391 8.22789L21.6244 7.75609L22.4108 8.91063L21.5558 10.0153L22.8969 9.62422L23.6834 10.7786L23.7256 9.38234L25.0667 8.99117L23.7519 8.51953L23.7942 7.12305Z" fill="#F0F0F0"/>
<path d="M26.1031 10.723L25.248 11.8277L23.9331 11.3559L24.7196 12.5105L23.8646 13.6151L25.2056 13.2239L25.9922 14.3785L26.0345 12.9822L27.3756 12.5909L26.0607 12.1192L26.1031 10.723Z" fill="#F0F0F0"/>
<path d="M19.7237 8.43414L18.8686 9.53883L17.5539 9.06719L18.3404 10.2216L17.4854 11.3264L18.8263 10.9352L19.6129 12.0897L19.6552 10.6934L20.9962 10.3023L19.6814 9.83047L19.7237 8.43414Z" fill="#F0F0F0"/>
<path d="M19.6299 12.5578L18.7749 13.6625L17.4601 13.1908L18.2466 14.3453L17.3915 15.45L18.7327 15.0589L19.5191 16.2133L19.5614 14.8171L20.9025 14.4259L19.5876 13.9541L19.6299 12.5578Z" fill="#F0F0F0"/>
<path d="M23.5537 13.9656L22.6987 15.0703L21.3839 14.5986L22.1705 15.7531L21.3153 16.8577L22.6565 16.4666L23.443 17.6212L23.4852 16.2247L24.8263 15.8337L23.5114 15.3619L23.5537 13.9656Z" fill="#F0F0F0"/>
<path d="M5.21747 6.52897V33.4709C7.94247 36.4595 11.562 38.6177 15.6522 39.5244V0.475372C11.5619 1.38209 7.94255 3.54029 5.21747 6.52897Z" fill="#D80027"/>
<path d="M9.19941 10.5301L7.45245 9.22866V7.38827L9.19941 6.08694H11.6701L13.4171 7.38827V9.22866L11.6701 10.5301H9.19941Z" fill="#F0F0F0"/>
<path d="M10.4348 6.08694H9.19941L7.45245 7.38827V8.28804H10.4348V6.08694Z" fill="#FF9811"/>
<path d="M10.4346 10.5302H11.6699L13.4168 9.22874V8.28992H10.4346V10.5302Z" fill="#FF9811"/>
<path d="M9.19941 33.9129L7.45245 32.6115V30.7712L9.19941 29.4698H11.6701L13.4171 30.7712V32.6115L11.6701 33.9129H9.19941Z" fill="#F0F0F0"/>
<path d="M10.4348 29.4698H9.19941L7.45245 30.7712V31.6709H10.4348V29.4698Z" fill="#FF9811"/>
<path d="M10.4346 33.9129H11.6699L13.4168 32.6115V31.6728H10.4346V33.9129Z" fill="#FF9811"/>
<path d="M9.19959 22.2214L7.45264 20.92V19.0797L9.19959 17.7783H11.6703L13.4172 19.0797V20.92L11.6703 22.2214H9.19959Z" fill="#496E2D"/>
<path d="M13.4785 25.0848H12.7175V24.3239H11.3804L10.435 23.3784L9.48957 24.3239H8.15246V25.0848H7.3916V26.6065H8.15246V27.3674H9.48949L10.435 28.3129L11.3804 27.3674H12.7175V26.6065H13.4785V25.0848Z" fill="#496E2D"/>
<path d="M13.4785 13.3933H12.7175V12.6323H11.3804L10.435 11.6869L9.48957 12.6323H8.15246V13.3933H7.3916V14.915H8.15246V15.6758H9.48949L10.435 16.6215L11.3804 15.6758H12.7175V14.915H13.4785V13.3933Z" fill="#496E2D"/>
<path d="M9.56531 19.1305H11.3044V20.8696H9.56531V19.1305Z" fill="#D80027"/>
<path d="M10.4347 15.0235C10.9149 15.0235 11.3042 14.6342 11.3042 14.154C11.3042 13.6737 10.9149 13.2844 10.4347 13.2844C9.95443 13.2844 9.56512 13.6737 9.56512 14.154C9.56512 14.6342 9.95443 15.0235 10.4347 15.0235Z" fill="#D80027"/>
<path d="M10.4348 26.7156C10.9151 26.7156 11.3044 26.3263 11.3044 25.8461C11.3044 25.3658 10.9151 24.9765 10.4348 24.9765C9.95461 24.9765 9.56531 25.3658 9.56531 25.8461C9.56531 26.3263 9.95461 26.7156 10.4348 26.7156Z" fill="#D80027"/>
</g>
<defs>
<clipPath id="clip0_2978_3647">
<rect width="40" height="40" fill="white"/>
</clipPath>
</defs>
</svg>
