<svg width="40" height="40" viewBox="0 0 40 40" fill="none" xmlns="http://www.w3.org/2000/svg">
<g clip-path="url(#clip0_2978_3636)">
<path d="M20 40C31.0457 40 40 31.0457 40 20C40 8.9543 31.0457 0 20 0C8.9543 0 0 8.9543 0 20C0 31.0457 8.9543 40 20 40Z" fill="#D80027"/>
<path d="M20 29.5653C25.2827 29.5653 29.5652 25.2828 29.5652 20C29.5652 14.7173 25.2827 10.4348 20 10.4348C14.7173 10.4348 10.4348 14.7173 10.4348 20C10.4348 25.2828 14.7173 29.5653 20 29.5653Z" fill="#F0F0F0"/>
<path d="M21.1782 16.3428L22.8192 18.6042L25.4768 17.7424L23.8332 20.0018L25.474 22.2631L22.8173 21.3981L21.1738 23.6574L21.1755 20.8636L18.5189 19.9986L21.1765 19.1369L21.1782 16.3428Z" fill="#D80027"/>
<path d="M22.1738 25.6523C19.0523 25.6523 16.5217 23.1217 16.5217 20.0001C16.5217 16.8786 19.0523 14.348 22.1738 14.348C23.1471 14.348 24.063 14.594 24.8625 15.0273C23.6082 13.8007 21.893 13.0436 19.9999 13.0436C16.1581 13.0436 13.0435 16.1581 13.0435 20.0001C13.0435 23.842 16.1581 26.9565 19.9999 26.9565C21.893 26.9565 23.6083 26.1994 24.8625 24.9728C24.063 25.4062 23.1471 25.6523 22.1738 25.6523Z" fill="#D80027"/>
</g>
<defs>
<clipPath id="clip0_2978_3636">
<rect width="40" height="40" fill="white"/>
</clipPath>
</defs>
</svg>
