<svg width="40" height="40" viewBox="0 0 40 40" fill="none" xmlns="http://www.w3.org/2000/svg">
<g clip-path="url(#clip0_2978_3620)">
<path d="M20 40C31.0457 40 40 31.0457 40 20C40 8.9543 31.0457 0 20 0C8.9543 0 0 8.9543 0 20C0 31.0457 8.9543 40 20 40Z" fill="#F0F0F0"/>
<path d="M13.0435 10.4348V7.82608H10.4347V10.4348H7.82605V13.0435H10.4347V15.6522H13.0435V13.0435H15.6521V10.4348H13.0435Z" fill="#D80027"/>
<path d="M20 0V20C8.95437 20.0001 4.56445 20 0 20.0001C0 31.0456 8.95437 40 20 40C31.0456 40 40 31.0456 40 20C40 8.95437 31.0456 0 20 0Z" fill="#D80027"/>
</g>
<defs>
<clipPath id="clip0_2978_3620">
<rect width="40" height="40" fill="white"/>
</clipPath>
</defs>
</svg>
