<svg width="40" height="40" viewBox="0 0 40 40" fill="none" xmlns="http://www.w3.org/2000/svg">
<g clip-path="url(#clip0_2978_3630)">
<path d="M10.8293 2.22076C9.03887 3.1449 7.35817 4.35623 5.85723 5.85717C4.35622 7.35819 3.14489 9.03889 2.22083 10.8294L15.0807 24.9191L29.1705 37.779C30.9611 36.8549 32.6418 35.6436 34.1427 34.1427C35.6437 32.6417 36.855 30.961 37.7791 29.1705L24.9192 15.0807L10.8293 2.22076Z" fill="#F0F0F0"/>
<path d="M34.1427 34.1428C34.9817 33.3038 35.73 32.4085 36.3888 31.4695L8.53055 3.61127C7.59156 4.26994 6.69633 5.01822 5.85734 5.8572C5.01836 6.69619 4.27008 7.59142 3.61133 8.53049L31.4695 36.3886C32.4084 35.7299 33.3038 34.9817 34.1427 34.1428Z" fill="black"/>
<path d="M5.8573 34.1427C12.1672 40.4526 21.6436 41.6638 29.1706 37.779L2.22098 10.8293C-1.66379 18.3563 -0.452306 27.8328 5.8573 34.1427Z" fill="#D80027"/>
<path d="M34.1429 5.85722C27.833 -0.452623 18.3566 -1.66387 10.8296 2.22074L37.7792 29.1706C41.664 21.6435 40.4528 12.1671 34.1429 5.85722Z" fill="#D80027"/>
</g>
<defs>
<clipPath id="clip0_2978_3630">
<rect width="40" height="40" fill="white"/>
</clipPath>
</defs>
</svg>
