<svg width="40" height="40" viewBox="0 0 40 40" fill="none" xmlns="http://www.w3.org/2000/svg">
<g clip-path="url(#clip0_2978_3689)">
<path d="M40 20C40 31.0456 31.0456 40 20.0001 40C8.95438 40 0 31.0456 0 20C0 20.0048 20.0001 0.0021875 20.0001 0C31.0456 0 40 8.95437 40 20Z" fill="#338AF3"/>
<path d="M9.56531 20.0001H16.3108L10.4348 13.0436L9.56531 15.6523V20.0001Z" fill="#0052B4"/>
<path d="M20.0001 16.3109L13.0436 9.56531H20.0001L20.0001 16.3109Z" fill="#0052B4"/>
<path d="M19.9465 20H20C20 19.982 20 19.9645 20 19.9465C19.9822 19.9644 19.9644 19.9822 19.9465 20Z" fill="#F0F0F0"/>
<path d="M20.0001 10.4348C20.0001 6.91563 20.0001 4.60969 20.0001 0H19.9967C8.9525 0.001875 0 8.95539 0 20H10.4348V14.1241L16.3107 20H19.9466C19.9645 19.9822 19.9823 19.9644 20.0002 19.9465C20.0002 18.5991 20.0002 17.3968 20.0002 16.3108L14.1241 10.4348H20.0001Z" fill="#F0F0F0"/>
<path d="M10.1182 2.60855C6.99016 4.38972 4.38969 6.99019 2.60852 10.1182V19.9999H7.82594V7.82613V7.82597H19.9998C19.9998 6.18043 19.9998 4.61277 19.9998 2.60855H10.1182Z" fill="#D80027"/>
<path d="M19.9999 17.5404L12.8941 10.4347H10.4347V10.4348L19.9998 19.9998H19.9999C19.9999 19.9998 19.9999 18.304 19.9999 17.5404Z" fill="#D80027"/>
<path d="M21.8286 33.0436L22.2603 34.3722H23.6573L22.5272 35.1933L22.9589 36.5218L21.8286 35.7008L20.6985 36.5218L21.1302 35.1933L20 34.3722H21.3969L21.8286 33.0436Z" fill="#FFDA44"/>
<path d="M32.954 24.3479L33.3857 25.6765H34.7826L33.6526 26.4977L34.0844 27.8262L32.954 27.0052L31.824 27.8262L32.2557 26.4977L31.1254 25.6765H32.5223L32.954 24.3479Z" fill="#FFDA44"/>
<path d="M35.7417 11.3045L36.1734 12.6331H37.5704L36.4403 13.4542L36.8719 14.7827L35.7417 13.9617L34.6116 14.7827L35.0433 13.4542L33.9131 12.6331H35.31L35.7417 11.3045Z" fill="#FFDA44"/>
<path d="M36.4322 20.8696L36.8638 22.1983H38.2608L37.1307 23.0194L37.5624 24.3479L36.4322 23.5269L35.3021 24.3479L35.7338 23.0194L34.6035 22.1983H36.0005L36.4322 20.8696Z" fill="#FFDA44"/>
<path d="M23.8317 29.9188L25.0766 30.5531L26.0644 29.5653L25.8459 30.9449L27.0905 31.5792L25.7107 31.7978L25.4922 33.1775L24.8581 31.9328L23.4783 32.1514L24.466 31.1637L23.8317 29.9188Z" fill="#FFDA44"/>
<path d="M23.8317 24.7014L25.0766 25.3356L26.0644 24.3479L25.8459 25.7276L27.0905 26.3617L25.7107 26.5803L25.4922 27.9601L24.8581 26.7154L23.4783 26.934L24.466 25.9463L23.8317 24.7014Z" fill="#FFDA44"/>
<path d="M28.1795 28.0457L29.4244 28.68L30.4121 27.6923L30.1937 29.0719L31.4383 29.7061L30.0585 29.9247L29.84 31.3045L29.2059 30.0596L27.826 30.2784L28.8138 29.2906L28.1795 28.0457Z" fill="#FFDA44"/>
<path d="M28.1795 16.8754L29.4244 17.5096L30.4121 16.5219L30.1937 17.9015L31.4383 18.5357L30.0585 18.7543L29.84 20.134L29.2059 18.8894L27.826 19.1079L28.8138 18.1202L28.1795 16.8754Z" fill="#FFDA44"/>
<path d="M32.3934 16.7415L33.6383 17.3757L34.626 16.3879L34.4075 17.7676L35.6522 18.4018L34.2723 18.6204L34.0538 20.0001L33.4198 18.7554L32.0399 18.974L33.0277 17.9863L32.3934 16.7415Z" fill="#FFDA44"/>
</g>
<defs>
<clipPath id="clip0_2978_3689">
<rect width="40" height="40" fill="white"/>
</clipPath>
</defs>
</svg>
