<svg width="40" height="40" viewBox="0 0 40 40" fill="none" xmlns="http://www.w3.org/2000/svg">
<g clip-path="url(#clip0_3044_1873)">
<path d="M40 20C40 31.0456 31.0456 40 20 40C8.95437 40 0 31.0456 0 20C6.86953 13.1305 12.6956 7.30438 20 0C31.0456 0 40 8.95437 40 20Z" fill="#D80027"/>
<path d="M20 20C20 8.95437 20 7.65219 20 0C8.95437 0 0 8.95437 0 20H20Z" fill="#0052B4"/>
<path d="M17.3914 11.7048L14.9488 12.8538L16.2494 15.2194L13.5972 14.7119L13.261 17.3913L11.4136 15.4207L9.56615 17.3913L9.23013 14.7119L6.57779 15.2192L7.87841 12.8537L5.43591 11.7048L7.87849 10.5559L6.57779 8.19032L9.23005 8.69775L9.56623 6.01837L11.4136 7.989L13.2611 6.01837L13.5972 8.69775L16.2495 8.19032L14.9488 10.556L17.3914 11.7048Z" fill="#F0F0F0"/>
<path d="M11.4139 15.4273C13.47 15.4273 15.1368 13.7605 15.1368 11.7044C15.1368 9.64827 13.47 7.98148 11.4139 7.98148C9.35784 7.98148 7.69104 9.64827 7.69104 11.7044C7.69104 13.7605 9.35784 15.4273 11.4139 15.4273Z" fill="#0052B4"/>
<path d="M11.4136 13.6885C10.3198 13.6885 9.42993 12.7986 9.42993 11.7048C9.42993 10.6109 10.3199 9.72101 11.4136 9.72101C12.5074 9.72101 13.3974 10.6109 13.3974 11.7048C13.3973 12.7986 12.5073 13.6885 11.4136 13.6885Z" fill="#F0F0F0"/>
</g>
<defs>
<clipPath id="clip0_3044_1873">
<rect width="40" height="40" fill="white"/>
</clipPath>
</defs>
</svg>
