<svg width="40" height="40" viewBox="0 0 40 40" fill="none" xmlns="http://www.w3.org/2000/svg">
<g clip-path="url(#clip0_2978_3577)">
<path d="M20 40C31.0457 40 40 31.0457 40 20C40 8.9543 31.0457 0 20 0C8.9543 0 0 8.9543 0 20C0 31.0457 8.9543 40 20 40Z" fill="#FFDA44"/>
<path d="M5.85784 34.1422C6.69683 34.9812 7.59198 35.7294 8.53097 36.3881L36.388 8.53101C35.7294 7.59203 34.9811 6.69687 34.1421 5.85789C33.3031 5.01891 32.408 4.27078 31.469 3.61203L3.61206 31.4691C4.27065 32.4079 5.01894 33.3031 5.85784 34.1422Z" fill="black"/>
<path d="M5.85777 5.85783C-0.451759 12.1675 -1.66309 21.6434 2.22152 29.1702L29.1701 2.22166C21.6433 -1.66295 12.1674 -0.451546 5.85777 5.85783Z" fill="#6DA544"/>
<path d="M34.1421 34.1422C40.4516 27.8327 41.6629 18.3567 37.7784 10.8299L10.8298 37.7785C18.3565 41.6631 27.8325 40.4517 34.1421 34.1422Z" fill="#338AF3"/>
</g>
<defs>
<clipPath id="clip0_2978_3577">
<rect width="40" height="40" fill="white"/>
</clipPath>
</defs>
</svg>
