<svg width="40" height="40" viewBox="0 0 40 40" fill="none" xmlns="http://www.w3.org/2000/svg">
<g clip-path="url(#clip0_2978_3757)">
<path d="M20 40C31.0457 40 40 31.0457 40 20C40 8.9543 31.0457 0 20 0C8.9543 0 0 8.9543 0 20C0 31.0457 8.9543 40 20 40Z" fill="#F0F0F0"/>
<path d="M20 14.7825H39.311C38.8095 12.9221 38.0473 11.1689 37.0645 9.56512H20V14.7825Z" fill="#338AF3"/>
<path d="M7.55019 35.6522H32.4496C34.2749 34.1985 35.8402 32.4327 37.0644 30.4348H2.93542C4.15972 32.4326 5.72503 34.1985 7.55019 35.6522Z" fill="#338AF3"/>
<path d="M19.9999 0V4.34781H32.4496C29.0332 1.62688 24.7068 0 19.9999 0Z" fill="#338AF3"/>
<path d="M20 14.7825H39.311C38.8095 12.9221 38.0473 11.1689 37.0645 9.56512H20V14.7825Z" fill="#338AF3"/>
<path d="M0 20C0 21.8052 0.240625 23.5538 0.688984 25.2174H39.3111C39.7594 23.5538 40 21.8052 40 20H0Z" fill="#338AF3"/>
<path d="M17.3914 11.7048L14.9487 12.8538L16.2494 15.2194L13.5971 14.712L13.261 17.3913L11.4136 15.4207L9.56615 17.3913L9.23013 14.712L6.57779 15.2192L7.87841 12.8537L5.43591 11.7048L7.87849 10.5559L6.57779 8.19032L9.23005 8.69767L9.56623 6.01837L11.4136 7.989L13.2611 6.01837L13.5971 8.69767L16.2495 8.19032L14.9488 10.556L17.3914 11.7048Z" fill="#FFDA44"/>
</g>
<defs>
<clipPath id="clip0_2978_3757">
<rect width="40" height="40" fill="white"/>
</clipPath>
</defs>
</svg>
