<svg width="40" height="40" viewBox="0 0 40 40" fill="none" xmlns="http://www.w3.org/2000/svg">
<g clip-path="url(#clip0_2978_3767)">
<path d="M0.944375 13.9131C0.331719 15.8325 -7.81112e-05 17.8773 1.37933e-08 19.9998C-7.81112e-05 22.1225 0.331797 24.1674 0.944453 26.0868L20 26.9565L39.0555 26.087C39.6681 24.1675 40.0001 22.1225 40.0001 20C40 17.8773 39.6682 15.8325 39.0555 13.913L20 13.0435L0.944375 13.9131Z" fill="#F0F0F0"/>
<path d="M39.0555 13.9131L20 13.0436L0.94437 13.9131C0.762808 14.4822 0.606479 15.0624 0.475464 15.6523H39.5242C39.3934 15.0623 39.2371 14.482 39.0555 13.9131Z" fill="#D80027"/>
<path d="M0.475586 24.3477C0.606445 24.9376 0.762774 25.5177 0.944336 26.0868L0.946211 26.0869L19.9998 26.9564L39.0554 26.0869C39.2369 25.5178 39.3932 24.9376 39.5242 24.3477H0.475586Z" fill="#D80027"/>
<path d="M19.9999 39.9999C28.9231 39.9999 36.4801 34.1559 39.0555 26.0869H0.944458C3.51985 34.1559 11.077 39.9999 19.9999 39.9999Z" fill="#6DA544"/>
<path d="M19.9999 9.15535e-05C11.0769 0.000169679 3.51988 5.84415 0.944336 13.9131L39.0554 13.9132C36.4801 5.84408 28.923 1.34285e-05 19.9999 9.15535e-05Z" fill="#338AF3"/>
<path d="M9.13943 8.26081C9.13943 6.3876 10.4559 4.82276 12.214 4.43886C11.9438 4.37979 11.6634 4.34784 11.3754 4.34784C9.21436 4.34784 7.4624 6.09971 7.4624 8.26089C7.4624 10.4221 9.2142 12.1739 11.3754 12.1739C11.6634 12.1739 11.9437 12.1419 12.214 12.0829C10.456 11.6989 9.13943 10.134 9.13943 8.26081Z" fill="#F0F0F0"/>
<path d="M14.5267 10.0395L14.7916 10.8547H15.6488L14.9553 11.3586L15.2202 12.1739L14.5267 11.67L13.8331 12.1739L14.0981 11.3586L13.4045 10.8547H14.2617L14.5267 10.0395Z" fill="#F0F0F0"/>
<path d="M17.2628 10.0395L17.5277 10.8547H18.3849L17.6914 11.3586L17.9563 12.1739L17.2628 11.67L16.5693 12.1739L16.8342 11.3586L16.1407 10.8547H16.9979L17.2628 10.0395Z" fill="#F0F0F0"/>
<path d="M19.9988 10.0395L20.2636 10.8547H21.1209L20.4274 11.3586L20.6922 12.1739L19.9988 11.67L19.3052 12.1739L19.5702 11.3586L18.8766 10.8547H19.7339L19.9988 10.0395Z" fill="#F0F0F0"/>
<path d="M22.7347 10.0395L22.9997 10.8547H23.8568L23.1633 11.3586L23.4283 12.1739L22.7347 11.67L22.0411 12.1739L22.3061 11.3586L21.6125 10.8547H22.4697L22.7347 10.0395Z" fill="#F0F0F0"/>
<path d="M25.4707 10.0395L25.7356 10.8547H26.5928L25.8993 11.3586L26.1643 12.1739L25.4707 11.67L24.7771 12.1739L25.0421 11.3586L24.3486 10.8547H25.2057L25.4707 10.0395Z" fill="#F0F0F0"/>
<path d="M17.2628 7.19357L17.5277 8.00873H18.3849L17.6914 8.51271L17.9563 9.32787L17.2628 8.82404L16.5693 9.32787L16.8342 8.51271L16.1407 8.00873H16.9979L17.2628 7.19357Z" fill="#F0F0F0"/>
<path d="M19.9988 7.19357L20.2636 8.00873H21.1209L20.4274 8.51271L20.6922 9.32787L19.9988 8.82404L19.3052 9.32787L19.5702 8.51271L18.8766 8.00873H19.7339L19.9988 7.19357Z" fill="#F0F0F0"/>
<path d="M22.7347 7.19357L22.9997 8.00873H23.8568L23.1633 8.51271L23.4283 9.32787L22.7347 8.82404L22.0411 9.32787L22.3061 8.51271L21.6125 8.00873H22.4697L22.7347 7.19357Z" fill="#F0F0F0"/>
<path d="M25.4707 7.19357L25.7356 8.00873H26.5928L25.8993 8.51271L26.1643 9.32787L25.4707 8.82404L24.7771 9.32787L25.0421 8.51271L24.3486 8.00873H25.2057L25.4707 7.19357Z" fill="#F0F0F0"/>
<path d="M19.9988 4.34766L20.2636 5.16297H21.1209L20.4274 5.6668L20.6922 6.48211L19.9988 5.97828L19.3052 6.48211L19.5702 5.6668L18.8766 5.16297H19.7339L19.9988 4.34766Z" fill="#F0F0F0"/>
<path d="M22.7347 4.34766L22.9997 5.16297H23.8568L23.1633 5.6668L23.4283 6.48211L22.7347 5.97828L22.0411 6.48211L22.3061 5.6668L21.6125 5.16297H22.4697L22.7347 4.34766Z" fill="#F0F0F0"/>
<path d="M25.4707 4.34766L25.7356 5.16297H26.5928L25.8993 5.6668L26.1643 6.48211L25.4707 5.97828L24.7771 6.48211L25.0421 5.6668L24.3486 5.16297H25.2057L25.4707 4.34766Z" fill="#F0F0F0"/>
</g>
<defs>
<clipPath id="clip0_2978_3767">
<rect width="40" height="40" fill="white"/>
</clipPath>
</defs>
</svg>
