<svg width="40" height="40" viewBox="0 0 40 40" fill="none" xmlns="http://www.w3.org/2000/svg">
<g clip-path="url(#clip0_2978_3506)">
<path d="M29.5653 2.4318C26.7238 0.881484 23.4649 0 20.0001 0C16.5352 0 13.2763 0.881484 10.4348 2.4318L8.69568 20L10.4348 37.5682C13.2763 39.1185 16.5352 40 20.0001 40C23.4649 40 26.7238 39.1185 29.5653 37.5682L31.3044 20L29.5653 2.4318Z" fill="#FFDA44"/>
<path d="M10.4348 37.5681V2.43173C4.21789 5.82392 0 12.4192 0 20C0 27.5809 4.21789 34.1761 10.4348 37.5681Z" fill="#338AF3"/>
<path d="M40.0001 20.0001C40.0001 12.4192 35.7822 5.82401 29.5653 2.43182V37.5681C35.7822 34.1762 40.0001 27.581 40.0001 20.0001Z" fill="#6DA544"/>
<path d="M15.6522 25.2175L12.1738 20.0001L15.6521 14.7827L19.1305 20.0001L15.6522 25.2175Z" fill="#6DA544"/>
<path d="M24.3478 25.2175L20.8695 20.0001L24.3478 14.7827L27.8261 20.0001L24.3478 25.2175Z" fill="#6DA544"/>
<path d="M20 32.174L16.5217 26.9566L20 21.7392L23.4783 26.9566L20 32.174Z" fill="#6DA544"/>
</g>
<defs>
<clipPath id="clip0_2978_3506">
<rect width="40" height="40" fill="white"/>
</clipPath>
</defs>
</svg>
