<svg width="40" height="40" viewBox="0 0 40 40" fill="none" xmlns="http://www.w3.org/2000/svg">
<g clip-path="url(#clip0_2978_3819)">
<path d="M38.0155 28.6956C39.287 26.0662 40 23.1165 40 20C40 16.8835 39.287 13.9337 38.0155 11.3044L20 9.56522L1.98453 11.3044C0.713047 13.9337 0 16.8835 0 20C0 23.1165 0.713047 26.0662 1.98453 28.6956L20 30.4347L38.0155 28.6956Z" fill="#0052B4"/>
<path d="M20.0001 40C27.9292 40 34.7806 35.3855 38.0156 28.6956H1.98462C5.21962 35.3855 12.0709 40 20.0001 40Z" fill="#D80027"/>
<path d="M34.6381 23.9259L33.5818 24.7514L34.0402 26.0108L32.9287 25.2614L31.8723 26.0867L32.2417 24.798L31.1304 24.0483L32.4701 24.0016L32.8398 22.7129L33.2984 23.9726L34.6381 23.9259Z" fill="#F0F0F0"/>
<path d="M31.9329 19.2407L31.2226 20.3777L32.0844 21.4044L30.7836 21.0805L30.0731 22.2171L29.9794 20.8799L28.6787 20.5554L29.9218 20.0532L29.8284 18.7158L30.69 19.7429L31.9329 19.2407Z" fill="#F0F0F0"/>
<path d="M27.7885 15.7632L27.5099 17.0745L28.6708 17.7448L27.3376 17.8853L27.0588 19.1963L26.5135 17.9717L25.1802 18.1117L26.1766 17.2146L25.6313 15.9901L26.7923 16.6603L27.7885 15.7632Z" fill="#F0F0F0"/>
<path d="M22.7049 13.913L22.8917 15.2406L24.2118 15.4733L23.0069 16.0612L23.1936 17.3887L22.2623 16.4244L21.0572 17.012L21.6867 15.8282L20.7554 14.864L22.0757 15.0967L22.7049 13.913Z" fill="#F0F0F0"/>
<path d="M17.2951 13.913L17.9246 15.0967L19.2446 14.8638L18.3136 15.8284L18.9427 17.0122L17.7379 16.4244L16.8065 17.3885L16.9933 16.0612L15.7883 15.4736L17.1086 15.2406L17.2951 13.913Z" fill="#F0F0F0"/>
<path d="M12.2112 15.7632L13.2076 16.6603L14.3683 15.9901L13.8232 17.2151L14.8194 18.112L13.4862 17.9717L12.9407 19.1963L12.6624 17.8851L11.3291 17.7451L12.49 17.0746L12.2112 15.7632Z" fill="#F0F0F0"/>
<path d="M8.06694 19.2407L9.31015 19.7429L10.1716 18.716L10.0783 20.0536L11.3212 20.5559L10.0205 20.88L9.92679 22.2171L9.21663 21.0805L7.91577 21.4046L8.77749 20.3777L8.06694 19.2407Z" fill="#F0F0F0"/>
<path d="M5.36206 23.9259L6.70206 23.9726L7.16034 22.7131L7.53026 24.0018L8.86987 24.0486L7.75847 24.7983L8.12784 26.0869L7.07159 25.2616L5.96011 26.011L6.41862 24.7514L5.36206 23.9259Z" fill="#F0F0F0"/>
<path d="M38.0156 11.3044C34.7806 4.61445 27.9292 0 20.0001 0C12.0709 0 5.21962 4.61445 1.98462 11.3044H38.0156Z" fill="#FFDA44"/>
</g>
<defs>
<clipPath id="clip0_2978_3819">
<rect width="40" height="40" fill="white"/>
</clipPath>
</defs>
</svg>
