<svg width="40" height="40" viewBox="0 0 40 40" fill="none" xmlns="http://www.w3.org/2000/svg">
<g clip-path="url(#clip0_2978_2059)">
<path d="M40 20C40 31.0456 31.0456 40 20 40C8.95437 40 0 31.0456 0 20C0 20.0048 20 0.0021875 20 0C31.0456 0 40 8.95437 40 20Z" fill="#0052B4"/>
<path d="M19.9465 20H20C20 19.982 20 19.9645 20 19.9465C19.9822 19.9644 19.9644 19.9822 19.9465 20Z" fill="#F0F0F0"/>
<path d="M20 10.4348C20 6.91563 20 4.60977 20 0H19.9966C8.95242 0.001875 0 8.95539 0 20H10.4348V14.1241L16.3106 20H19.9466C19.9644 19.9822 19.9822 19.9644 20.0001 19.9465C20.0001 18.5991 20.0001 17.3968 20.0001 16.3108L14.1241 10.4348H20Z" fill="#F0F0F0"/>
<path d="M10.1183 2.60867C6.99028 4.38984 4.38974 6.99031 2.60864 10.1184V20H7.82607V7.82625V7.8261H20C20 6.18055 20 4.61289 20 2.60867H10.1183Z" fill="#D80027"/>
<path d="M28.6955 20L23.2898 25.4057C24.3029 27.3597 26.3426 28.6956 28.6955 28.6956C31.0484 28.6956 33.0881 27.3597 34.1012 25.4057L28.6955 20Z" fill="#FFDA44"/>
<path d="M20 17.5405L12.8942 10.4348H10.4348V10.435L19.9999 20H20C20 20 20 18.3041 20 17.5405Z" fill="#D80027"/>
<path d="M22.6086 10.4348V19.9999V20C22.6087 24.6593 28.6956 26.0869 28.6956 26.0869C28.6956 26.0869 34.7825 24.6593 34.7826 20V19.9999V10.4348H22.6086Z" fill="#6DA544"/>
<path d="M27.3914 14.7826H30V21.739H27.3914V14.7826Z" fill="#F0F0F0"/>
<path d="M28.6957 16.087C29.4161 16.087 30.0001 15.503 30.0001 14.7826C30.0001 14.0622 29.4161 13.4782 28.6957 13.4782C27.9753 13.4782 27.3914 14.0622 27.3914 14.7826C27.3914 15.503 27.9753 16.087 28.6957 16.087Z" fill="#A2001D"/>
<path d="M24.3479 12.1739H26.087V13.9131H24.3479V12.1739Z" fill="#FFDA44"/>
<path d="M24.3479 16.087H26.087V17.8261H24.3479V16.087Z" fill="#FFDA44"/>
<path d="M24.3479 20H26.087V21.7392H24.3479V20Z" fill="#FFDA44"/>
<path d="M31.3044 12.174H33.0436V13.9131H31.3044V12.174Z" fill="#FFDA44"/>
<path d="M31.3044 16.087H33.0436V17.8261H31.3044V16.087Z" fill="#FFDA44"/>
<path d="M31.3044 20H33.0436V21.7392H31.3044V20Z" fill="#FFDA44"/>
</g>
<defs>
<clipPath id="clip0_2978_2059">
<rect width="40" height="40" fill="white"/>
</clipPath>
</defs>
</svg>
