<svg width="40" height="40" viewBox="0 0 40 40" fill="none" xmlns="http://www.w3.org/2000/svg">
<g clip-path="url(#clip0_2978_3788)">
<path d="M40 20.0001C40 19.1159 39.9419 18.2453 39.8307 17.3914H17.3911C13.3051 13.3056 5.85753 5.85854 5.85784 5.85791C-1.95261 13.6684 -1.95261 26.3316 5.85784 34.1422L17.3913 22.6088H39.8307C39.9418 21.7548 40 20.8842 40 20.0001Z" fill="black"/>
<path d="M39.9943 20.4547C39.9934 20.4933 39.9925 20.5321 39.9915 20.5706C39.9924 20.5319 39.9933 20.4933 39.9943 20.4547Z" fill="#F0F0F0"/>
<path d="M39.975 21.0013C39.9732 21.0395 39.9705 21.0775 39.9685 21.1157C39.9705 21.0776 39.973 21.0395 39.975 21.0013Z" fill="#F0F0F0"/>
<path d="M39.9482 21.4372C39.9442 21.4934 39.9403 21.5496 39.9358 21.6056C39.9403 21.5496 39.9442 21.4934 39.9482 21.4372Z" fill="#F0F0F0"/>
<path d="M39.8813 17.82C39.8887 17.8869 39.896 17.9537 39.9027 18.0207C39.896 17.9536 39.8886 17.8869 39.8813 17.82Z" fill="#F0F0F0"/>
<path d="M39.9685 18.884C39.9706 18.9222 39.9732 18.9602 39.975 18.9984C39.9731 18.9602 39.9706 18.9221 39.9685 18.884Z" fill="#F0F0F0"/>
<path d="M39.9915 19.4292C39.9925 19.4678 39.9933 19.5065 39.9943 19.5451C39.9934 19.5064 39.9925 19.4678 39.9915 19.4292Z" fill="#F0F0F0"/>
<path d="M39.9358 18.3941C39.9403 18.4501 39.9442 18.5063 39.9482 18.5625C39.9442 18.5063 39.9403 18.4501 39.9358 18.3941Z" fill="#F0F0F0"/>
<path d="M39.8307 17.3913C39.8396 17.4598 39.8476 17.5287 39.8558 17.5974C38.6688 7.68476 30.2324 9.15527e-05 20 9.15527e-05C14.477 9.15527e-05 9.47696 2.23876 5.85767 5.85821L17.3908 17.3914H39.8307V17.3913Z" fill="#D80027"/>
<path d="M39.8307 22.6087H17.3908L5.85767 34.1419C9.47696 37.7613 14.477 40 20 40C30.2324 40 38.6689 32.3153 39.8558 22.4026C39.8476 22.4713 39.8395 22.5402 39.8307 22.6087Z" fill="#6DA544"/>
<path d="M39.9024 21.9791C39.8958 22.0461 39.8884 22.1129 39.8811 22.1798C39.8884 22.1129 39.8959 22.0462 39.9024 21.9791Z" fill="#F0F0F0"/>
<path d="M39.948 18.5626C39.9556 18.6695 39.9625 18.7767 39.9683 18.8842C39.9624 18.7767 39.9556 18.6695 39.948 18.5626Z" fill="black"/>
<path d="M39.8557 17.5974C39.8647 17.6715 39.8732 17.7458 39.8812 17.8202C39.8731 17.7458 39.8645 17.6716 39.8557 17.5974Z" fill="black"/>
<path d="M39.9026 18.0209C39.9148 18.145 39.9258 18.2695 39.9357 18.3944C39.9259 18.2695 39.9149 18.145 39.9026 18.0209Z" fill="black"/>
<path d="M39.9998 20C39.9998 20.1521 39.9975 20.3036 39.9941 20.4548C39.9975 20.3035 39.9998 20.1521 39.9998 20Z" fill="black"/>
<path d="M39.9683 21.1158C39.9624 21.2233 39.9555 21.3305 39.948 21.4374C39.9555 21.3305 39.9623 21.2233 39.9683 21.1158Z" fill="black"/>
<path d="M39.9357 21.6057C39.9258 21.7305 39.9148 21.855 39.9026 21.9791C39.9149 21.855 39.9259 21.7305 39.9357 21.6057Z" fill="black"/>
<path d="M39.8812 22.1798C39.8732 22.2542 39.8647 22.3284 39.8557 22.4027C39.8645 22.3285 39.8731 22.2542 39.8812 22.1798Z" fill="black"/>
<path d="M39.9941 19.5452C39.9975 19.6964 39.9998 19.848 39.9998 19.9999C39.9998 19.848 39.9975 19.6964 39.9941 19.5452Z" fill="black"/>
<path d="M39.9749 18.9985C39.9819 19.1417 39.9872 19.2853 39.9913 19.4292C39.9872 19.2853 39.982 19.1417 39.9749 18.9985Z" fill="black"/>
<path d="M39.9913 20.5708C39.9872 20.7147 39.9819 20.8584 39.9749 21.0015C39.982 20.8583 39.9873 20.7147 39.9913 20.5708Z" fill="black"/>
<path d="M39.9809 19.1232H16.6564L4.67537 7.14398C4.2881 7.55242 3.86834 8.12273 3.60873 8.5289L15.0664 19.9926L3.59912 31.4602C3.82615 31.8641 4.32076 32.4619 4.66803 32.8509L16.6566 20.8623H39.9837C39.9962 20.5739 40.0001 20.2842 40.0001 19.9928C40 19.6023 39.9892 19.3144 39.9809 19.1232Z" fill="#FFDA44"/>
<path d="M4.85841 24.2634V22.5882C6.53013 22.5882 7.89005 21.2281 7.89005 19.5565C7.89005 18.3738 6.92778 17.4116 5.74513 17.4116C4.93943 17.4116 4.28388 18.0671 4.28388 18.8729C4.28388 19.3882 4.70302 19.8074 5.21833 19.8074C5.50958 19.8074 5.74654 19.5703 5.74654 19.279H7.42169C7.42169 20.4941 6.43325 21.4825 5.21841 21.4825C3.77943 21.4826 2.60889 20.3118 2.60889 18.8731C2.60889 17.1436 4.01592 15.7367 5.74521 15.7367C7.85161 15.7367 9.56536 17.4504 9.56536 19.5568C9.56528 22.1518 7.4538 24.2634 4.85841 24.2634Z" fill="#FFDA44"/>
</g>
<defs>
<clipPath id="clip0_2978_3788">
<rect width="40" height="40" fill="white"/>
</clipPath>
</defs>
</svg>
