<svg width="40" height="40" viewBox="0 0 40 40" fill="none" xmlns="http://www.w3.org/2000/svg">
<g clip-path="url(#clip0_2978_3290)">
<path d="M40 20C40 31.0456 31.0456 40 20 40C8.95437 40 0 31.0456 0 20C6.86953 13.1305 12.6956 7.30438 20 0C31.0456 0 40 8.95437 40 20Z" fill="#D80027"/>
<path d="M20 20C20 8.95437 20 7.65219 20 0C8.95437 0 0 8.95437 0 20H20Z" fill="#0052B4"/>
<path d="M16.0202 13.0435L16.344 14.04H17.3917L16.544 14.6557L16.8678 15.6522L16.0202 15.0363L15.1725 15.6522L15.4963 14.6557L14.6487 14.04H15.6963L16.0202 13.0435Z" fill="#F0F0F0"/>
<path d="M10.7579 5.21747L11.2976 6.87833H13.0438L11.631 7.9045L12.1708 9.56528L10.7579 8.5388L9.34521 9.56528L9.8849 7.9045L8.47217 6.87833H10.2183L10.7579 5.21747Z" fill="#F0F0F0"/>
<path d="M15.9755 6.95648L16.5151 8.61742H18.2613L16.8485 9.64359L17.3881 11.3044L15.9755 10.2779L14.5627 11.3044L15.1024 9.64359L13.6897 8.61742H15.4358L15.9755 6.95648Z" fill="#F0F0F0"/>
<path d="M11.8512 13.9131L12.3909 15.5739H14.137L12.7243 16.6001L13.2639 18.2609L11.8512 17.2345L10.4385 18.2609L10.9782 16.6001L9.56543 15.5739H11.3116L11.8512 13.9131Z" fill="#F0F0F0"/>
<path d="M7.2796 9.56525L7.81929 11.2261H9.56546L8.15265 12.2523L8.69233 13.9131L7.2796 12.8867L5.86694 13.9131L6.40655 12.2523L4.9939 11.2261H6.73999L7.2796 9.56525Z" fill="#F0F0F0"/>
</g>
<defs>
<clipPath id="clip0_2978_3290">
<rect width="40" height="40" fill="white"/>
</clipPath>
</defs>
</svg>
