<svg width="40" height="40" viewBox="0 0 40 40" fill="none" xmlns="http://www.w3.org/2000/svg">
<g clip-path="url(#clip0_2978_3852)">
<path d="M20 40C31.0457 40 40 31.0457 40 20C40 8.9543 31.0457 0 20 0C8.9543 0 0 8.9543 0 20C0 31.0457 8.9543 40 20 40Z" fill="#F0F0F0"/>
<path d="M20.0001 40C28.5994 40 35.9303 34.5725 38.7561 26.9565H1.24408C4.06994 34.5725 11.4008 40 20.0001 40Z" fill="black"/>
<path d="M20.0001 0C11.4008 0 4.06994 5.4275 1.24408 13.0435H38.7562C35.9303 5.4275 28.5994 0 20.0001 0Z" fill="#D80027"/>
</g>
<defs>
<clipPath id="clip0_2978_3852">
<rect width="40" height="40" fill="white"/>
</clipPath>
</defs>
</svg>
