<svg width="40" height="40" viewBox="0 0 40 40" fill="none" xmlns="http://www.w3.org/2000/svg">
<g clip-path="url(#clip0_2978_3444)">
<path d="M20 40C31.0457 40 40 31.0457 40 20C40 8.9543 31.0457 0 20 0C8.9543 0 0 8.9543 0 20C0 31.0457 8.9543 40 20 40Z" fill="#F0F0F0"/>
<path d="M5.85785 34.1422C-1.95262 26.3316 -1.95262 13.6684 5.85785 5.85782C5.8573 5.85868 17.3914 20 17.3914 20L5.85785 34.1422Z" fill="black"/>
<path d="M17.3914 20L2.65264 10.0401C2.19569 10.8344 1.79272 11.6635 1.44647 12.5216L8.90811 20.0001L1.44671 27.479C1.79264 28.3365 2.19522 29.165 2.65186 29.9588L17.3914 20Z" fill="#FFDA44"/>
<path d="M39.8308 17.3913H17.3908L5.85771 5.85812C4.6149 7.10094 3.53514 8.50648 2.65264 10.0402L12.5932 20L2.65186 29.9586C3.53436 31.4927 4.61459 32.8987 5.85771 34.1418L17.3908 22.6087H39.8308C39.9419 21.7548 40.0001 20.8841 40.0001 20C40.0001 19.1159 39.9419 18.2452 39.8308 17.3913Z" fill="#6DA544"/>
<path d="M7.82324 35.8654C11.1958 38.4578 15.4175 40 20 40C29.2405 40 37.016 33.7327 39.311 25.2174H18.4713L7.82324 35.8654Z" fill="#0052B4"/>
<path d="M39.311 14.7826C37.016 6.26727 29.2405 0 20 0C15.4175 0 11.1958 1.54227 7.82324 4.13461L18.4712 14.7826H39.311Z" fill="#D80027"/>
</g>
<defs>
<clipPath id="clip0_2978_3444">
<rect width="40" height="40" fill="white"/>
</clipPath>
</defs>
</svg>
