<svg width="40" height="40" viewBox="0 0 40 40" fill="none" xmlns="http://www.w3.org/2000/svg">
<g clip-path="url(#clip0_2978_3856)">
<path d="M20 40C31.0457 40 40 31.0457 40 20C40 8.9543 31.0457 0 20 0C8.9543 0 0 8.9543 0 20C0 31.0457 8.9543 40 20 40Z" fill="#496E2D"/>
<path d="M27.8261 20H20V40C22.3378 40 24.5813 39.5976 26.6666 38.8605L27.8261 20Z" fill="#D80027"/>
<path d="M33.3333 34.9057C37.4246 31.2437 40 25.9229 40 20H32.174L33.3333 34.9057Z" fill="#FF9811"/>
<path d="M26.6665 20V38.8605C29.1506 37.9823 31.4095 36.6277 33.3332 34.9058V20H26.6665Z" fill="black"/>
<path d="M36.9565 13.0435H31.739C31.739 12.083 30.9604 11.3044 29.9999 11.3044C29.0394 11.3044 28.2608 12.083 28.2608 13.0435H23.0433C23.0433 14.004 23.88 14.7826 24.8404 14.7826H24.7825C24.7825 15.7432 25.561 16.5218 26.5216 16.5218C26.5216 17.4823 27.3001 18.2609 28.2608 18.2609H31.739C32.6995 18.2609 33.4782 17.4823 33.4782 16.5218C34.4386 16.5218 35.2173 15.7432 35.2173 14.7826H35.1594C36.1199 14.7826 36.9565 14.004 36.9565 13.0435Z" fill="#FF9811"/>
</g>
<defs>
<clipPath id="clip0_2978_3856">
<rect width="40" height="40" fill="white"/>
</clipPath>
</defs>
</svg>
