<svg width="40" height="40" viewBox="0 0 40 40" fill="none" xmlns="http://www.w3.org/2000/svg">
<g clip-path="url(#clip0_2978_3862)">
<path d="M20 40C31.0457 40 40 31.0457 40 20C40 8.9543 31.0457 0 20 0C8.9543 0 0 8.9543 0 20C0 31.0457 8.9543 40 20 40Z" fill="#F0F0F0"/>
<path d="M38.0855 11.4533C37.0694 9.30692 35.6826 7.37075 34.0076 5.72661L19.9998 4.34778L5.992 5.72668C5.94731 5.77051 5.90372 5.81536 5.8595 5.85965L11.4532 11.4534L19.9998 11.7144L38.0855 11.4533Z" fill="#FFDA44"/>
<path d="M5.85938 34.1405C5.93297 34.2141 6.00641 34.2878 6.08109 34.3603L19.9999 35.6521L33.9186 34.3603C35.6109 32.7196 37.0146 30.7833 38.045 28.6335L12.1737 27.826C9.94773 30.0521 7.38023 32.6195 5.85938 34.1405Z" fill="#FFDA44"/>
<path d="M39.801 17.1801L16.5216 16.5217L19.9999 20C18.9697 21.0302 17.4317 22.5682 16.5216 23.4783L39.7888 22.9069C39.9271 21.9577 39.9999 20.9874 39.9999 20C39.9999 19.0427 39.9311 18.1016 39.801 17.1801Z" fill="black"/>
<path d="M20 0C14.5447 0 9.60047 2.18516 5.99219 5.72672H34.0078C30.3995 2.18516 25.4553 0 20 0Z" fill="#6DA544"/>
<path d="M17.1801 17.1801H39.8011C39.5157 15.1583 38.9285 13.2338 38.0857 11.4534H11.4534L17.1801 17.1801Z" fill="#D80027"/>
<path d="M11.3665 28.6336H38.0452C38.8979 26.8545 39.4944 24.9298 39.789 22.9069H17.0932C14.8754 25.1246 12.9959 27.0042 11.3665 28.6336Z" fill="#D80027"/>
<path d="M20.0001 40C25.4106 40 30.3185 37.8506 33.9188 34.3602H6.08142C9.68173 37.8506 14.5895 40 20.0001 40Z" fill="#6DA544"/>
<path d="M7.14177 4.68234C6.69716 5.05594 6.26818 5.44758 5.85779 5.85781L20 20L5.85779 34.1422C6.2681 34.5525 6.69716 34.9441 7.14177 35.3177L22.4594 20L7.14177 4.68234Z" fill="black"/>
<path d="M8.04096 14.7826L9.33588 18.7682H13.5269L10.1364 21.2316L11.4314 25.2174L8.04096 22.754L4.65041 25.2174L5.94557 21.2316L2.55518 18.7682H6.74596L8.04096 14.7826Z" fill="#D80027"/>
<path d="M11.603 20.3261L8.22819 19.1305C8.22819 19.1305 7.97881 16.7912 7.96373 16.7119C7.8492 16.1085 7.31897 15.6522 6.68225 15.6522C5.96194 15.6522 5.37788 16.2362 5.37788 16.9566C5.37788 17.076 5.3953 17.1911 5.42538 17.3011L4.47913 18.2537H6.16163C6.16163 20 4.8585 20 4.8585 21.7391L5.58139 23.4783H9.9292L10.6539 21.7391H10.6536C10.7262 21.5723 10.7702 21.4002 10.7884 21.2282C11.4131 20.9756 11.603 20.3261 11.603 20.3261Z" fill="#FFDA44"/>
</g>
<defs>
<clipPath id="clip0_2978_3862">
<rect width="40" height="40" fill="white"/>
</clipPath>
</defs>
</svg>
